<?xml version="1.0" encoding="UTF-8" standalone="no"?>
<!-- Created with Inkscape (http://www.inkscape.org/) -->

<svg
   xmlns:dc="http://purl.org/dc/elements/1.1/"
   xmlns:cc="http://creativecommons.org/ns#"
   xmlns:rdf="http://www.w3.org/1999/02/22-rdf-syntax-ns#"
   xmlns:svg="http://www.w3.org/2000/svg"
   xmlns="http://www.w3.org/2000/svg"
   xmlns:sodipodi="http://sodipodi.sourceforge.net/DTD/sodipodi-0.dtd"
   xmlns:inkscape="http://www.inkscape.org/namespaces/inkscape"
   width="512"
   height="512"
   id="svg2"
   version="1.1"
   inkscape:version="0.92.5 (0.92.5+68)"
   sodipodi:docname="safari-pinned-tab.svg"
   inkscape:export-filename="/home/amanda/Desktop/favicon-16x16.png"
   inkscape:export-xdpi="96"
   inkscape:export-ydpi="96"
   viewBox="0 0 480 479.99997">
  <defs
     id="defs4" />
  <sodipodi:namedview
     id="base"
     pagecolor="#ffffff"
     bordercolor="#666666"
     borderopacity="1.0"
     inkscape:pageopacity="0.0"
     inkscape:pageshadow="2"
     inkscape:zoom="1"
     inkscape:cx="161.37147"
     inkscape:cy="320.5"
     inkscape:document-units="px"
     inkscape:current-layer="layer1"
     showgrid="false"
     fit-margin-top="0"
     fit-margin-left="0"
     fit-margin-right="0"
     fit-margin-bottom="0"
     inkscape:window-width="1779"
     inkscape:window-height="889"
     inkscape:window-x="426"
     inkscape:window-y="63"
     inkscape:window-maximized="0"
     inkscape:pagecheckerboard="false"
     borderlayer="true" />
  <metadata
     id="metadata7">
    <rdf:RDF>
      <cc:Work
         rdf:about="">
        <dc:format>image/svg+xml</dc:format>
        <dc:type
           rdf:resource="http://purl.org/dc/dcmitype/StillImage" />
        <dc:title></dc:title>
      </cc:Work>
    </rdf:RDF>
  </metadata>
  <g
     inkscape:groupmode="layer"
     id="layer2"
     inkscape:label="background"
     sodipodi:insensitive="true"
     transform="translate(0,-1.55e-5)">
    <rect
       style="opacity:1;fill:#f2f2f2;fill-opacity:1;stroke:none;stroke-width:11.29779625;stroke-miterlimit:4;stroke-dasharray:none;stroke-dashoffset:0;stroke-opacity:1"
       id="rect819"
       width="555"
       height="552.1875"
       x="-35.624996"
       y="-32.812504"
       ry="0" />
  </g>
  <g
     inkscape:label="logo"
     inkscape:groupmode="layer"
     id="layer1"
     transform="translate(119.59093,-170.93002)">
    <g
       id="g2996"
       transform="matrix(1.114915,0,0,1.114915,-266.0524,-122.62081)"
       inkscape:export-xdpi="90"
       inkscape:export-ydpi="90">
      <g
         id="text2985"
         style="font-style:normal;font-variant:normal;font-weight:900;font-stretch:normal;font-size:247.30751038px;line-height:125%;font-family:'Blacked Out';-inkscape-font-specification:'Blacked Out Heavy';text-align:start;letter-spacing:0px;word-spacing:0px;writing-mode:lr-tb;text-anchor:start;fill:#000000;fill-opacity:1;stroke:none" />
    </g>
    <g
       id="g12"
       transform="matrix(0.0833667,0,0,-0.0833667,-141.91278,633.79762)">
      <path
         d="M 1455.3175,1487.1718 H 381.879 v 2276.9676 h 1016.2332 c 89.7212,0 173.8247,-17.6312 252.3775,-52.932 80.7232,-33.1209 150.2684,-79.446 208.6069,-139.0136 60.576,-57.359 107.6885,-125.7807 141.3376,-205.1882 35.9058,-77.2373 53.8346,-161.0814 53.8346,-251.5229 0,-81.6258 -14.5966,-158.8631 -43.7418,-231.6733 -29.1837,-70.592 -69.5452,-134.5867 -121.1232,-191.9456 78.5145,-61.786 141.3088,-139.0233 188.4213,-231.6734 47.1125,-92.6501 70.6688,-191.9456 70.6688,-297.8479 0,-92.6886 -17.9673,-180.9501 -53.8635,-264.7943 -35.8577,-81.6259 -85.227,-153.3126 -148.0213,-215.0889 -62.8327,-59.5677 -136.8817,-107.0259 -222.1087,-142.3267 -83.0183,-35.2912 -172.7395,-52.9608 -269.1829,-52.9608 m -57.2053,1899.6737 H 762.13351 v -546.0578 h 625.88589 c 40.3616,0 77.3909,7.7209 111.0304,23.1818 35.9058,15.4129 66.1745,35.3008 90.8544,59.5676 26.8981,24.2669 48.2456,52.932 63.9274,86.0529 15.7106,33.0825 23.5563,68.3833 23.5563,105.8927 0,77.1989 -26.9366,141.1936 -80.7616,191.9552 -53.8347,52.9608 -119.9996,79.4076 -198.5141,79.4076 m 104.3179,-920.0578 H 762.13351 v -608.9289 h 693.18399 c 42.6087,0 82.9703,7.7305 121.1232,23.1434 38.1529,15.4609 71.8019,36.4243 100.9472,62.9095 29.1836,28.6651 51.6163,61.7475 67.2981,99.257 15.7106,37.5095 23.5562,77.2373 23.5562,119.1738 0,39.6893 -6.7221,77.1988 -20.1856,112.4996 -13.4634,37.5095 -32.5255,70.6016 -57.2053,99.2954 -24.6798,28.6939 -53.825,50.7521 -87.4741,66.213 -31.4403,17.6312 -65.0894,26.4372 -100.9471,26.4372"
         style="fill:#000000;fill-opacity:1;fill-rule:nonzero;stroke:none;stroke-width:0.96030414"
         id="path18"
         inkscape:connector-curvature="0" />
      <path
         d="m 2685.784,1487.1718 158.1429,380.5974 h 777.2894 l -57.2053,125.771 -137.9381,311.0905 -275.9338,602.3604 -275.9338,-602.3604 -137.9765,-311.0905 -232.1535,-506.3684 h -417.281 L 3150.1391,3810.4644 4213.4551,1487.1718 H 2685.784"
         style="fill:#000000;fill-opacity:1;fill-rule:nonzero;stroke:none;stroke-width:0.96030414"
         id="path20"
         inkscape:connector-curvature="0" />
      <path
         d="m 5013.9166,3386.8455 h -265.8122 v -532.8152 h 1113.8088 v -374 H 4748.1044 v -992.8585 h -380.2516 l -3.3803,2280.3094 1583.119,-4.5422 c 0.1825,-27.5319 -1.3156,-36.4628 -0.3457,-66.9236 6.2708,-45.7969 -1.8726,-129.9003 -0.3361,-131.4752 4.4654,-52.9704 2.4776,-115.9088 2.4776,-177.6947 h -935.4707"
         style="fill:#000000;fill-opacity:1;fill-rule:nonzero;stroke:none;stroke-width:0.96030414"
         id="path22"
         inkscape:connector-curvature="0" />
    </g>
  </g>
</svg>
