<?xml version="1.0" encoding="UTF-8" standalone="no"?>
<!-- Created with Inkscape (http://www.inkscape.org/) -->

<svg
   xmlns:dc="http://purl.org/dc/elements/1.1/"
   xmlns:cc="http://creativecommons.org/ns#"
   xmlns:rdf="http://www.w3.org/1999/02/22-rdf-syntax-ns#"
   xmlns:svg="http://www.w3.org/2000/svg"
   xmlns="http://www.w3.org/2000/svg"
   xmlns:sodipodi="http://sodipodi.sourceforge.net/DTD/sodipodi-0.dtd"
   xmlns:inkscape="http://www.inkscape.org/namespaces/inkscape"
   id="svg2"
   version="1.1"
   inkscape:version="0.92.3 (unknown)"
   width="442.34564"
   height="41.8839"
   xml:space="preserve"
   sodipodi:docname="baf logo with head and solid text.svg"><metadata
     id="metadata8"><rdf:RDF><cc:Work
         rdf:about=""><dc:format>image/svg+xml</dc:format><dc:type
           rdf:resource="http://purl.org/dc/dcmitype/StillImage" /><dc:title></dc:title></cc:Work></rdf:RDF></metadata><defs
     id="defs6" /><sodipodi:namedview
     pagecolor="#ffffff"
     bordercolor="#666666"
     borderopacity="1"
     objecttolerance="10"
     gridtolerance="10"
     guidetolerance="10"
     inkscape:pageopacity="0"
     inkscape:pageshadow="2"
     inkscape:window-width="1645"
     inkscape:window-height="893"
     id="namedview4"
     showgrid="false"
     inkscape:zoom="1"
     inkscape:cx="302.35142"
     inkscape:cy="-74.589982"
     inkscape:window-x="296"
     inkscape:window-y="82"
     inkscape:window-maximized="0"
     inkscape:current-layer="g10"
     fit-margin-top="0"
     fit-margin-left="0"
     fit-margin-right="0"
     fit-margin-bottom="0" /><g
     id="g10"
     inkscape:groupmode="layer"
     inkscape:label="ink_ext_XXXXXX"
     transform="matrix(1.25,0,0,-1.25,110.43595,138.34887)"><path
       inkscape:connector-curvature="0"
       id="path4136"
       style="font-style:normal;font-variant:normal;font-weight:bold;font-stretch:normal;font-size:medium;line-height:125%;font-family:'Blacked Out';-inkscape-font-specification:'Blacked Out, Bold';text-align:start;letter-spacing:0px;word-spacing:0px;writing-mode:lr-tb;text-anchor:start;fill:#ffffff;fill-opacity:1;stroke:none;stroke-width:0.53517008px;stroke-linecap:butt;stroke-linejoin:miter;stroke-opacity:1"
       d="m -67.551267,94.706768 q 1.819171,-1.278349 2.900834,-3.343377 1.130838,-2.015786 1.130838,-4.42491 0,-1.966693 -0.786667,-3.73679 -0.737501,-1.720781 -2.064999,-3.048298 -1.27834,-1.278276 -3.048336,-2.064952 -1.770004,-0.73751 -3.736669,-0.73751 h -15.192493 v 32.892539 h 14.356658 q 1.868339,0 3.490832,-0.73751 1.67167,-0.68833 2.900834,-1.96667 1.27834,-1.22926 1.966664,-2.90088 0.73751,-1.62244 0.73751,-3.54004 0,-1.868284 -0.73751,-3.490731 -0.688324,-1.622447 -1.917496,-2.900871 z m -16.224998,10.914912 v -9.095721 h 9.636671 q 0.934161,0 1.769995,0.344023 0.885003,0.393413 1.524168,1.032587 0.688334,0.639175 1.032496,1.475093 0.393338,0.835698 0.393338,1.720708 0,1.9176 -1.327499,3.19587 -1.327498,1.32744 -3.245005,1.32744 z m 15.684167,-18.683199 q 0,0.934179 -0.344162,1.81919 -0.295004,0.934105 -0.885002,1.622448 -0.589999,0.737509 -1.425834,1.130847 -0.786668,0.442507 -1.720837,0.442507 H -83.776265 V 81.923416 h 10.619999 q 1.032504,0 1.966665,0.393264 0.934169,0.393414 1.622502,1.081829 0.688333,0.688268 1.081671,1.573279 0.39333,0.934179 0.39333,1.966693 z" /><path
       inkscape:connector-curvature="0"
       id="path4138"
       style="font-style:normal;font-variant:normal;font-weight:bold;font-stretch:normal;font-size:medium;line-height:125%;font-family:'Blacked Out';-inkscape-font-specification:'Blacked Out, Bold';text-align:start;letter-spacing:0px;word-spacing:0px;writing-mode:lr-tb;text-anchor:start;fill:#ffffff;fill-opacity:1;stroke:none;stroke-width:0.53517008px;stroke-linecap:butt;stroke-linejoin:miter;stroke-opacity:1"
       d="m -61.748833,93.772664 q 0,3.097318 1.081671,6.047504 1.130829,2.999132 3.146661,5.260822 2.015831,2.31079 4.769173,3.68746 2.753332,1.42585 6.096662,1.42585 3.097504,0 5.801668,-1.32749 2.753332,-1.32752 4.818331,-3.58915 2.064999,-2.26169 3.244995,-5.26097 1.229174,-2.949964 1.229174,-6.244026 0,-3.048449 -1.130839,-6.04758 -1.130829,-2.949965 -3.146661,-5.260828 -2.015832,-2.310863 -4.769173,-3.736715 -2.753332,-1.425778 -6.047495,-1.425778 -3.195828,0 -5.94917,1.376685 -2.753331,1.376611 -4.81833,3.638232 -2.015833,2.310937 -3.195828,5.260828 -1.130839,2.99928 -1.130839,6.195156 z m 4.523336,0 q 0,-2.458367 0.835835,-4.621802 0.835834,-2.163214 2.261668,-3.785661 1.425833,-1.622595 3.34333,-2.556773 1.917497,-0.934253 4.129998,-0.934253 2.163334,0 4.031664,0.934253 1.917497,0.934178 3.343329,2.556773 1.425843,1.622447 2.261669,3.785661 0.835844,2.163435 0.835844,4.621802 0,2.458291 -0.835844,4.621579 -0.835826,2.163357 -2.261669,3.736717 -1.425832,1.62244 -3.343329,2.55662 -1.86833,0.9341 -4.031664,0.9341 -2.212501,0 -4.129998,-0.9341 -1.917497,-0.93418 -3.34333,-2.55662 -1.425834,-1.57336 -2.261668,-3.736717 -0.835835,-2.163288 -0.835835,-4.621579 z" /><path
       inkscape:connector-curvature="0"
       id="path4140"
       style="font-style:normal;font-variant:normal;font-weight:bold;font-stretch:normal;font-size:medium;line-height:125%;font-family:'Blacked Out';-inkscape-font-specification:'Blacked Out, Bold';text-align:start;letter-spacing:0px;word-spacing:0px;writing-mode:lr-tb;text-anchor:start;fill:#ffffff;fill-opacity:1;stroke:none;stroke-width:0.53517008px;stroke-linecap:butt;stroke-linejoin:miter;stroke-opacity:1"
       d="m -17.774626,77.350931 h -11.505 v 32.892539 h 11.505 q 3.19582,0 6.047505,-1.3275 2.9008245,-1.32751 5.0641581,-3.58921 2.1633336,-2.21253 3.4416561,-5.21166 1.2783406,-2.999134 1.2783406,-6.342436 0,-3.195876 -1.2291747,-6.195156 -1.1799956,-2.949891 -3.3433292,-5.260828 -2.1141573,-2.261621 -5.0150009,-3.638232 -2.900824,-1.327517 -6.244155,-1.327517 z m -6.932506,28.270749 V 81.923416 h 6.932506 q 2.310827,0 4.375826,0.934105 2.064998,0.983493 3.5891574,2.605941 1.5241772,1.622446 2.4091698,3.785808 0.8850027,2.163287 0.8850027,4.523394 0,2.359883 -0.8850027,4.523318 -0.8358345,2.163218 -2.3599931,3.785808 -1.5241681,1.62252 -3.5891671,2.55662 -2.064999,0.98327 -4.424993,0.98327 z" /><path
       inkscape:connector-curvature="0"
       id="path4142"
       style="font-style:normal;font-variant:normal;font-weight:bold;font-stretch:normal;font-size:medium;line-height:125%;font-family:'Blacked Out';-inkscape-font-specification:'Blacked Out, Bold';text-align:start;letter-spacing:0px;word-spacing:0px;writing-mode:lr-tb;text-anchor:start;fill:#ffffff;fill-opacity:1;stroke:none;stroke-width:0.53517008px;stroke-linecap:butt;stroke-linejoin:miter;stroke-opacity:1"
       d="M 14.540998,91.363391 V 77.350931 H 9.9685064 v 14.01246 l -12.685,18.830909 H 2.7410033 L 12.27933,96.034286 21.817679,110.1943 h 5.359161 z" /><path
       inkscape:connector-curvature="0"
       id="path4144"
       style="font-style:normal;font-variant:normal;font-weight:bold;font-stretch:normal;font-size:medium;line-height:125%;font-family:'Blacked Out';-inkscape-font-specification:'Blacked Out, Bold';text-align:start;letter-spacing:0px;word-spacing:0px;writing-mode:lr-tb;text-anchor:start;fill:#ffffff;fill-opacity:1;stroke:none;stroke-width:0.53517008px;stroke-linecap:butt;stroke-linejoin:miter;stroke-opacity:1"
       d="M 50.258437,77.350931 H 29.460962 l 1.917498,4.719987 h 11.799981 l -1.17999,2.556699 -2.015841,4.621653 -4.474162,9.931723 -4.474172,-9.931723 -2.01583,-4.621653 -3.245004,-7.276686 h -5.015003 l 14.750009,32.892539 z" /><path
       inkscape:connector-curvature="0"
       id="path4146"
       style="font-style:normal;font-variant:normal;font-weight:bold;font-stretch:normal;font-size:medium;line-height:125%;font-family:'Blacked Out';-inkscape-font-specification:'Blacked Out, Bold';text-align:start;letter-spacing:0px;word-spacing:0px;writing-mode:lr-tb;text-anchor:start;fill:#ffffff;fill-opacity:1;stroke:none;stroke-width:0.53517008px;stroke-linecap:butt;stroke-linejoin:miter;stroke-opacity:1"
       d="m 73.982915,100.5576 q 0,0.93418 -0.344186,1.81919 -0.34417,0.93411 -0.983332,1.62246 -0.589994,0.68833 -1.425833,1.08174 -0.835828,0.44244 -1.770005,0.44244 H 59.675403 V 95.198442 h 9.685829 q 0.983343,0 1.819171,0.491599 0.835834,0.491674 1.474994,1.229255 0.639162,0.786604 0.983332,1.720783 0.344186,0.98342 0.344186,1.917521 z M 73.294559,91.510966 80.817063,77.350931 H 75.752891 L 68.672896,90.625954 H 59.675403 V 77.350931 h -4.572505 v 32.745029 h 14.258334 q 1.868332,0 3.540005,-0.78667 1.671656,-0.78665 2.900818,-2.11418 1.278351,-1.27827 2.015827,-2.9992 0.737511,-1.72086 0.737511,-3.63831 0,-1.327514 -0.393324,-2.704125 -0.39335,-1.327516 -1.130835,-2.556699 -0.688348,-1.180089 -1.671667,-2.16336 -0.934173,-0.983273 -2.065008,-1.62245 z" /><path
       inkscape:connector-curvature="0"
       id="path4148"
       style="font-style:normal;font-variant:normal;font-weight:bold;font-stretch:normal;font-size:medium;line-height:125%;font-family:'Blacked Out';-inkscape-font-specification:'Blacked Out, Bold';text-align:start;letter-spacing:0px;word-spacing:0px;writing-mode:lr-tb;text-anchor:start;fill:#ffffff;fill-opacity:1;stroke:none;stroke-width:0.53517008px;stroke-linecap:butt;stroke-linejoin:miter;stroke-opacity:1"
       d="M 107.18115,110.14512 V 105.5726 H 97.446155 V 77.301763 H 92.824488 V 105.5726 h -9.784165 v 4.57252 z" /><path
       inkscape:connector-curvature="0"
       id="path4150"
       style="font-style:normal;font-variant:normal;font-weight:bold;font-stretch:normal;font-size:medium;line-height:125%;font-family:'Blacked Out';-inkscape-font-specification:'Blacked Out, Bold';text-align:start;letter-spacing:0px;word-spacing:0px;writing-mode:lr-tb;text-anchor:start;fill:#ffffff;fill-opacity:1;stroke:none;stroke-width:0.53517008px;stroke-linecap:butt;stroke-linejoin:miter;stroke-opacity:1"
       d="m 135.56709,110.24347 v -4.6217 h -13.17666 -1.47502 q -0.63916,0 -1.42582,-0.0488 -0.7375,0 -1.475,0.0488 v -8.899142 h 16.27416 V 92.150143 H 118.01459 V 77.350931 h -4.57249 v 32.941699 l 22.12499,-0.0491 z" /><path
       inkscape:connector-curvature="0"
       id="path4152"
       style="font-style:normal;font-variant:normal;font-weight:bold;font-stretch:normal;font-size:medium;line-height:125%;font-family:'Blacked Out';-inkscape-font-specification:'Blacked Out, Bold';text-align:start;letter-spacing:0px;word-spacing:0px;writing-mode:lr-tb;text-anchor:start;fill:#ffffff;fill-opacity:1;stroke:none;stroke-width:0.53517008px;stroke-linecap:butt;stroke-linejoin:miter;stroke-opacity:1"
       d="m 138.78286,93.772664 q 0,3.097318 1.08166,6.047504 1.13084,2.999132 3.14667,5.260822 2.01583,2.31079 4.76917,3.68746 2.75333,1.42585 6.09666,1.42585 3.0975,0 5.80167,-1.32749 2.75334,-1.32752 4.81833,-3.58915 2.06499,-2.26169 3.24501,-5.26097 1.22914,-2.949964 1.22914,-6.244026 0,-3.048449 -1.13081,-6.04758 -1.13084,-2.949965 -3.14667,-5.260828 -2.01585,-2.310863 -4.76916,-3.736715 -2.75334,-1.425778 -6.04751,-1.425778 -3.19585,0 -5.94917,1.376685 -2.75332,1.376611 -4.81833,3.638232 -2.01583,2.310937 -3.19583,5.260828 -1.13083,2.99928 -1.13083,6.195156 z m 4.52332,0 q 0,-2.458367 0.83585,-4.621802 0.83583,-2.163214 2.26166,-3.785661 1.42583,-1.622595 3.34333,-2.556773 1.91749,-0.934253 4.13,-0.934253 2.16334,0 4.03166,0.934253 1.9175,0.934178 3.34332,2.556773 1.42584,1.622447 2.26169,3.785661 0.83582,2.163435 0.83582,4.621802 0,2.458291 -0.83582,4.621579 -0.83585,2.163357 -2.26169,3.736717 -1.42582,1.62244 -3.34332,2.55662 -1.86832,0.9341 -4.03166,0.9341 -2.21251,0 -4.13,-0.9341 -1.9175,-0.93418 -3.34333,-2.55662 -1.42583,-1.57336 -2.26166,-3.736717 -0.83585,-2.163288 -0.83585,-4.621579 z" /><path
       inkscape:connector-curvature="0"
       id="path4154"
       style="font-style:normal;font-variant:normal;font-weight:bold;font-stretch:normal;font-size:medium;line-height:125%;font-family:'Blacked Out';-inkscape-font-specification:'Blacked Out, Bold';text-align:start;letter-spacing:0px;word-spacing:0px;writing-mode:lr-tb;text-anchor:start;fill:#ffffff;fill-opacity:1;stroke:none;stroke-width:0.53517008px;stroke-linecap:butt;stroke-linejoin:miter;stroke-opacity:1"
       d="m 191.51022,100.5576 q 0,0.93418 -0.34418,1.81919 -0.34416,0.93411 -0.98334,1.62246 -0.58998,0.68833 -1.42581,1.08174 -0.83584,0.44244 -1.77002,0.44244 h -9.78416 V 95.198442 h 9.68583 q 0.98333,0 1.81916,0.491599 0.83583,0.491674 1.475,1.229255 0.63918,0.786604 0.98334,1.720783 0.34418,0.98342 0.34418,1.917521 z m -0.68834,-9.046634 7.5225,-14.160035 h -5.06417 l -7.08,13.275023 h -8.9975 V 77.350931 h -4.5725 v 32.745029 h 14.25833 q 1.86835,0 3.53999,-0.78667 1.67169,-0.78665 2.90084,-2.11418 1.27835,-1.27827 2.01584,-2.9992 0.7375,-1.72086 0.7375,-3.63831 0,-1.327514 -0.39333,-2.704125 -0.39334,-1.327516 -1.13084,-2.556699 -0.68834,-1.180089 -1.67167,-2.16336 -0.93417,-0.983273 -2.06499,-1.62245 z" /><path
       inkscape:connector-curvature="0"
       id="path4158"
       style="font-style:normal;font-variant:normal;font-weight:bold;font-stretch:normal;font-size:medium;line-height:125%;font-family:'Blacked Out';-inkscape-font-specification:'Blacked Out, Bold';text-align:start;letter-spacing:0px;word-spacing:0px;writing-mode:lr-tb;text-anchor:start;fill:#ffffff;fill-opacity:1;stroke:none;stroke-width:0.53517008px;stroke-linecap:butt;stroke-linejoin:miter;stroke-opacity:1"
       d="m 264.80199,104.29424 -3.73668,-2.90079 q -0.885,1.91745 -2.8025,2.95003 -1.86833,1.03244 -3.83499,1.13086 -1.9175,0.0983 -3.49083,-0.78676 -1.57334,-0.83591 -1.86835,-2.75329 -0.0983,-0.68834 0.19667,-1.47509 0.34418,-0.786608 1.03251,-1.474949 0.68832,-0.688269 1.67166,-1.130776 1.03252,-0.442505 2.11415,-0.639174 2.40918,-0.442579 4.57252,-1.425852 2.16333,-0.98342 3.73666,-2.458364 1.62249,-1.425853 2.45834,-3.343305 0.83582,-1.868284 0.63915,-4.080813 -0.19664,-2.064953 -1.27832,-3.687473 -1.08167,-1.573354 -2.70416,-2.704202 -1.62251,-1.081681 -3.63834,-1.671762 -1.96667,-0.540767 -3.88416,-0.540767 -3.44166,0 -6.49001,1.573354 -3.04833,1.622447 -5.01499,4.720134 l 3.63832,2.949818 q 0.83585,-1.622374 2.26168,-2.753296 1.42582,-1.081679 3.14665,-1.573279 1.72084,-0.491822 3.54001,-0.344319 1.86834,0.196743 3.49084,1.180015 2.11414,1.278498 2.35999,3.392544 0.1475,1.130774 -0.44251,2.114268 -0.58999,1.032439 -1.57331,1.819117 -0.93417,0.835769 -2.2125,1.376612 -1.22917,0.540839 -2.40918,0.786676 -1.76999,0.344171 -3.58916,1.081681 -1.81916,0.786677 -3.29417,2.015786 -1.42584,1.229108 -2.26167,2.90087 -0.83582,1.720786 -0.58999,3.933306 0.24583,1.81919 1.27833,3.39247 1.08167,1.57343 2.65499,2.55677 1.3275,0.83583 2.90085,1.27835 1.62251,0.44248 3.19582,0.44248 3.19583,0 5.89999,-1.47498 2.70418,-1.47503 4.32669,-4.3759 z" /><path
       style="fill:#ffffff;fill-opacity:1;fill-rule:evenodd;stroke:none;stroke-width:0.53517008px;stroke-linecap:butt;stroke-linejoin:miter;stroke-opacity:1"
       d="m 215.90113,110.59313 -14.94931,-33.249361 4.98311,-0.171789 9.9662,22.166186 1.71832,-3.780272 -8.07606,-18.214198 5.069,-0.08571 5.58451,12.6295 5.67043,-12.6295 h 5.06901 l -8.2479,18.385767 1.63241,3.69434 9.96619,-22.080107 h 5.15493 l -15.0352,33.421114 -4.29578,-9.62251 z"
       id="path4170"
       inkscape:connector-curvature="0" /></g></svg>