<?xml version="1.0" encoding="UTF-8" standalone="no"?>
<!-- Created with Inkscape (http://www.inkscape.org/) -->

<svg
   xmlns:dc="http://purl.org/dc/elements/1.1/"
   xmlns:cc="http://creativecommons.org/ns#"
   xmlns:rdf="http://www.w3.org/1999/02/22-rdf-syntax-ns#"
   xmlns:svg="http://www.w3.org/2000/svg"
   xmlns="http://www.w3.org/2000/svg"
   xmlns:sodipodi="http://sodipodi.sourceforge.net/DTD/sodipodi-0.dtd"
   xmlns:inkscape="http://www.inkscape.org/namespaces/inkscape"
   id="svg2"
   version="1.1"
   inkscape:version="0.92.5 (0.92.5+68)"
   width="500.86011"
   height="47.424397"
   xml:space="preserve"
   sodipodi:docname="bodyartforms solid text.svg"
   viewBox="0 0 469.55639 44.460375"><metadata
     id="metadata8"><rdf:RDF><cc:Work
         rdf:about=""><dc:format>image/svg+xml</dc:format><dc:type
           rdf:resource="http://purl.org/dc/dcmitype/StillImage" /><dc:title></dc:title></cc:Work></rdf:RDF></metadata><defs
     id="defs6" /><sodipodi:namedview
     pagecolor="#ffffff"
     bordercolor="#666666"
     borderopacity="1"
     objecttolerance="10"
     gridtolerance="10"
     guidetolerance="10"
     inkscape:pageopacity="0"
     inkscape:pageshadow="2"
     inkscape:window-width="1787"
     inkscape:window-height="893"
     id="namedview4"
     showgrid="false"
     inkscape:zoom="0.74883721"
     inkscape:cx="409.60458"
     inkscape:cy="-79.643139"
     inkscape:window-x="296"
     inkscape:window-y="82"
     inkscape:window-maximized="0"
     inkscape:current-layer="g10"
     fit-margin-top="0"
     fit-margin-left="0"
     fit-margin-right="0"
     fit-margin-bottom="0"
     inkscape:document-units="px"
     units="px" /><g
     id="g10"
     inkscape:groupmode="layer"
     inkscape:label="ink_ext_XXXXXX"
     transform="matrix(1.25,0,0,-1.25,110.43595,138.34887)"><path
       inkscape:connector-curvature="0"
       id="path4136"
       style="font-style:normal;font-variant:normal;font-weight:bold;font-stretch:normal;font-size:medium;line-height:125%;font-family:'Blacked Out';-inkscape-font-specification:'Blacked Out, Bold';text-align:start;letter-spacing:0px;word-spacing:0px;writing-mode:lr-tb;text-anchor:start;fill:#000000;fill-opacity:1;stroke:none;stroke-width:0.56809086px;stroke-linecap:butt;stroke-linejoin:miter;stroke-opacity:1"
       d="m -66.271917,93.724236 q 1.931077,-1.356986 3.079278,-3.549044 1.200401,-2.139786 1.200401,-4.697107 0,-2.087672 -0.835059,-3.966656 -0.782867,-1.826635 -2.192027,-3.235814 -1.356977,-1.356908 -3.235853,-2.191977 -1.878885,-0.782877 -3.966528,-0.782877 h -16.127054 v 34.915909 h 15.239803 q 1.983269,0 3.705569,-0.78288 1.774502,-0.73066 3.079277,-2.08765 1.356978,-1.30487 2.087644,-3.07931 0.782877,-1.72226 0.782877,-3.75781 0,-1.983216 -0.782877,-3.705467 -0.730666,-1.722251 -2.035451,-3.079317 z m -17.223072,11.586344 v -9.655246 h 10.229467 q 0.991625,0 1.878876,0.365185 0.939443,0.417613 1.617926,1.096107 0.730676,0.678493 1.096009,1.565832 0.417534,0.887105 0.417534,1.826562 0,2.03555 -1.409159,3.39246 -1.409159,1.4091 -3.44462,1.4091 z m 16.648972,-19.832495 q 0,0.991645 -0.365333,1.931097 -0.313151,0.991567 -0.939443,1.722252 -0.626292,0.782877 -1.513543,1.200411 -0.835059,0.469728 -1.826694,0.469728 H -83.494989 V 80.154521 h 11.273284 q 1.096018,0 2.087643,0.417456 0.991634,0.417613 1.72231,1.148377 0.730676,0.730606 1.148209,1.670059 0.417526,0.991645 0.417526,2.087672 z" /><path
       inkscape:connector-curvature="0"
       id="path4138"
       style="font-style:normal;font-variant:normal;font-weight:bold;font-stretch:normal;font-size:medium;line-height:125%;font-family:'Blacked Out';-inkscape-font-specification:'Blacked Out, Bold';text-align:start;letter-spacing:0px;word-spacing:0px;writing-mode:lr-tb;text-anchor:start;fill:#000000;fill-opacity:1;stroke:none;stroke-width:0.56809086px;stroke-linecap:butt;stroke-linejoin:miter;stroke-opacity:1"
       d="m -60.112549,92.73267 q 0,3.287849 1.14821,6.419514 1.200392,3.183626 3.340227,5.584446 2.139834,2.45294 5.062547,3.91429 2.922702,1.51356 6.471696,1.51356 3.288045,0 6.158555,-1.40916 2.922702,-1.40918 5.114729,-3.80992 2.192026,-2.40083 3.44461,-5.584605 1.304786,-3.13143 1.304786,-6.628125 0,-3.235972 -1.200402,-6.419594 -1.200392,-3.131431 -3.340227,-5.584445 -2.139835,-2.453016 -5.062547,-3.966578 -2.922702,-1.513484 -6.419504,-1.513484 -3.392419,0 -6.315131,1.461371 -2.922702,1.461292 -5.114728,3.862037 -2.139836,2.453093 -3.392419,5.584446 -1.200402,3.183778 -1.200402,6.576247 z m 4.801588,0 q 0,-2.609592 0.887251,-4.90611 0.88725,-2.296283 2.400794,-4.018534 1.513543,-1.722408 3.548994,-2.714052 2.035451,-0.991723 4.384053,-0.991723 2.29641,0 4.27967,0.991723 2.035451,0.991644 3.548994,2.714052 1.513552,1.722251 2.400793,4.018534 0.887262,2.296518 0.887262,4.90611 0,2.609513 -0.887262,4.905874 -0.887241,2.296439 -2.400793,3.966576 -1.513543,1.72225 -3.548994,2.7139 -1.98326,0.99156 -4.27967,0.99156 -2.348602,0 -4.384053,-0.99156 -2.035451,-0.99165 -3.548994,-2.7139 -1.513544,-1.670137 -2.400794,-3.966576 -0.887251,-2.296361 -0.887251,-4.905874 z" /><path
       inkscape:connector-curvature="0"
       id="path4140"
       style="font-style:normal;font-variant:normal;font-weight:bold;font-stretch:normal;font-size:medium;line-height:125%;font-family:'Blacked Out';-inkscape-font-specification:'Blacked Out, Bold';text-align:start;letter-spacing:0px;word-spacing:0px;writing-mode:lr-tb;text-anchor:start;fill:#000000;fill-opacity:1;stroke:none;stroke-width:0.56809086px;stroke-linecap:butt;stroke-linejoin:miter;stroke-opacity:1"
       d="M -13.433284,75.300761 H -25.64601 v 34.915909 h 12.212726 q 3.392409,0 6.4195146,-1.40916 3.0792679,-1.40917 5.3756782,-3.81 2.29641023,-2.34863 3.653368,-5.532252 1.3569771,-3.183623 1.3569771,-6.732588 0,-3.392469 -1.304786,-6.576247 Q 0.81488488,83.02507 -1.4815254,80.571977 -3.7257343,78.171232 -6.8050221,76.70994 -9.8842894,75.300761 -13.433284,75.300761 Z m -7.358957,30.009819 V 80.154521 h 7.358957 q 2.452976,0 4.6450027,0.991566 2.1920264,1.043993 3.8099435,2.766244 1.6179365,1.722251 2.5573691,4.018691 0.9394433,2.296361 0.9394433,4.801648 0,2.505051 -0.9394433,4.801569 -0.8872506,2.296283 -2.5051672,4.018691 -1.6179268,1.72233 -3.8099532,2.7139 -2.1920269,1.04375 -4.6971949,1.04375 z" /><path
       inkscape:connector-curvature="0"
       id="path4142"
       style="font-style:normal;font-variant:normal;font-weight:bold;font-stretch:normal;font-size:medium;line-height:125%;font-family:'Blacked Out';-inkscape-font-specification:'Blacked Out, Bold';text-align:start;letter-spacing:0px;word-spacing:0px;writing-mode:lr-tb;text-anchor:start;fill:#000000;fill-opacity:1;stroke:none;stroke-width:0.56809086px;stroke-linecap:butt;stroke-linejoin:miter;stroke-opacity:1"
       d="M 20.870223,90.175192 V 75.300761 H 16.016457 V 90.175192 L 2.5511439,110.16448 H 8.3443563 L 18.46943,95.133416 28.594527,110.16448 h 5.688828 z" /><path
       inkscape:connector-curvature="0"
       id="path4144"
       style="font-style:normal;font-variant:normal;font-weight:bold;font-stretch:normal;font-size:medium;line-height:125%;font-family:'Blacked Out';-inkscape-font-specification:'Blacked Out, Bold';text-align:start;letter-spacing:0px;word-spacing:0px;writing-mode:lr-tb;text-anchor:start;fill:#000000;fill-opacity:1;stroke:none;stroke-width:0.56809086px;stroke-linecap:butt;stroke-linejoin:miter;stroke-opacity:1"
       d="M 58.784808,75.300761 H 36.707984 l 2.035452,5.010335 H 51.269289 L 50.016711,83.02507 47.876866,87.931022 43.127479,98.473691 38.37808,87.931022 36.238246,83.02507 32.793627,75.300761 h -5.3235 l 15.657352,34.915909 z" /><path
       inkscape:connector-curvature="0"
       id="path4146"
       style="font-style:normal;font-variant:normal;font-weight:bold;font-stretch:normal;font-size:medium;line-height:125%;font-family:'Blacked Out';-inkscape-font-specification:'Blacked Out, Bold';text-align:start;letter-spacing:0px;word-spacing:0px;writing-mode:lr-tb;text-anchor:start;fill:#000000;fill-opacity:1;stroke:none;stroke-width:0.56809086px;stroke-linecap:butt;stroke-linejoin:miter;stroke-opacity:1"
       d="m 83.968686,99.934983 q 0,0.991647 -0.365357,1.931097 -0.365345,0.99157 -1.043821,1.72225 -0.626286,0.73069 -1.513542,1.1483 -0.887244,0.46965 -1.878887,0.46965 H 68.781054 V 94.246154 h 10.28165 q 1.043833,0 1.931077,0.521841 0.88725,0.521918 1.565727,1.304873 0.678476,0.83499 1.043821,1.826635 0.365357,1.043915 0.365357,2.03548 z M 83.237984,90.331845 91.223235,75.300761 H 85.847544 L 78.332025,89.392393 H 68.781054 V 75.300761 h -4.85378 v 34.759329 h 15.13543 q 1.983262,0 3.757768,-0.83507 1.774488,-0.83504 3.079262,-2.24422 1.356982,-1.35691 2.139828,-3.1837 0.782875,-1.82671 0.782875,-3.862117 0,-1.409179 -0.417513,-2.870471 -0.417546,-1.409178 -1.200404,-2.713974 -0.730684,-1.252682 -1.774494,-2.296439 -0.991637,-1.043758 -2.192042,-1.722254 z" /><path
       inkscape:connector-curvature="0"
       id="path4148"
       style="font-style:normal;font-variant:normal;font-weight:bold;font-stretch:normal;font-size:medium;line-height:125%;font-family:'Blacked Out';-inkscape-font-specification:'Blacked Out, Bold';text-align:start;letter-spacing:0px;word-spacing:0px;writing-mode:lr-tb;text-anchor:start;fill:#000000;fill-opacity:1;stroke:none;stroke-width:0.56809086px;stroke-linecap:butt;stroke-linejoin:miter;stroke-opacity:1"
       d="m 119.2091,110.11228 v -4.85381 H 108.87526 V 75.248569 H 103.9693 V 105.25847 H 93.583255 v 4.85381 z" /><path
       inkscape:connector-curvature="0"
       id="path4150"
       style="font-style:normal;font-variant:normal;font-weight:bold;font-stretch:normal;font-size:medium;line-height:125%;font-family:'Blacked Out';-inkscape-font-specification:'Blacked Out, Bold';text-align:start;letter-spacing:0px;word-spacing:0px;writing-mode:lr-tb;text-anchor:start;fill:#000000;fill-opacity:1;stroke:none;stroke-width:0.56809086px;stroke-linecap:butt;stroke-linejoin:miter;stroke-opacity:1"
       d="m 149.34119,110.21667 v -4.90601 h -13.98721 -1.56576 q -0.67848,0 -1.51353,-0.0517 -0.78286,0 -1.56574,0.0517 V 95.8641 h 17.27527 v -4.853759 h -17.27527 v -15.70958 h -4.85376 v 34.968089 l 23.486,-0.0521 z" /><path
       inkscape:connector-curvature="0"
       id="path4152"
       style="font-style:normal;font-variant:normal;font-weight:bold;font-stretch:normal;font-size:medium;line-height:125%;font-family:'Blacked Out';-inkscape-font-specification:'Blacked Out, Bold';text-align:start;letter-spacing:0px;word-spacing:0px;writing-mode:lr-tb;text-anchor:start;fill:#000000;fill-opacity:1;stroke:none;stroke-width:0.56809086px;stroke-linecap:butt;stroke-linejoin:miter;stroke-opacity:1"
       d="m 152.75478,92.73267 q 0,3.287849 1.14819,6.419514 1.20041,3.183626 3.34024,5.584446 2.13984,2.45294 5.06254,3.91429 2.92271,1.51356 6.4717,1.51356 3.28804,0 6.15856,-1.40916 2.92271,-1.40918 5.11472,-3.80992 2.19203,-2.40083 3.44463,-5.584605 1.30476,-3.13143 1.30476,-6.628125 0,-3.235972 -1.20039,-6.419594 -1.20039,-3.131431 -3.34022,-5.584445 -2.13986,-2.453016 -5.06254,-3.966578 -2.92271,-1.513484 -6.41952,-1.513484 -3.39244,0 -6.31513,1.461371 -2.92269,1.461292 -5.11473,3.862037 -2.13983,2.453093 -3.39241,5.584446 -1.2004,3.183778 -1.2004,6.576247 z m 4.80157,0 q 0,-2.609592 0.88726,-4.90611 0.88725,-2.296283 2.40079,-4.018534 1.51354,-1.722408 3.549,-2.714052 2.03544,-0.991723 4.38405,-0.991723 2.29642,0 4.27967,0.991723 2.03545,0.991644 3.54898,2.714052 1.51355,1.722251 2.40081,4.018534 0.88724,2.296518 0.88724,4.90611 0,2.609513 -0.88724,4.905874 -0.88726,2.296439 -2.40081,3.966576 -1.51353,1.72225 -3.54898,2.7139 -1.98325,0.99156 -4.27967,0.99156 -2.34861,0 -4.38405,-0.99156 -2.03546,-0.99165 -3.549,-2.7139 -1.51354,-1.670137 -2.40079,-3.966576 -0.88726,-2.296361 -0.88726,-4.905874 z" /><path
       inkscape:connector-curvature="0"
       id="path4154"
       style="font-style:normal;font-variant:normal;font-weight:bold;font-stretch:normal;font-size:medium;line-height:125%;font-family:'Blacked Out';-inkscape-font-specification:'Blacked Out, Bold';text-align:start;letter-spacing:0px;word-spacing:0px;writing-mode:lr-tb;text-anchor:start;fill:#000000;fill-opacity:1;stroke:none;stroke-width:0.56809086px;stroke-linecap:butt;stroke-linejoin:miter;stroke-opacity:1"
       d="m 208.72564,99.934983 q 0,0.991647 -0.36535,1.931097 -0.36533,0.99157 -1.04383,1.72225 -0.62627,0.73069 -1.51352,1.1483 -0.88726,0.46965 -1.8789,0.46965 H 193.53801 V 94.246154 h 10.28165 q 1.04382,0 1.93107,0.521841 0.88725,0.521918 1.56573,1.304873 0.6785,0.83499 1.04383,1.826635 0.36535,1.043915 0.36535,2.03548 z m -0.73068,-9.603138 7.98524,-15.031084 h -5.37569 l -7.51552,14.091632 h -9.55098 V 75.300761 h -4.85377 v 34.759329 h 15.13542 q 1.98328,0 3.75776,-0.83507 1.77451,-0.83504 3.07928,-2.24422 1.35699,-1.35691 2.13984,-3.1837 0.78287,-1.82671 0.78287,-3.862117 0,-1.409179 -0.41754,-2.870471 -0.41752,-1.409178 -1.20039,-2.713974 -0.73068,-1.252682 -1.77451,-2.296439 -0.99163,-1.043758 -2.19201,-1.722254 z" /><path
       inkscape:connector-curvature="0"
       id="path4158"
       style="font-style:normal;font-variant:normal;font-weight:bold;font-stretch:normal;font-size:medium;line-height:125%;font-family:'Blacked Out';-inkscape-font-specification:'Blacked Out, Bold';text-align:start;letter-spacing:0px;word-spacing:0px;writing-mode:lr-tb;text-anchor:start;fill:#000000;fill-opacity:1;stroke:none;stroke-width:0.56809086px;stroke-linecap:butt;stroke-linejoin:miter;stroke-opacity:1"
       d="m 286.52593,103.90148 -3.96653,-3.07924 q -0.93946,2.03541 -2.9749,3.13151 -1.98326,1.09595 -4.07091,1.20042 -2.03545,0.1043 -3.70556,-0.83515 -1.67013,-0.88734 -1.98328,-2.92267 -0.10438,-0.73068 0.20877,-1.565828 0.36535,-0.834991 1.09602,-1.565676 0.73067,-0.730607 1.77449,-1.200334 1.09603,-0.469726 2.24421,-0.678493 2.55738,-0.469805 4.85379,-1.513563 2.29641,-1.043914 3.96652,-2.60959 1.72229,-1.513563 2.60956,-3.548967 0.88724,-1.98321 0.67847,-4.331841 -0.20874,-2.191978 -1.35696,-3.914308 -1.1482,-1.670138 -2.8705,-2.870549 -1.72232,-1.148221 -3.86215,-1.774601 -2.08766,-0.574031 -4.1231,-0.574031 -3.65337,0 -6.88923,1.670138 -3.23585,1.722251 -5.32349,5.010492 l 3.86213,3.131274 q 0.88726,-1.722174 2.40081,-2.922664 1.51353,-1.148219 3.34021,-1.670059 1.8267,-0.522075 3.75778,-0.365499 1.98326,0.208845 3.70557,1.252603 2.2442,1.357144 2.50516,3.601235 0.15659,1.200334 -0.46972,2.244326 -0.62629,1.09595 -1.6701,1.931019 -0.99164,0.887182 -2.3486,1.461294 -1.30479,0.57411 -2.55737,0.835069 -1.87888,0.365343 -3.80996,1.14822 -1.93106,0.835069 -3.49681,2.139785 -1.51354,1.304717 -2.40078,3.079317 -0.88725,1.826635 -0.62629,4.175271 0.26095,1.93109 1.35697,3.60115 1.1482,1.67022 2.8183,2.71405 1.40917,0.88725 3.0793,1.35698 1.72231,0.46971 3.39241,0.46971 3.39243,0 6.26293,-1.56573 2.87052,-1.56575 4.59284,-4.64507 z" /><path
       style="fill:#000000;fill-opacity:1;fill-rule:evenodd;stroke:none;stroke-width:0.56809086px;stroke-linecap:butt;stroke-linejoin:miter;stroke-opacity:1"
       d="m 234.61695,110.58784 -15.86891,-35.294681 5.28964,-0.182358 10.57927,23.529732 1.82402,-4.012814 -8.57286,-19.334638 5.38083,-0.09098 5.92803,13.406399 6.01924,-13.406399 h 5.38083 l -8.75526,19.516761 1.73282,3.921595 10.57927,-23.438356 h 5.47203 l -15.96009,35.476999 -4.56003,-10.21444 z"
       id="path4170"
       inkscape:connector-curvature="0" /></g></svg>