<?xml version="1.0" encoding="UTF-8" standalone="no"?>
<!-- Svg Vector Icons : http://www.onlinewebfonts.com/icon -->

<svg
   xmlns:dc="http://purl.org/dc/elements/1.1/"
   xmlns:cc="http://creativecommons.org/ns#"
   xmlns:rdf="http://www.w3.org/1999/02/22-rdf-syntax-ns#"
   xmlns:svg="http://www.w3.org/2000/svg"
   xmlns="http://www.w3.org/2000/svg"
   xmlns:sodipodi="http://sodipodi.sourceforge.net/DTD/sodipodi-0.dtd"
   xmlns:inkscape="http://www.inkscape.org/namespaces/inkscape"
   version="1.1"
   x="0px"
   y="0px"
   viewBox="0 0 108.42554 26"
   enable-background="new 0 0 1000 1000"
   xml:space="preserve"
   id="svg20"
   sodipodi:docname="dhl-svg.svg"
   width="108.42554"
   height="26"
   inkscape:version="0.92.4 (unknown)"><defs
   id="defs24" /><sodipodi:namedview
   pagecolor="#ffffff"
   bordercolor="#666666"
   borderopacity="1"
   objecttolerance="10"
   gridtolerance="10"
   guidetolerance="10"
   inkscape:pageopacity="0"
   inkscape:pageshadow="2"
   inkscape:window-width="1772"
   inkscape:window-height="905"
   id="namedview22"
   showgrid="false"
   fit-margin-top="0"
   fit-margin-left="0"
   fit-margin-right="0"
   fit-margin-bottom="0"
   inkscape:zoom="1"
   inkscape:cx="498.47458"
   inkscape:cy="-91.499998"
   inkscape:window-x="0"
   inkscape:window-y="0"
   inkscape:window-maximized="0"
   inkscape:current-layer="svg20" />
<metadata
   id="metadata2"> Svg Vector Icons : http://www.onlinewebfonts.com/icon <rdf:RDF><cc:Work
     rdf:about=""><dc:format>image/svg+xml</dc:format><dc:type
       rdf:resource="http://purl.org/dc/dcmitype/StillImage" /><dc:title></dc:title></cc:Work></rdf:RDF></metadata>
<g
   id="g18"
   transform="matrix(0.1106383,0,0,0.1106383,-1.106383,-42.31915)"><path
     d="m 765.4,382.6 c -40.8,0 -81,0 -121.8,0 -15.7,25.2 -30.6,52.4 -46.3,78.3 0,0.7 -0.7,0.7 -1.4,0.7 -17.7,0 -34.7,0 -52.4,0 h -0.7 c 1.4,-2 2.7,-4.8 4.1,-6.8 14.3,-23.8 27.9,-47.6 42.2,-71.5 0,0 0,-0.7 0.7,-0.7 -40.8,0 -81,0 -121.8,0 l -0.7,0.7 c -25.9,44.2 -51.7,88.5 -77.6,132 -1.4,2 -2,4.1 -3.4,6.1 0.7,0 1.4,0 2,0 98,0 196.7,-0.7 294.7,-0.7 1.4,0 1.4,-0.7 2,-1.4 24.5,-42.2 49.7,-83.7 74.2,-125.9 2.1,-3.3 4.2,-7.4 6.2,-10.8 z"
     id="path4"
     inkscape:connector-curvature="0" /><path
     d="m 257.7,454.7 c 2,0 4.1,0 6.1,0.7 3.4,0.7 4.8,3.4 3.4,6.8 -0.7,2.7 -2,4.8 -3.4,7.5 -7.5,12.9 -15,25.9 -22.5,38.1 -0.7,1.4 -1.4,2.7 -2,4.1 -1.4,4.1 0,6.8 3.4,7.5 2.7,0.7 4.8,1.4 7.5,1.4 31.3,0 63.3,0 94.6,0 1.4,0 1.4,-0.7 2,-1.4 8.8,-15 17.7,-29.9 26.5,-44.9 2.7,-4.1 4.8,-8.2 5.4,-12.9 4.8,-21.8 0,-40.2 -13.6,-56.5 -10.2,-12.3 -23.8,-18.4 -38.8,-21.1 -2,0 -4.1,-0.7 -6.1,-0.7 -83.7,0 -167.4,0 -251.1,0 0,1.4 -0.7,0.7 -0.7,1.4 -12.3,21.1 -25.2,42.9 -37.4,64 -1.4,2 -2.7,4.8 -4.1,6.8 0.7,0 1.4,0 2,0 76.4,-0.8 152.6,-0.8 228.8,-0.8 z"
     id="path6"
     inkscape:connector-curvature="0" /><path
     d="m 723.9,521.4 c 0.7,0 1.4,0 1.4,0 42.2,0 84.4,-0.7 126.6,-0.7 0.7,0 1.4,-0.7 2,-1.4 20.4,-34 40.2,-68.7 60.6,-102.8 6.8,-11.6 13.6,-23.1 20.4,-34 -42.9,0 -86.4,0 -129.3,0 0,1.4 -0.7,0.7 -0.7,1.4 -25.9,44.2 -51.7,88.5 -77.6,132 -1.4,1.5 -2.7,3.5 -3.4,5.5 z"
     id="path8"
     inkscape:connector-curvature="0" /><path
     d="m 336,537.8 c -0.7,0 -1.4,0 -2,0 -46.3,0 -93.2,0 -139.5,0 -1.4,0 -2.7,0 -4.1,0 -2,-0.7 -4.1,-0.7 -6.1,-1.4 -2,-0.7 -3.4,-3.4 -2,-5.4 0.7,-2 2,-4.8 2.7,-6.8 7.5,-12.2 14.3,-24.5 21.8,-37.4 1.4,-2 2.7,-4.8 3.4,-7.5 1.4,-3.4 0,-6.1 -3.4,-6.8 -2,0 -4.1,0 -6.8,0 -34.7,0 -68.7,0 -103.4,0 -1.4,0 -2,0.7 -2.7,1.4 C 67.8,518 42,562.3 15.4,607.2 c -2,3.4 -3.4,6.1 -5.4,9.5 0.7,0 1.4,0 2,0 68.7,0 138.2,0 206.9,0 5.4,0 10.9,-0.7 16.3,-1.4 18.4,-2.7 34.7,-9.5 50.4,-20.4 16.3,-11.6 29.9,-25.9 41.5,-42.2 2.8,-4.7 6.2,-9.5 8.9,-14.9 0,0.7 0,0 0,0 z"
     id="path10"
     inkscape:connector-curvature="0" /><path
     d="m 988,537.8 c -79.6,0 -159.3,0 -238.9,0 -11.6,0 -23.1,0 -34.7,0 -1.4,0 -1.4,0.7 -2,1.4 -4.1,7.5 -8.2,14.3 -12.3,21.8 -1.4,2 -2.7,4.8 -3.4,7.5 -3.4,10.2 -3.4,19.7 2,28.6 4.1,6.1 9.5,10.2 15.7,13.6 10.2,4.8 20.4,6.1 31.3,6.1 65.3,0 131.3,0 196.7,0 1.4,0 1.4,-0.7 2,-1.4 12.9,-21.8 25.9,-43.6 38.1,-65.3 2,-4.1 4.8,-8.2 7.5,-12.3 -0.7,0 -1.4,0 -2,0 z"
     id="path12"
     inkscape:connector-curvature="0" /><path
     d="m 376.8,538.5 c -0.7,0 -1.4,0 -2,1.4 -15,25.2 -29.9,50.4 -44.9,76.2 0,0.7 -0.7,0 -0.7,1.4 0.7,0 0.7,0 1.4,0 39.5,0 79.6,0 119.1,0 0.7,0 1.4,0 2,-1.4 13.6,-23.1 27.9,-47 41.5,-70.1 1.4,-2 2.7,-4.8 4.1,-6.8 -0.7,0 -0.7,0 -1.4,0 -39.5,-0.7 -78.9,-0.7 -119.1,-0.7 z"
     id="path14"
     inkscape:connector-curvature="0" /><path
     d="m 553.1,537.8 c -0.7,0 -1.4,0.7 -2,1.4 -15,25.2 -29.9,50.4 -44.9,76.2 0,0.7 -0.7,0 -0.7,1.4 0.7,0 0.7,0 1.4,0 40.2,0 79.6,0 119.8,0 0.7,0 1.4,0 2,-1.4 14.3,-23.8 28.6,-48.3 42.2,-72.1 0.7,-1.4 2,-3.4 3.4,-5.4 -0.7,0 -1.4,0 -1.4,0 -40.2,-0.1 -79.7,-0.1 -119.8,-0.1 z"
     id="path16"
     inkscape:connector-curvature="0" /></g>
</svg>