<?xml version="1.0" encoding="UTF-8" standalone="no"?>
<!-- Created with Inkscape (http://www.inkscape.org/) -->

<svg
   xmlns:dc="http://purl.org/dc/elements/1.1/"
   xmlns:cc="http://creativecommons.org/ns#"
   xmlns:rdf="http://www.w3.org/1999/02/22-rdf-syntax-ns#"
   xmlns:svg="http://www.w3.org/2000/svg"
   xmlns="http://www.w3.org/2000/svg"
   xmlns:sodipodi="http://sodipodi.sourceforge.net/DTD/sodipodi-0.dtd"
   xmlns:inkscape="http://www.inkscape.org/namespaces/inkscape"
   version="1.1"
   id="svg2"
   xml:space="preserve"
   width="784.48285"
   height="182.60851"
   viewBox="0 0 784.48285 182.6085"
   sodipodi:docname="jewelry-how-to-measure.svg"
   inkscape:version="0.92.5 (0.92.5+68)"><metadata
     id="metadata8"><rdf:RDF><cc:Work
         rdf:about=""><dc:format>image/svg+xml</dc:format><dc:type
           rdf:resource="http://purl.org/dc/dcmitype/StillImage" /><dc:title></dc:title></cc:Work></rdf:RDF></metadata><defs
     id="defs6"><clipPath
       clipPathUnits="userSpaceOnUse"
       id="clipPath942"><path
         d="M 0,162 H 270 V 0 H 0 Z"
         id="path940"
         inkscape:connector-curvature="0" /></clipPath><clipPath
       clipPathUnits="userSpaceOnUse"
       id="clipPath974"><path
         d="M 0,162 H 270 V 0 H 0 Z"
         id="path972"
         inkscape:connector-curvature="0" /></clipPath><clipPath
       clipPathUnits="userSpaceOnUse"
       id="clipPath1626"><path
         d="M 0,162 H 270 V 0 H 0 Z"
         id="path1624"
         inkscape:connector-curvature="0" /></clipPath><clipPath
       clipPathUnits="userSpaceOnUse"
       id="clipPath1722"><path
         d="M 0,162 H 270 V 0 H 0 Z"
         id="path1720"
         inkscape:connector-curvature="0" /></clipPath><clipPath
       clipPathUnits="userSpaceOnUse"
       id="clipPath1750"><path
         d="M 0,162 H 270 V 0 H 0 Z"
         id="path1748"
         inkscape:connector-curvature="0" /></clipPath><clipPath
       clipPathUnits="userSpaceOnUse"
       id="clipPath1876"><path
         d="M 0,162 H 270 V 0 H 0 Z"
         id="path1874"
         inkscape:connector-curvature="0" /></clipPath><clipPath
       clipPathUnits="userSpaceOnUse"
       id="clipPath1924"><path
         d="M 0,162 H 270 V 0 H 0 Z"
         id="path1922"
         inkscape:connector-curvature="0" /></clipPath><clipPath
       clipPathUnits="userSpaceOnUse"
       id="clipPath2158"><path
         d="m 61.196,73.035 -0.229,-20.755 39.562,-0.436 0.006,0.436 0.229,20.755 -39.563,0.434 z"
         id="path2156"
         inkscape:connector-curvature="0" /></clipPath><clipPath
       clipPathUnits="userSpaceOnUse"
       id="clipPath2170"><path
         d="M 0,162 H 270 V 0 H 0 Z"
         id="path2168"
         inkscape:connector-curvature="0" /></clipPath><clipPath
       clipPathUnits="userSpaceOnUse"
       id="clipPath2250"><path
         d="m 188.826,59.203 -0.16,-15.281 39,-0.406 0.004,0.406 0.161,15.281 -39.001,0.407 z"
         id="path2248"
         inkscape:connector-curvature="0" /></clipPath><clipPath
       clipPathUnits="userSpaceOnUse"
       id="clipPath2262"><path
         d="M 0,162 H 270 V 0 H 0 Z"
         id="path2260"
         inkscape:connector-curvature="0" /></clipPath></defs><sodipodi:namedview
     pagecolor="#ffffff"
     bordercolor="#666666"
     borderopacity="1"
     objecttolerance="10"
     gridtolerance="10"
     guidetolerance="10"
     inkscape:pageopacity="0"
     inkscape:pageshadow="2"
     inkscape:window-width="1617"
     inkscape:window-height="951"
     id="namedview4"
     showgrid="false"
     inkscape:zoom="1"
     inkscape:cx="402.53839"
     inkscape:cy="107.11684"
     inkscape:window-x="226"
     inkscape:window-y="58"
     inkscape:window-maximized="0"
     inkscape:current-layer="g10"
     fit-margin-top="0"
     fit-margin-left="0"
     fit-margin-right="0"
     fit-margin-bottom="0" /><g
     id="g10"
     inkscape:groupmode="layer"
     inkscape:label="guage card - back"
     transform="matrix(1.3333333,0,0,-1.3333333,-6.638459,181.2564)"><g
       id="g1918"
       transform="matrix(3.5420936,0,0,3.5420936,-215.4154,-260.17534)"
       style="fill:#000000"><g
         id="g1920"
         clip-path="url(#clipPath1924)"
         style="fill:#000000"><g
           id="g1926"
           transform="translate(213.2119,79.0303)"
           style="fill:#000000"><path
             d="m 0,0 c 5.935,2.691 10.082,8.672 10.082,15.641 0,9.462 -7.676,17.16 -17.159,17.16 -9.485,0 -17.16,-7.676 -17.16,-17.16 0,-7.524 4.85,-13.918 11.578,-16.235 l 0.022,-0.022 c 1.15,-2.318 3.4,-3.793 6.154,-3.793 2.957,0 5.471,1.831 6.506,4.433 C 0.023,0 0.048,0.024 0,0 m 0,5.231 c 3.488,2.269 5.691,6.152 5.691,10.628 0,7.039 -5.71,12.75 -12.746,12.75 -7.039,0 -12.75,-5.711 -12.75,-12.75 0,-4.828 2.693,-9.043 6.66,-11.203 0.043,-0.043 0.025,-0.023 0.043,0 0.883,2.844 3.533,4.895 6.665,4.895 2.886,0 5.378,-1.761 6.437,-4.277 z"
             style="fill:#000000;fill-opacity:1;fill-rule:evenodd;stroke:none"
             id="path1928"
             inkscape:connector-curvature="0" /></g><g
           id="g1930"
           transform="translate(197.7393,98.3467)"
           style="fill:#000000"><path
             d="m 0,0 c 0.407,0 0.704,-0.312 0.704,-0.718 0,-0.407 -0.297,-0.719 -0.688,-0.719 -0.391,0 -0.703,0.312 -0.703,0.734 C -0.687,-0.312 -0.375,0 0,0 M 1.219,1.219 H 0.657 V 0.235 C 0.5,0.422 0.219,0.532 -0.078,0.532 c -0.656,0 -1.172,-0.563 -1.172,-1.266 0,-0.687 0.516,-1.234 1.172,-1.234 0.328,0 0.563,0.109 0.782,0.375 v -0.313 h 0.515 z"
             style="fill:#000000;fill-opacity:1;fill-rule:nonzero;stroke:none"
             id="path1932"
             inkscape:connector-curvature="0" /></g><path
           d="m 199.396,99.035 h 0.562 v 0.531 h -0.562 z m 0,-2.595 h 0.562 v 2.344 h -0.562 z"
           style="fill:#000000;fill-opacity:1;fill-rule:nonzero;stroke:none"
           id="path1934"
           inkscape:connector-curvature="0" /><g
           id="g1936"
           transform="translate(201.5566,98.3315)"
           style="fill:#000000"><path
             d="M 0,0 C 0.405,0 0.703,-0.313 0.703,-0.735 0.703,-0.906 0.625,-1.094 0.53,-1.219 0.405,-1.36 0.233,-1.422 0.015,-1.422 c -0.407,0 -0.703,0.266 -0.703,0.687 C -0.688,-0.313 -0.392,0 0,0 M 1.233,0.453 H 0.719 V 0.14 C 0.515,0.406 0.28,0.515 -0.047,0.515 c -0.703,0 -1.203,-0.531 -1.203,-1.234 0,-0.719 0.5,-1.234 1.187,-1.234 0.328,0 0.546,0.109 0.782,0.375 v -0.313 h 0.514 z"
             style="fill:#000000;fill-opacity:1;fill-rule:nonzero;stroke:none"
             id="path1938"
             inkscape:connector-curvature="0" /></g><g
           id="g1940"
           transform="translate(203.2168,96.4404)"
           style="fill:#000000"><path
             d="m 0,0 h 0.562 v 1.156 c 0,0.235 0.015,0.391 0.046,0.485 0.079,0.156 0.219,0.25 0.408,0.25 0.156,0 0.281,-0.063 0.359,-0.156 C 1.437,1.641 1.469,1.5 1.469,1.281 V 0 H 2.03 v 1.156 c 0,0.266 0.032,0.391 0.078,0.5 0.079,0.141 0.219,0.235 0.408,0.235 0.139,0 0.25,-0.063 0.328,-0.156 C 2.922,1.656 2.952,1.516 2.952,1.281 V 0 H 3.516 V 1.36 C 3.516,1.641 3.469,1.875 3.358,2.031 3.219,2.266 2.922,2.406 2.562,2.406 2.233,2.406 2,2.297 1.812,2.031 1.655,2.297 1.437,2.406 1.125,2.406 0.844,2.406 0.672,2.328 0.516,2.125 V 2.344 H 0 Z"
             style="fill:#000000;fill-opacity:1;fill-rule:nonzero;stroke:none"
             id="path1942"
             inkscape:connector-curvature="0" /></g><g
           id="g1944"
           transform="translate(207.6855,97.8628)"
           style="fill:#000000"><path
             d="M 0,0 C 0.093,0.297 0.312,0.469 0.656,0.469 1,0.469 1.233,0.297 1.297,0 Z m 1.828,-0.5 c 0.015,0.078 0.03,0.125 0.03,0.219 0,0.734 -0.515,1.265 -1.218,1.265 -0.687,0 -1.234,-0.546 -1.234,-1.234 0,-0.687 0.562,-1.234 1.266,-1.234 0.39,0 0.686,0.14 0.936,0.437 0.095,0.11 0.157,0.203 0.189,0.313 H 1.187 C 1.031,-0.891 0.906,-0.953 0.672,-0.953 c -0.344,0 -0.594,0.172 -0.657,0.453 z"
             style="fill:#000000;fill-opacity:1;fill-rule:nonzero;stroke:none"
             id="path1946"
             inkscape:connector-curvature="0" /></g><g
           id="g1948"
           transform="translate(209.9893,96.4404)"
           style="fill:#000000"><path
             d="M 0,0 H 0.563 V 1.828 H 0.907 V 2.344 H 0.563 V 3.125 H 0 V 2.344 H -0.281 V 1.828 H 0 Z"
             style="fill:#000000;fill-opacity:1;fill-rule:nonzero;stroke:none"
             id="path1950"
             inkscape:connector-curvature="0" /></g><g
           id="g1952"
           transform="translate(211.6689,97.8628)"
           style="fill:#000000"><path
             d="M 0,0 C 0.095,0.297 0.313,0.469 0.656,0.469 1,0.469 1.234,0.297 1.298,0 Z m 1.828,-0.5 c 0.017,0.078 0.031,0.125 0.031,0.219 0,0.734 -0.514,1.265 -1.217,1.265 -0.689,0 -1.236,-0.546 -1.236,-1.234 0,-0.687 0.564,-1.234 1.267,-1.234 0.39,0 0.686,0.14 0.936,0.437 0.094,0.11 0.158,0.203 0.189,0.313 H 1.188 C 1.031,-0.891 0.906,-0.953 0.673,-0.953 c -0.345,0 -0.595,0.172 -0.656,0.453 z"
             style="fill:#000000;fill-opacity:1;fill-rule:nonzero;stroke:none"
             id="path1954"
             inkscape:connector-curvature="0" /></g><g
           id="g1956"
           transform="translate(213.8965,96.4404)"
           style="fill:#000000"><path
             d="m 0,0 h 0.562 v 1.297 c 0,0.375 0.156,0.547 0.5,0.563 V 2.406 H 1.015 C 0.781,2.406 0.656,2.328 0.515,2.11 V 2.344 H 0 Z"
             style="fill:#000000;fill-opacity:1;fill-rule:nonzero;stroke:none"
             id="path1958"
             inkscape:connector-curvature="0" /></g><g
           id="g1960"
           transform="translate(194.1104,94.9287)"
           style="fill:#000000"><path
             d="M 0,0 H 24.008"
             style="fill:#000000;stroke:#5d2790;stroke-width:0.329;stroke-linecap:round;stroke-linejoin:miter;stroke-miterlimit:4;stroke-dasharray:0.329, 0.987;stroke-dashoffset:0;stroke-opacity:1"
             id="path1962"
             inkscape:connector-curvature="0" /></g><g
           id="g1964"
           transform="translate(195.833,95.7256)"
           style="fill:#000000"><path
             d="M 0,0 -2.155,-0.793 0,-1.586 C -0.344,-1.117 -0.344,-0.476 0,0"
             style="fill:#000000;fill-opacity:1;fill-rule:evenodd;stroke:none"
             id="path1966"
             inkscape:connector-curvature="0" /></g><g
           id="g1968"
           transform="translate(216.3965,94.1328)"
           style="fill:#000000"><path
             d="M 0,0 2.156,0.793 0,1.586 C 0.343,1.117 0.343,0.476 0,0"
             style="fill:#000000;fill-opacity:1;fill-rule:evenodd;stroke:none"
             id="path1970"
             inkscape:connector-curvature="0" /></g><g
           id="g1972"
           transform="translate(218.8643,75.5469)"
           style="fill:#000000"><path
             d="M 0,0 C 0.297,0.297 0.688,0.297 1,0 1.313,-0.313 1.313,-0.703 1.032,-0.985 0.75,-1.282 0.375,-1.282 0.063,-0.97 -0.25,-0.672 -0.265,-0.282 0,0 M 0.172,0.812 0.391,0.608 C 0.094,0.64 -0.171,0.562 -0.406,0.312 -0.875,-0.157 -0.843,-0.86 -0.343,-1.36 c 0.515,-0.5 1.218,-0.532 1.703,-0.062 0.219,0.234 0.297,0.469 0.265,0.812 0.344,-0.343 0.36,-0.687 0.063,-1 C 1.516,-1.797 1.36,-1.86 1.11,-1.844 L 0.672,-2.282 c 0.453,-0.203 0.969,-0.093 1.375,0.329 0.297,0.296 0.406,0.64 0.375,0.983 -0.031,0.282 -0.187,0.532 -0.5,0.845 L 0.563,1.203 Z"
             style="fill:#000000;fill-opacity:1;fill-rule:nonzero;stroke:none"
             id="path1974"
             inkscape:connector-curvature="0" /></g><g
           id="g1976"
           transform="translate(220.8604,77.5693)"
           style="fill:#000000"><path
             d="M 0,0 C 0.282,0.281 0.704,0.281 1,-0.015 1.125,-0.141 1.219,-0.328 1.235,-0.483 1.25,-0.672 1.172,-0.844 1.016,-1 0.735,-1.28 0.344,-1.312 0.032,-1.015 -0.265,-0.719 -0.281,-0.28 0,0 M 0.532,1.188 0.172,0.813 0.391,0.595 C 0.062,0.642 -0.187,0.547 -0.406,0.328 c -0.5,-0.515 -0.453,-1.233 0.047,-1.719 0.5,-0.514 1.219,-0.531 1.703,-0.031 0.235,0.235 0.313,0.469 0.281,0.814 l 0.219,-0.22 0.36,0.375 z"
             style="fill:#000000;fill-opacity:1;fill-rule:nonzero;stroke:none"
             id="path1978"
             inkscape:connector-curvature="0" /></g><g
           id="g1980"
           transform="translate(223.1533,80.5308)"
           style="fill:#000000"><path
             d="M 0,0 -0.39,-0.391 0.407,-1.172 C 0.61,-1.375 0.704,-1.5 0.735,-1.625 0.766,-1.766 0.719,-1.937 0.579,-2.078 0.485,-2.172 0.36,-2.219 0.25,-2.219 c -0.14,0.032 -0.281,0.125 -0.5,0.344 l -0.812,0.796 -0.391,-0.39 0.891,-0.875 c 0.297,-0.281 0.469,-0.39 0.672,-0.437 0.281,-0.047 0.547,0.031 0.781,0.25 0.188,0.203 0.25,0.39 0.266,0.687 L 1.313,-2 1.672,-1.641 Z"
             style="fill:#000000;fill-opacity:1;fill-rule:nonzero;stroke:none"
             id="path1982"
             inkscape:connector-curvature="0" /></g><g
           id="g1984"
           transform="translate(224.5791,81.3467)"
           style="fill:#000000"><path
             d="M 0,0 C 0.297,0.297 0.688,0.297 1,0 1.313,-0.312 1.313,-0.703 1.031,-0.984 0.75,-1.281 0.375,-1.281 0.063,-0.968 -0.25,-0.671 -0.265,-0.281 0,0 M 0.172,0.813 0.392,0.61 C 0.094,0.641 -0.172,0.563 -0.406,0.313 c -0.469,-0.469 -0.438,-1.172 0.062,-1.672 0.516,-0.5 1.219,-0.531 1.704,-0.062 0.218,0.234 0.296,0.468 0.265,0.812 0.344,-0.344 0.36,-0.687 0.063,-1 C 1.517,-1.796 1.36,-1.859 1.11,-1.843 L 0.672,-2.281 c 0.453,-0.203 0.97,-0.094 1.375,0.328 0.297,0.297 0.406,0.641 0.375,0.985 -0.03,0.281 -0.187,0.531 -0.5,0.843 L 0.563,1.204 Z"
             style="fill:#000000;fill-opacity:1;fill-rule:nonzero;stroke:none"
             id="path1986"
             inkscape:connector-curvature="0" /></g><g
           id="g1988"
           transform="translate(226.4355,82.5737)"
           style="fill:#000000"><path
             d="M 0,0 C -0.142,0.266 -0.11,0.547 0.14,0.797 0.375,1.031 0.672,1.078 0.922,0.922 Z M 1.64,0.938 C 1.593,1.016 1.578,1.063 1.515,1.125 1,1.641 0.25,1.641 -0.25,1.141 -0.735,0.656 -0.719,-0.109 -0.219,-0.594 0.265,-1.078 1.047,-1.078 1.531,-0.578 1.812,-0.297 1.906,0.031 1.89,0.406 1.875,0.547 1.858,0.656 1.797,0.766 L 1.375,0.328 C 1.375,0.109 1.328,-0.031 1.156,-0.203 0.922,-0.437 0.625,-0.5 0.375,-0.359 Z"
             style="fill:#000000;fill-opacity:1;fill-rule:nonzero;stroke:none"
             id="path1990"
             inkscape:connector-curvature="0" /></g><g
           id="g1992"
           transform="translate(222.5283,81.7969)"
           style="fill:#000000"><path
             d="m 0,0 -1.058,-1.094 -1.059,-1.091 -0.418,1.462 -0.414,1.465 1.473,-0.371 z"
             style="fill:#000000;fill-opacity:1;fill-rule:nonzero;stroke:none"
             id="path1994"
             inkscape:connector-curvature="0" /></g><g
           id="g1996"
           transform="translate(111.4502,101.6675)"
           style="fill:#000000"><path
             d="m 0,0 c 0,0 -0.652,-0.09 -1.011,-0.09 -2.836,0 -5.129,2.293 -5.129,5.125 0,2.836 2.293,5.129 5.129,5.129 2.832,0 5.125,-2.293 5.125,-5.129 C 4.114,4.676 4,3.98 4,3.98 l 19.969,-19.633 c 0,0 0.586,0.067 0.879,0.067 2.832,0 5.125,-2.293 5.125,-5.125 0,-2.835 -2.293,-5.128 -5.125,-5.128 -2.836,0 -5.129,2.293 -5.129,5.128 0,0.293 0.07,0.875 0.07,0.875 z"
             style="fill:#000000;fill-opacity:1;fill-rule:evenodd;stroke:none"
             id="path1998"
             inkscape:connector-curvature="0" /></g><g
           id="g2000"
           transform="translate(123.5752,103.0308)"
           style="fill:#000000"><path
             d="M 0,0 0.391,-0.406 2.578,1.828 2.188,2.234 Z"
             style="fill:#000000;fill-opacity:1;fill-rule:nonzero;stroke:none"
             id="path2002"
             inkscape:connector-curvature="0" /></g><g
           id="g2004"
           transform="translate(125.6504,102.9878)"
           style="fill:#000000"><path
             d="m 0,0 c 0.265,0.156 0.546,0.109 0.796,-0.141 0.25,-0.234 0.282,-0.5 0.125,-0.765 z m 0.937,-1.641 c 0.078,0.047 0.125,0.079 0.188,0.141 0.515,0.531 0.515,1.266 0.015,1.75 -0.484,0.484 -1.265,0.469 -1.75,-0.016 -0.469,-0.5 -0.469,-1.281 0.047,-1.765 0.266,-0.281 0.578,-0.375 0.969,-0.344 0.156,0.016 0.265,0.031 0.359,0.078 l -0.437,0.438 c -0.219,0 -0.36,0.031 -0.516,0.203 -0.25,0.234 -0.312,0.531 -0.156,0.781 z"
             style="fill:#000000;fill-opacity:1;fill-rule:nonzero;stroke:none"
             id="path2006"
             inkscape:connector-curvature="0" /></g><g
           id="g2008"
           transform="translate(126.2432,100.4175)"
           style="fill:#000000"><path
             d="M 0,0 0.391,-0.406 1.172,0.39 c 0.219,0.219 0.313,0.313 0.469,0.329 0.141,0.062 0.312,0 0.437,-0.125 C 2.188,0.5 2.219,0.375 2.219,0.25 2.203,0.125 2.094,-0.031 1.875,-0.25 L 1.078,-1.063 1.485,-1.469 2.36,-0.578 c 0.297,0.297 0.406,0.5 0.437,0.703 C 2.844,0.39 2.75,0.656 2.516,0.89 2.328,1.078 2.141,1.14 1.844,1.14 L 2,1.297 1.641,1.672 Z"
             style="fill:#000000;fill-opacity:1;fill-rule:nonzero;stroke:none"
             id="path2010"
             inkscape:connector-curvature="0" /></g><g
           id="g2012"
           transform="translate(130.1694,99.2026)"
           style="fill:#000000"><path
             d="m 0,0 c 0.297,-0.281 0.281,-0.688 -0.016,-0.984 -0.296,-0.313 -0.687,-0.313 -0.968,-0.047 -0.282,0.281 -0.297,0.672 0,0.984 C -0.687,0.25 -0.266,0.266 0,0 M 0.828,-0.172 0.625,-0.375 c 0.031,0.281 -0.062,0.547 -0.297,0.797 -0.469,0.453 -1.187,0.422 -1.687,-0.078 -0.5,-0.516 -0.532,-1.219 -0.047,-1.688 0.234,-0.234 0.469,-0.312 0.812,-0.281 -0.359,-0.344 -0.703,-0.359 -1,-0.063 -0.203,0.188 -0.265,0.344 -0.25,0.579 l -0.437,0.437 c -0.203,-0.453 -0.094,-0.969 0.328,-1.375 0.297,-0.281 0.641,-0.406 0.984,-0.375 0.282,0.031 0.547,0.203 0.86,0.516 l 1.328,1.359 z"
             style="fill:#000000;fill-opacity:1;fill-rule:nonzero;stroke:none"
             id="path2014"
             inkscape:connector-curvature="0" /></g><g
           id="g2016"
           transform="translate(130.1074,96.6167)"
           style="fill:#000000"><path
             d="M 0,0 0.406,-0.391 1.687,0.922 1.937,0.672 2.296,1.031 2.046,1.281 2.593,1.844 2.187,2.234 1.64,1.672 1.437,1.875 1.078,1.516 1.281,1.312 Z"
             style="fill:#000000;fill-opacity:1;fill-rule:nonzero;stroke:none"
             id="path2018"
             inkscape:connector-curvature="0" /></g><g
           id="g2020"
           transform="translate(130.9702,95.7886)"
           style="fill:#000000"><path
             d="m 0,0 0.39,-0.406 0.829,0.843 c 0.171,0.172 0.265,0.266 0.39,0.297 0.156,0.032 0.328,0 0.469,-0.125 C 2.312,0.359 2.265,0.14 1.922,-0.203 l -0.844,-0.86 0.406,-0.406 0.922,0.953 c 0.25,0.235 0.344,0.422 0.391,0.61 C 2.844,0.375 2.75,0.672 2.515,0.906 2.328,1.078 2.156,1.156 1.922,1.156 L 2.578,1.828 2.187,2.234 Z"
             style="fill:#000000;fill-opacity:1;fill-rule:nonzero;stroke:none"
             id="path2022"
             inkscape:connector-curvature="0" /></g><g
           id="g2024"
           transform="translate(116.9971,106.9175)"
           style="fill:#000000"><path
             d="M 0,0 18.824,-19.227"
             style="fill:#000000;stroke:#5d2790;stroke-width:0.36899999;stroke-linecap:round;stroke-linejoin:miter;stroke-miterlimit:4;stroke-dasharray:0.369, 1.106;stroke-dashoffset:0;stroke-opacity:1"
             id="path2026"
             inkscape:connector-curvature="0" /></g><g
           id="g2028"
           transform="translate(118.9854,106.1636)"
           style="fill:#000000"><path
             d="m 0,0 -2.328,1.105 1.059,-2.347 C -1.168,-0.602 -0.652,-0.102 0,0"
             style="fill:#000000;fill-opacity:1;fill-rule:evenodd;stroke:none"
             id="path2030"
             inkscape:connector-curvature="0" /></g><g
           id="g2032"
           transform="translate(133.8335,88.4448)"
           style="fill:#000000"><path
             d="M 0,0 2.328,-1.105 1.274,1.242 C 1.168,0.602 0.652,0.098 0,0"
             style="fill:#000000;fill-opacity:1;fill-rule:evenodd;stroke:none"
             id="path2034"
             inkscape:connector-curvature="0" /></g><g
           id="g2036"
           transform="translate(119.1504,86.9565)"
           style="fill:#000000"><path
             d="M 0,0 C 0.265,-0.297 0.234,-0.688 -0.079,-0.985 -0.391,-1.266 -0.782,-1.25 -1.032,-0.953 -1.313,-0.656 -1.282,-0.281 -0.969,0 -0.657,0.297 -0.266,0.297 0,0 M 0.812,-0.203 0.593,-0.406 c 0.063,0.281 -0.015,0.562 -0.25,0.812 -0.437,0.484 -1.172,0.5 -1.687,0.031 -0.531,-0.484 -0.594,-1.203 -0.141,-1.703 0.219,-0.234 0.453,-0.328 0.797,-0.312 -0.391,-0.313 -0.719,-0.328 -1,-0.016 -0.187,0.203 -0.234,0.359 -0.219,0.609 l -0.422,0.469 c -0.218,-0.453 -0.125,-0.969 0.266,-1.39 0.281,-0.313 0.625,-0.469 0.969,-0.438 0.265,0.016 0.547,0.156 0.875,0.453 l 1.406,1.281 z"
             style="fill:#000000;fill-opacity:1;fill-rule:nonzero;stroke:none"
             id="path2038"
             inkscape:connector-curvature="0" /></g><g
           id="g2040"
           transform="translate(121.0483,84.8706)"
           style="fill:#000000"><path
             d="m 0,0 c 0.281,-0.297 0.266,-0.719 -0.047,-1 -0.125,-0.125 -0.328,-0.203 -0.484,-0.203 -0.188,0 -0.36,0.078 -0.5,0.234 -0.282,0.297 -0.266,0.703 0.047,0.985 C -0.672,0.297 -0.266,0.281 0,0 m 1.172,-0.609 -0.344,0.39 -0.234,-0.219 c 0.062,0.344 -0.016,0.594 -0.235,0.829 -0.468,0.515 -1.203,0.531 -1.734,0.046 -0.531,-0.468 -0.563,-1.203 -0.094,-1.703 0.219,-0.25 0.438,-0.328 0.797,-0.328 l -0.234,-0.203 0.343,-0.391 z"
             style="fill:#000000;fill-opacity:1;fill-rule:nonzero;stroke:none"
             id="path2042"
             inkscape:connector-curvature="0" /></g><g
           id="g2044"
           transform="translate(123.9155,82.4258)"
           style="fill:#000000"><path
             d="m 0,0 -0.39,0.406 -0.829,-0.75 C -1.437,-0.547 -1.547,-0.625 -1.672,-0.657 -1.828,-0.672 -2,-0.61 -2.125,-0.469 c -0.094,0.094 -0.14,0.203 -0.109,0.328 0.031,0.141 0.125,0.266 0.359,0.484 L -1.031,1.109 -1.406,1.531 -2.328,0.687 C -2.625,0.421 -2.75,0.25 -2.812,0.031 c -0.063,-0.281 0.015,-0.547 0.218,-0.781 0.204,-0.219 0.375,-0.282 0.657,-0.313 l -0.157,-0.141 0.36,-0.375 z"
             style="fill:#000000;fill-opacity:1;fill-rule:nonzero;stroke:none"
             id="path2046"
             inkscape:connector-curvature="0" /></g><g
           id="g2048"
           transform="translate(124.6304,80.9326)"
           style="fill:#000000"><path
             d="M 0,0 C 0.266,-0.296 0.234,-0.687 -0.078,-0.984 -0.391,-1.265 -0.781,-1.25 -1.031,-0.953 -1.313,-0.656 -1.281,-0.281 -0.969,0 -0.656,0.297 -0.266,0.297 0,0 M 0.813,-0.203 0.594,-0.406 c 0.062,0.281 -0.016,0.563 -0.25,0.813 -0.438,0.484 -1.172,0.5 -1.688,0.031 -0.531,-0.484 -0.593,-1.203 -0.14,-1.703 0.218,-0.235 0.453,-0.328 0.797,-0.313 -0.391,-0.312 -0.719,-0.328 -1,-0.015 -0.188,0.203 -0.235,0.359 -0.219,0.609 l -0.422,0.469 c -0.219,-0.453 -0.125,-0.969 0.265,-1.391 0.282,-0.312 0.626,-0.469 0.969,-0.437 0.266,0.015 0.547,0.156 0.875,0.453 l 1.406,1.281 z"
             style="fill:#000000;fill-opacity:1;fill-rule:nonzero;stroke:none"
             id="path2050"
             inkscape:connector-curvature="0" /></g><g
           id="g2052"
           transform="translate(125.7476,79.0186)"
           style="fill:#000000"><path
             d="m 0,0 c 0.281,0.141 0.547,0.078 0.781,-0.172 0.235,-0.25 0.266,-0.531 0.094,-0.781 z m 0.875,-1.687 c 0.047,0.047 0.11,0.062 0.172,0.125 0.547,0.5 0.594,1.234 0.125,1.765 -0.469,0.5 -1.25,0.532 -1.766,0.063 -0.5,-0.453 -0.515,-1.25 -0.046,-1.766 0.265,-0.281 0.578,-0.406 0.953,-0.39 0.14,0 0.25,0.015 0.359,0.078 l -0.406,0.453 c -0.235,0 -0.36,0.047 -0.516,0.219 -0.234,0.25 -0.281,0.562 -0.094,0.797 z"
             style="fill:#000000;fill-opacity:1;fill-rule:nonzero;stroke:none"
             id="path2054"
             inkscape:connector-curvature="0" /></g><g
           id="g2056"
           transform="translate(125.0322,83.3667)"
           style="fill:#000000"><path
             d="m 0,0 -0.976,1 -0.973,1 1.356,0.344 1.351,0.344 z"
             style="fill:#000000;fill-opacity:1;fill-rule:nonzero;stroke:none"
             id="path2058"
             inkscape:connector-curvature="0" /></g><g
           id="g2060"
           transform="translate(166.876,86.0464)"
           style="fill:#000000"><path
             d="m 0,0 c -2.168,-0.836 -2.573,-2.985 -2.573,-4.332 0,-3.003 2.429,-5.453 5.452,-5.453 3.023,0 5.457,2.45 5.457,5.453 0,2.062 -1.145,3.843 -2.819,4.781 2.35,17.469 -12.279,22.906 -21.783,20.941 -0.816,2.004 -2.756,3.414 -5.046,3.414 -3,0 -5.454,-2.453 -5.454,-5.457 0,-3.004 2.43,-5.453 5.454,-5.453 1.515,0 3.351,0.653 4.25,2.328 C -11.953,19.125 3.966,14.425 0,0"
             style="fill:#000000;fill-opacity:1;fill-rule:evenodd;stroke:none"
             id="path2062"
             inkscape:connector-curvature="0" /></g><g
           id="g2064"
           transform="translate(155.4854,99.4956)"
           style="fill:#000000"><path
             d="M 0,0 0.391,-0.406 2.579,1.828 2.188,2.234 Z"
             style="fill:#000000;fill-opacity:1;fill-rule:nonzero;stroke:none"
             id="path2066"
             inkscape:connector-curvature="0" /></g><g
           id="g2068"
           transform="translate(157.5605,99.4565)"
           style="fill:#000000"><path
             d="m 0,0 c 0.265,0.156 0.547,0.109 0.797,-0.141 0.25,-0.234 0.281,-0.5 0.125,-0.765 z m 0.937,-1.641 c 0.078,0.047 0.125,0.078 0.188,0.141 0.515,0.531 0.515,1.265 0.015,1.75 -0.484,0.484 -1.265,0.469 -1.75,-0.016 -0.468,-0.5 -0.468,-1.281 0.047,-1.765 0.266,-0.282 0.578,-0.375 0.969,-0.344 0.156,0.015 0.266,0.031 0.359,0.078 L 0.328,-1.36 c -0.22,0 -0.36,0.032 -0.516,0.204 -0.25,0.234 -0.312,0.531 -0.156,0.781 z"
             style="fill:#000000;fill-opacity:1;fill-rule:nonzero;stroke:none"
             id="path2070"
             inkscape:connector-curvature="0" /></g><g
           id="g2072"
           transform="translate(158.1533,96.8867)"
           style="fill:#000000"><path
             d="M 0,0 0.391,-0.407 1.172,0.39 c 0.219,0.219 0.313,0.313 0.469,0.328 0.141,0.063 0.313,0 0.438,-0.125 C 2.188,0.5 2.219,0.375 2.219,0.25 2.204,0.125 2.094,-0.032 1.875,-0.25 l -0.796,-0.813 0.406,-0.406 0.875,0.89 c 0.297,0.297 0.406,0.5 0.437,0.704 C 2.844,0.39 2.75,0.656 2.516,0.89 2.329,1.078 2.141,1.14 1.844,1.14 L 2,1.296 1.641,1.671 Z"
             style="fill:#000000;fill-opacity:1;fill-rule:nonzero;stroke:none"
             id="path2074"
             inkscape:connector-curvature="0" /></g><g
           id="g2076"
           transform="translate(162.0791,95.6675)"
           style="fill:#000000"><path
             d="m 0,0 c 0.297,-0.281 0.281,-0.688 -0.015,-0.985 -0.297,-0.312 -0.688,-0.312 -0.968,-0.046 -0.282,0.281 -0.298,0.671 0,0.984 C -0.687,0.25 -0.265,0.265 0,0 M 0.828,-0.172 0.625,-0.375 C 0.656,-0.094 0.563,0.172 0.328,0.422 -0.14,0.875 -0.858,0.844 -1.358,0.344 c -0.5,-0.516 -0.532,-1.219 -0.048,-1.688 0.234,-0.234 0.469,-0.312 0.812,-0.281 -0.359,-0.344 -0.703,-0.36 -1,-0.063 -0.203,0.188 -0.264,0.344 -0.25,0.578 l -0.437,0.438 c -0.202,-0.453 -0.094,-0.969 0.328,-1.375 0.297,-0.281 0.641,-0.406 0.984,-0.375 0.282,0.031 0.547,0.203 0.861,0.516 l 1.327,1.359 z"
             style="fill:#000000;fill-opacity:1;fill-rule:nonzero;stroke:none"
             id="path2078"
             inkscape:connector-curvature="0" /></g><g
           id="g2080"
           transform="translate(162.0176,93.0854)"
           style="fill:#000000"><path
             d="m 0,0 0.405,-0.391 1.282,1.313 0.25,-0.25 0.36,0.359 -0.25,0.25 L 2.593,1.843 2.187,2.234 1.64,1.672 1.437,1.875 1.078,1.515 1.28,1.312 Z"
             style="fill:#000000;fill-opacity:1;fill-rule:nonzero;stroke:none"
             id="path2082"
             inkscape:connector-curvature="0" /></g><g
           id="g2084"
           transform="translate(162.876,92.2578)"
           style="fill:#000000"><path
             d="M 0,0 0.392,-0.407 1.22,0.437 c 0.172,0.172 0.264,0.266 0.389,0.297 0.158,0.031 0.329,0 0.469,-0.125 C 2.313,0.359 2.267,0.14 1.922,-0.203 l -0.844,-0.86 0.406,-0.406 0.922,0.953 C 2.656,-0.282 2.75,-0.094 2.797,0.093 2.845,0.375 2.75,0.671 2.517,0.906 2.328,1.078 2.156,1.156 1.922,1.156 l 0.656,0.672 -0.39,0.406 z"
             style="fill:#000000;fill-opacity:1;fill-rule:nonzero;stroke:none"
             id="path2086"
             inkscape:connector-curvature="0" /></g><g
           id="g2088"
           transform="translate(150.5957,102.0737)"
           style="fill:#000000"><path
             d="M 0,0 15.737,-15.102"
             style="fill:#000000;stroke:#5d2790;stroke-width:0.29899999;stroke-linecap:round;stroke-linejoin:miter;stroke-miterlimit:4;stroke-dasharray:0.299, 0.897;stroke-dashoffset:0;stroke-opacity:1"
             id="path2090"
             inkscape:connector-curvature="0" /></g><g
           id="g2092"
           transform="translate(152.2246,101.5146)"
           style="fill:#000000"><path
             d="m 0,0 -1.91,0.836 0.914,-1.879 C -0.931,-0.515 -0.524,-0.097 0,0"
             style="fill:#000000;fill-opacity:1;fill-rule:evenodd;stroke:none"
             id="path2094"
             inkscape:connector-curvature="0" /></g><g
           id="g2096"
           transform="translate(164.7041,87.5347)"
           style="fill:#000000"><path
             d="M 0,0 1.914,-0.836 0.996,1.039 C 0.931,0.516 0.524,0.098 0,0"
             style="fill:#000000;fill-opacity:1;fill-rule:evenodd;stroke:none"
             id="path2098"
             inkscape:connector-curvature="0" /></g><g
           id="g2100"
           transform="translate(168.5439,110.4404)"
           style="fill:#000000"><path
             d="m 0,0 c 0.328,-0.25 0.359,-0.656 0.109,-1 -0.264,-0.344 -0.656,-0.375 -0.967,-0.125 -0.329,0.25 -0.361,0.61 -0.094,0.953 C -0.702,0.172 -0.312,0.25 0,0 M 0.845,-0.062 0.656,-0.297 C 0.656,0 0.531,0.235 0.267,0.453 -0.25,0.86 -0.969,0.75 -1.405,0.188 -1.844,-0.375 -1.766,-1.094 -1.233,-1.5 c 0.25,-0.203 0.5,-0.265 0.828,-0.172 -0.314,-0.39 -0.642,-0.453 -0.986,-0.187 -0.203,0.156 -0.296,0.297 -0.311,0.562 l -0.485,0.375 c -0.157,-0.484 0.015,-0.968 0.485,-1.328 0.327,-0.25 0.686,-0.344 1.03,-0.265 0.25,0.078 0.5,0.25 0.767,0.593 l 1.172,1.516 z"
             style="fill:#000000;fill-opacity:1;fill-rule:nonzero;stroke:none"
             id="path2102"
             inkscape:connector-curvature="0" /></g><g
           id="g2104"
           transform="translate(170.79,108.7148)"
           style="fill:#000000"><path
             d="M 0,0 C 0.313,-0.25 0.36,-0.672 0.095,-1 0,-1.141 -0.187,-1.25 -0.328,-1.297 -0.515,-1.328 -0.703,-1.266 -0.875,-1.125 -1.187,-0.891 -1.25,-0.5 -1,-0.157 -0.733,0.172 -0.312,0.234 0,0 M 1.25,-0.391 0.845,-0.078 0.656,-0.328 C 0.656,0 0.531,0.234 0.267,0.437 -0.28,0.875 -1.015,0.75 -1.437,0.187 -1.875,-0.375 -1.78,-1.078 -1.25,-1.5 c 0.267,-0.203 0.5,-0.266 0.845,-0.188 l -0.189,-0.25 0.407,-0.312 z"
             style="fill:#000000;fill-opacity:1;fill-rule:nonzero;stroke:none"
             id="path2106"
             inkscape:connector-curvature="0" /></g><g
           id="g2108"
           transform="translate(174.0176,106.7808)"
           style="fill:#000000"><path
             d="m 0,0 -0.438,0.344 -0.687,-0.891 c -0.172,-0.234 -0.282,-0.328 -0.407,-0.375 -0.156,-0.047 -0.328,-0.015 -0.485,0.11 -0.108,0.078 -0.155,0.171 -0.155,0.312 0,0.125 0.077,0.281 0.265,0.531 l 0.704,0.907 -0.439,0.343 -0.765,-1 c -0.25,-0.312 -0.343,-0.5 -0.343,-0.734 -0.047,-0.281 0.093,-0.531 0.343,-0.719 0.219,-0.172 0.407,-0.219 0.704,-0.187 l -0.142,-0.172 0.407,-0.328 z"
             style="fill:#000000;fill-opacity:1;fill-rule:nonzero;stroke:none"
             id="path2110"
             inkscape:connector-curvature="0" /></g><g
           id="g2112"
           transform="translate(174.9893,105.4565)"
           style="fill:#000000"><path
             d="m 0,0 c 0.328,-0.25 0.36,-0.656 0.11,-1 -0.266,-0.344 -0.656,-0.375 -0.969,-0.125 -0.328,0.25 -0.359,0.609 -0.094,0.953 C -0.703,0.172 -0.312,0.25 0,0 M 0.844,-0.063 0.657,-0.297 C 0.657,0 0.532,0.234 0.266,0.453 -0.25,0.859 -0.968,0.75 -1.406,0.187 -1.843,-0.375 -1.765,-1.094 -1.234,-1.5 c 0.25,-0.203 0.5,-0.266 0.828,-0.172 -0.312,-0.391 -0.64,-0.453 -0.984,-0.188 -0.203,0.157 -0.297,0.297 -0.313,0.563 l -0.484,0.375 c -0.156,-0.484 0.015,-0.969 0.484,-1.328 0.328,-0.25 0.688,-0.344 1.031,-0.266 0.25,0.078 0.5,0.25 0.766,0.594 l 1.172,1.516 z"
             style="fill:#000000;fill-opacity:1;fill-rule:nonzero;stroke:none"
             id="path2114"
             inkscape:connector-curvature="0" /></g><g
           id="g2116"
           transform="translate(176.4189,103.7617)"
           style="fill:#000000"><path
             d="m 0,0 c 0.25,0.171 0.531,0.187 0.813,-0.032 0.265,-0.203 0.343,-0.484 0.218,-0.765 z m 1.142,-1.516 c 0.061,0.062 0.108,0.078 0.171,0.156 0.437,0.578 0.343,1.313 -0.204,1.75 -0.546,0.422 -1.311,0.313 -1.734,-0.234 -0.422,-0.531 -0.297,-1.313 0.25,-1.735 0.313,-0.25 0.625,-0.312 1.017,-0.234 0.139,0.031 0.25,0.063 0.328,0.141 L 0.5,-1.313 c -0.219,-0.031 -0.375,0 -0.562,0.156 -0.265,0.203 -0.36,0.485 -0.235,0.75 z"
             style="fill:#000000;fill-opacity:1;fill-rule:nonzero;stroke:none"
             id="path2118"
             inkscape:connector-curvature="0" /></g><g
           id="g2120"
           transform="translate(168.4189,103.4834)"
           style="fill:#000000"><path
             d="M 0,0 0.203,1.258 0.41,2.516 1.396,1.707 2.384,0.903 1.191,0.449 Z"
             style="fill:#000000;fill-opacity:1;fill-rule:nonzero;stroke:none"
             id="path2122"
             inkscape:connector-curvature="0" /></g><g
           id="g2124"
           transform="translate(73.1343,84.6948)"
           style="fill:#000000"><path
             d="m 0,0 c -1.383,1.313 -5.578,1.574 -7.359,6.703 -1.778,5.133 -0.356,10.844 2.996,14.703 4.812,5.543 13.523,6.93 17.382,4.739 3.239,-1.836 3.914,-4.137 5.207,-5.301 0.485,-0.43 -5.562,1.816 -10.902,-3.707 3.07,2.492 8.465,4.047 12.68,2.734 1.965,-0.637 3.332,-1.703 4.457,-2.66 C 28.019,14.16 31.09,3.184 22.328,-4.269 13.598,-11.708 4.273,-7.137 2.269,-3.633 1.613,-2.473 1.406,-1.89 1.125,-1.387 0.883,-0.957 -0.129,5.336 2.285,8.82 -1.684,5.414 0.676,-0.637 0,0"
             style="fill:#000000;fill-opacity:1;fill-rule:evenodd;stroke:none"
             id="path2126"
             inkscape:connector-curvature="0" /></g><g
           id="g2128"
           transform="translate(64.5991,84.5146)"
           style="fill:#000000"><path
             d="m 0,0 c 0.281,-0.281 0.281,-0.703 -0.016,-1 -0.297,-0.312 -0.687,-0.312 -0.969,-0.046 -0.281,0.281 -0.281,0.671 0.016,0.984 C -0.672,0.235 -0.282,0.266 0,0 M 0.828,-0.171 0.609,-0.375 C 0.656,-0.093 0.562,0.157 0.312,0.407 -0.156,0.86 -0.875,0.844 -1.36,0.329 c -0.5,-0.516 -0.531,-1.219 -0.046,-1.688 0.234,-0.234 0.468,-0.312 0.812,-0.266 -0.359,-0.359 -0.703,-0.375 -1,-0.078 -0.188,0.188 -0.266,0.344 -0.234,0.578 l -0.454,0.438 c -0.203,-0.453 -0.078,-0.969 0.329,-1.359 0.297,-0.297 0.64,-0.422 0.984,-0.391 0.281,0.047 0.547,0.203 0.859,0.516 l 1.328,1.359 z"
             style="fill:#000000;fill-opacity:1;fill-rule:nonzero;stroke:none"
             id="path2130"
             inkscape:connector-curvature="0" /></g><g
           id="g2132"
           transform="translate(66.6182,82.5469)"
           style="fill:#000000"><path
             d="m 0,0 c 0.297,-0.297 0.282,-0.735 0,-1.032 -0.125,-0.125 -0.297,-0.187 -0.468,-0.218 -0.172,-0.032 -0.344,0.047 -0.5,0.203 -0.297,0.281 -0.313,0.687 -0.016,0.984 C -0.703,0.234 -0.281,0.265 0,0 M 1.219,-0.563 0.844,-0.188 0.625,-0.407 C 0.672,-0.078 0.563,0.156 0.328,0.39 -0.172,0.875 -0.89,0.843 -1.39,0.343 c -0.5,-0.515 -0.5,-1.234 -0.016,-1.718 0.234,-0.219 0.469,-0.297 0.828,-0.266 l -0.219,-0.219 0.375,-0.375 z"
             style="fill:#000000;fill-opacity:1;fill-rule:nonzero;stroke:none"
             id="path2134"
             inkscape:connector-curvature="0" /></g><g
           id="g2136"
           transform="translate(69.6226,80.2495)"
           style="fill:#000000"><path
             d="M 0,0 -0.406,0.39 -1.187,-0.391 C -1.39,-0.61 -1.5,-0.703 -1.625,-0.75 c -0.172,-0.016 -0.328,0.031 -0.453,0.156 -0.109,0.094 -0.156,0.219 -0.141,0.344 0.016,0.125 0.125,0.265 0.344,0.484 L -1.078,1.047 -1.484,1.453 -2.359,0.562 C -2.64,0.281 -2.75,0.078 -2.797,-0.125 c -0.047,-0.281 0.032,-0.546 0.266,-0.766 0.187,-0.203 0.375,-0.25 0.672,-0.265 l -0.156,-0.157 0.375,-0.358 z"
             style="fill:#000000;fill-opacity:1;fill-rule:nonzero;stroke:none"
             id="path2138"
             inkscape:connector-curvature="0" /></g><g
           id="g2140"
           transform="translate(70.4355,78.832)"
           style="fill:#000000"><path
             d="m 0,0 c 0.281,-0.281 0.281,-0.703 -0.016,-1 -0.297,-0.313 -0.687,-0.313 -0.969,-0.048 -0.281,0.281 -0.281,0.673 0.016,0.985 C -0.672,0.233 -0.282,0.265 0,0 M 0.828,-0.173 0.609,-0.375 c 0.047,0.28 -0.047,0.53 -0.297,0.78 -0.469,0.453 -1.187,0.439 -1.672,-0.078 -0.5,-0.515 -0.531,-1.219 -0.047,-1.687 0.235,-0.235 0.469,-0.313 0.813,-0.265 -0.359,-0.36 -0.703,-0.375 -1,-0.078 -0.188,0.186 -0.266,0.343 -0.234,0.578 l -0.454,0.437 c -0.203,-0.454 -0.078,-0.968 0.329,-1.36 0.296,-0.297 0.64,-0.422 0.984,-0.39 0.281,0.046 0.547,0.203 0.859,0.515 l 1.328,1.36 z"
             style="fill:#000000;fill-opacity:1;fill-rule:nonzero;stroke:none"
             id="path2142"
             inkscape:connector-curvature="0" /></g><g
           id="g2144"
           transform="translate(71.6572,76.9717)"
           style="fill:#000000"><path
             d="m 0,0 c 0.282,0.157 0.547,0.125 0.797,-0.109 0.25,-0.25 0.313,-0.531 0.125,-0.797 z m 0.969,-1.64 c 0.063,0.062 0.109,0.078 0.172,0.14 0.516,0.532 0.516,1.266 0,1.75 -0.484,0.485 -1.25,0.469 -1.734,-0.015 -0.469,-0.5 -0.454,-1.281 0.046,-1.766 0.282,-0.281 0.579,-0.375 0.985,-0.344 0.14,0.016 0.25,0.047 0.344,0.11 L 0.344,-1.343 C 0.125,-1.359 0,-1.328 -0.172,-1.156 c -0.25,0.235 -0.296,0.531 -0.156,0.781 z"
             style="fill:#000000;fill-opacity:1;fill-rule:nonzero;stroke:none"
             id="path2146"
             inkscape:connector-curvature="0" /></g><g
           id="g2148"
           transform="translate(71.5444,83.7925)"
           style="fill:#000000"><path
             d="m 0,0 -0.641,-2.719 -1.015,0.957 -1.02,0.957 1.34,0.402 z"
             style="fill:#000000;fill-opacity:1;fill-rule:nonzero;stroke:none"
             id="path2150"
             inkscape:connector-curvature="0" /></g></g></g></g></svg>