<?xml version="1.0" encoding="UTF-8" standalone="no"?>
<!-- Created with Inkscape (http://www.inkscape.org/) -->
<svg id="svg2" xmlns:rdf="http://www.w3.org/1999/02/22-rdf-syntax-ns#" xmlns="http://www.w3.org/2000/svg" height="78.458mm" width="78.458mm" version="1.1" xmlns:cc="http://creativecommons.org/ns#" xmlns:dc="http://purl.org/dc/elements/1.1/" viewBox="0 0 278 278">
 <metadata id="metadata7">
  <rdf:RDF>
   <cc:Work rdf:about="">
    <dc:format>image/svg+xml</dc:format>
    <dc:type rdf:resource="http://purl.org/dc/dcmitype/StillImage"/>
    <dc:title/>
   </cc:Work>
  </rdf:RDF>
 </metadata>
 <g id="layer1" transform="translate(-243 -410.36)">
  <path id="rect4136" style="color-rendering:auto;text-decoration-color:#000000;color:#000000;isolation:auto;mix-blend-mode:normal;shape-rendering:auto;solid-color:#000000;block-progression:tb;text-decoration-line:none;text-decoration-style:solid;image-rendering:auto;white-space:normal;text-indent:0;text-transform:none" d="m244 410.36a1.0001 1.0001 0 0 0 -1 1v276a1.0001 1.0001 0 0 0 1 1h276a1.0001 1.0001 0 0 0 1 -1v-276a1.0001 1.0001 0 0 0 -1 -1h-276zm1 2h274v274h-274v-274z"/>
  <path id="path4147" d="m334.76 497.66v-46.752l38.164 35.498v-35.033h4.9294v46.814l-38.164-35.498v34.971h-4.9294z"/>
  <path id="path4149" d="m431.52 465.39q1.9222 4.3713 1.9222 9.1767t-1.9222 9.1767q-1.8912 4.3403-5.1464 7.4716-3.2242 3.1312-7.6886 4.9914-4.4333 1.8602-9.3007 1.8602-4.8984 0-9.3937-1.8602-4.4644-1.8601-7.7196-4.9914-3.2242-3.1312-5.1464-7.4716-1.9222-4.3713-1.9222-9.1767t1.9222-9.1767 5.1464-7.5336q3.2552-3.1622 7.7196-5.0224 4.4954-1.8601 9.3937-1.8601 4.8674 0 9.3007 1.8601 4.4644 1.8602 7.6886 5.0224 3.2552 3.1622 5.1464 7.5336zm-41.357 9.1767q0 3.8133 1.4881 7.2856 1.5191 3.4723 4.0613 6.0145 2.5732 2.5112 6.1385 3.9993 3.5963 1.4881 7.5336 1.4881 5.2084 0 9.6107-2.5112 4.4334-2.5422 7.0066-6.8515 2.5732-4.3403 2.5732-9.4247 0-5.1154-2.5732-9.4557t-7.0066-6.8515q-4.4023-2.5112-9.6107-2.5112-3.9373 0-7.5026 1.4881t-6.1385 3.9993-4.0923 6.0145q-1.4881 3.4723-1.4881 7.3166z"/>
  <path id="path4151" d="m292.38 567.5h-4.9294v-46.287h4.9294v46.287z"/>
  <path id="path4153" d="m302.21 567.5h-4.7744l9.5487-46.69 16.958 34.909 17.268-34.909 9.3007 46.69h-4.9914l-6.2625-30.258-15.47 30.723-15.067-30.723-6.5105 30.258z"/>
  <path id="path4155" d="m365.27 548.96h15.036l-7.5646-15.873-7.4716 15.873zm-2.2632 4.7744-5.7354 13.703h-5.2704l20.679-46.69 20.679 46.69h-5.3014l-5.8284-13.703h-19.221z"/>
  <path id="path4157" d="m440.73 531.14-3.9063 2.9142q-0.83706-1.0541-1.3641-1.6741-0.52705-0.62004-2.1702-2.0772-1.6121-1.4571-3.1932-2.3252-1.5811-0.89907-4.1233-1.6431-2.5112-0.74405-5.2394-0.74405-3.9373 0-7.5026 1.4881t-6.1385 3.9993-4.0923 6.0145q-1.4881 3.4723-1.4881 7.3166 0 3.8133 1.4881 7.2856 1.5191 3.4723 4.0613 6.0145 2.5732 2.5112 6.1385 3.9993 3.5963 1.4881 7.5336 1.4881 7.2856 0 12.68-4.7124 5.4254-4.7434 6.3245-11.719h-20.121v-4.8054h25.174v2.4492q0 4.8054-1.9222 9.1767-1.8912 4.3403-5.1464 7.4716-3.2242 3.1312-7.6886 4.9914-4.4333 1.8601-9.3007 1.8601-4.8984 0-9.3937-1.8601-4.4643-1.8602-7.7196-4.9914-3.2242-3.1312-5.1464-7.4716-1.9222-4.3713-1.9222-9.1767t1.9222-9.1767 5.1464-7.5336q3.2553-3.1622 7.7196-5.0224 4.4954-1.8601 9.3937-1.8601 3.3793 0 6.5415 0.93007 3.1622 0.89907 5.1774 2.0462 2.0462 1.1471 3.9373 2.7902 1.9222 1.6431 2.6662 2.5112 0.77506 0.86807 1.4881 1.7981 0.12401 0.18601 0.18601 0.24802z"/>
  <path id="path4159" d="m478.8 538.42v4.7744h-21.733v19.532h23.531v4.7744h-28.46v-46.287h28.615v4.7744h-23.686v12.432h21.733z"/>
  <path id="path4161" d="m300.97 608.26v4.7744h-21.733v24.306h-4.9294v-46.287h28.615v4.7744h-23.686v12.432h21.733z"/>
  <path id="path4163" d="m355.19 605.07q1.9222 4.3713 1.9222 9.1767t-1.9222 9.1767q-1.8912 4.3403-5.1464 7.4716-3.2242 3.1312-7.6886 4.9914-4.4333 1.8602-9.3007 1.8602-4.8984 0-9.3937-1.8602-4.4644-1.8601-7.7196-4.9914-3.2242-3.1312-5.1464-7.4716-1.9222-4.3713-1.9222-9.1767t1.9222-9.1767 5.1464-7.5336q3.2552-3.1622 7.7196-5.0224 4.4954-1.8602 9.3937-1.8602 4.8674 0 9.3007 1.8602 4.4644 1.8601 7.6886 5.0224 3.2552 3.1622 5.1464 7.5336zm-41.357 9.1767q0 3.8133 1.4881 7.2856 1.5191 3.4723 4.0613 6.0145 2.5732 2.5112 6.1385 3.9993 3.5963 1.4881 7.5336 1.4881 5.2084 0 9.6107-2.5112 4.4334-2.5422 7.0066-6.8515 2.5732-4.3403 2.5732-9.4247 0-5.1154-2.5732-9.4557t-7.0066-6.8515q-4.4023-2.5112-9.6107-2.5112-3.9373 0-7.5026 1.4881t-6.1385 3.9993-4.0923 6.0145q-1.4881 3.4723-1.4881 7.3166z"/>
  <path id="path4165" d="m364.46 591.06h4.9294v28.46q0 5.6734 3.6893 9.6108 3.7203 3.9063 8.7427 3.9063 3.2553 0 6.0455-1.7361 2.7902-1.7671 4.4644-4.8984 1.7051-3.1312 1.7051-6.8825v-28.46h4.9294v28.46q0 4.9294-2.2942 9.1457t-6.2935 6.6965q-3.9683 2.4492-8.7117 2.4492-3.5343 0-6.7585-1.4571-3.1932-1.4571-5.4874-3.9063-2.2632-2.4802-3.6273-5.8595-1.3331-3.3793-1.3331-7.0686v-28.46z"/>
  <path id="path4167" d="m407.62 637.35v-46.752l38.164 35.498v-35.033h4.9294v46.814l-38.164-35.498v34.971h-4.9294z"/>
  <path id="path4169" d="m464.38 632.57h5.3324q5.2704 0 9.6728-2.3872 4.4023-2.4182 6.9755-6.6345t2.5732-9.3007q0-5.1154-2.5732-9.3317-2.5732-4.2473-6.9755-6.6655t-9.6728-2.4182h-5.3324v36.738zm-4.9294 4.7744v-46.287h10.262q6.5415 0 12.06 3.0692 5.5494 3.0382 8.7737 8.3706 3.2552 5.3324 3.2552 11.75 0 6.3865-3.2552 11.719-3.2242 5.3014-8.7737 8.3396-5.5184 3.0382-12.06 3.0382h-10.262z"/>
 </g>
</svg>
