<?xml version="1.0" encoding="UTF-8" standalone="no"?>
<svg
   xmlns:dc="http://purl.org/dc/elements/1.1/"
   xmlns:cc="http://creativecommons.org/ns#"
   xmlns:rdf="http://www.w3.org/1999/02/22-rdf-syntax-ns#"
   xmlns:svg="http://www.w3.org/2000/svg"
   xmlns="http://www.w3.org/2000/svg"
   xmlns:sodipodi="http://sodipodi.sourceforge.net/DTD/sodipodi-0.dtd"
   xmlns:inkscape="http://www.inkscape.org/namespaces/inkscape"
   width="61.437298"
   height="37.616379"
   viewBox="0 0 4.7369631 2.9003131"
   version="1.1"
   id="svg16"
   sodipodi:docname="usps-svg.svg"
   inkscape:version="0.92.4 (unknown)">
  <metadata
     id="metadata22">
    <rdf:RDF>
      <cc:Work
         rdf:about="">
        <dc:format>image/svg+xml</dc:format>
        <dc:type
           rdf:resource="http://purl.org/dc/dcmitype/StillImage" />
        <dc:title></dc:title>
      </cc:Work>
    </rdf:RDF>
  </metadata>
  <defs
     id="defs20" />
  <sodipodi:namedview
     pagecolor="#ffffff"
     bordercolor="#666666"
     borderopacity="1"
     objecttolerance="10"
     gridtolerance="10"
     guidetolerance="10"
     inkscape:pageopacity="0"
     inkscape:pageshadow="2"
     inkscape:window-width="1318"
     inkscape:window-height="858"
     id="namedview18"
     showgrid="false"
     fit-margin-top="0"
     fit-margin-left="0"
     fit-margin-right="0"
     fit-margin-bottom="0"
     inkscape:zoom="1"
     inkscape:cx="232.55878"
     inkscape:cy="-152.66304"
     inkscape:window-x="506"
     inkscape:window-y="33"
     inkscape:window-maximized="0"
     inkscape:current-layer="g14" />
  <g
     id="g14"
     style="clip-rule:evenodd;fill-rule:evenodd"
     transform="translate(-8.504,-81.707)">
    <path
       d="m 9.1234024,81.721604 h 0.021855 l 0.036558,0.0072 0.043711,0.0073 0.116529,0.02921 0.1603394,0.02901 0.087521,0.02206 0.094773,0.02176 0.1020254,0.0146 0.1019257,0.02921 0.1093766,0.01451 0.1092775,0.02921 0.349786,0.06547 0.109376,0.02921 0.116629,0.02185 0.101826,0.02186 0.109476,0.02185 0.101925,0.02185 0.102125,0.0146 0.08742,0.02196 0.08752,0.01451 0.07282,0.02176 0.06556,0.0147 0.05822,0.0072 0.05106,0.0073 0.03655,0.0073 0.02176,0.0072 h 0.0145 l 0.09487,0.02186 0.08742,0.0146 0.07292,0.02185 0.05822,0.01451 0.05842,0.02196 0.04371,0.0146 0.05822,0.0291 0.02186,0.0146 0.03646,0.03636 v 0.0073 l 0.0075,0.0072 v 0.0072 h 0.313128 l 0.0293,0.0073 h 0.0291 l 0.02185,0.0072 h 0.02185 l 0.02185,0.0073 0.05831,0.02901 0.0072,0.0147 0.05106,0.08007 0.0146,0.09467 -0.0146,0.116728 -0.03636,0.109277 -0.04381,0.109277 -0.04381,0.08752 -0.03636,0.05831 -0.01451,0.02185 -0.0146,0.0075 -0.03646,0.01431 -0.05106,0.02196 -0.07292,0.02911 -0.08017,0.02931 -0.101926,0.04361 -0.109376,0.04371 -0.123881,0.04381 -0.138484,0.05822 -0.145835,0.05106 -0.145538,0.05822 -0.320678,0.131331 -0.167691,0.06556 -0.16769,0.05841 -0.167492,0.07252 -0.174843,0.06576 -0.167691,0.05822 -0.160439,0.07301 -0.167492,0.05842 -0.1530875,0.05822 -0.2915714,0.116529 -0.1311325,0.05106 -0.1238805,0.04371 -0.109277,0.04361 -0.094674,0.03646 -0.080269,0.03646 -0.065467,0.02195 -0.051062,0.02196 -0.029207,0.0072 -0.00735,0.0072 H 12.628812 L 13.240963,81.707 H 9.1234024 Z"
       id="path4"
       style="fill:#000000;stroke-width:0.09934282"
       inkscape:connector-curvature="0" />
    <path
       d="m 11.943844,82.661684 -0.02195,0.0073 -0.145737,0.02901 h -0.03646 l -0.02921,0.0072 h -0.02901 l -0.04391,0.0075 -0.02176,0.0072 -0.0146,0.0072 -0.0073,0.0147 v 0.0144 l 0.0147,0.0146 h 0.02901 l 0.02921,0.0072 h 0.07292 l 0.04371,-0.0072 h 0.04371 l 0.102124,-0.0146 h 0.05106 l 0.05822,-0.0073 0.05097,-0.0071 0.04391,-0.0075 0.05086,-0.0072 h 0.196798 l 0.02176,0.0072 0.0147,0.0075 0.01451,0.02176 v 0.0291 l -0.0072,0.0291 -0.0072,0.03646 -0.0147,0.04371 -0.02176,0.05106 -0.0146,0.05106 -0.0072,0.0291 0.01451,0.0146 0.0146,-0.0073 0.02921,-0.02921 0.01451,-0.02176 0.02185,-0.03646 0.02195,-0.04371 0.02185,-0.05106 0.02176,-0.04361 0.0146,-0.04381 0.0072,-0.03646 v -0.04371 l -0.0145,-0.03646 -0.02185,-0.02185 -0.0291,-0.02186 -0.03646,-0.0146 -0.04381,-0.0072 -0.05086,-0.0073 h -0.306175 l -0.0072,0.0073 h -0.0073 l -0.0145,0.0072 -0.0147,0.02921 -0.0144,0.0072 -0.0146,0.0146 z"
       id="path6"
       style="fill:#000000;stroke-width:0.09934282"
       inkscape:connector-curvature="0" />
    <path
       d="M 8.9850179,82.377464 8.504,84.607313 l 0.021955,-0.0072 0.043711,-0.0291 0.072818,-0.0291 0.094872,-0.05106 0.1091778,-0.05097 0.1239798,-0.06556 0.1457359,-0.06567 0.1384839,-0.07292 0.1457359,-0.06556 0.1383845,-0.07292 0.1384839,-0.06567 0.1311327,-0.06556 0.1093766,-0.05842 0.094674,-0.04361 0.07292,-0.03626 0.05106,-0.02195 0.07282,-0.03646 0.06567,-0.03646 0.08007,-0.03656 0.08017,-0.04361 0.07292,-0.03646 0.08742,-0.03646 0.08017,-0.04371 0.08742,-0.03626 0.08752,-0.04391 0.437208,-0.182095 0.196798,-0.06567 0.0291,-0.0073 0.0291,-0.01431 0.03646,-0.0075 0.131132,-0.04371 0.153187,-0.04371 0.05096,-0.0073 0.152988,-0.04371 0.08752,-0.01451 0.0291,-0.0073 0.02185,-0.0073 h 0.02195 l 0.02176,-0.0072 0.0146,-0.0146 h 0.0073 v -0.0075 l -0.0147,-0.02901 -0.02185,-0.0072 -0.0291,-0.0073 h -0.0291 l -0.04361,-0.0072 h -0.04391 l -0.05097,0.0072 -0.08742,0.0073 -0.09477,0.01451 -0.102025,0.02176 -0.109376,0.02205 -0.109178,0.0291 -0.116628,0.03646 -0.109377,0.03646 -0.116529,0.03636 -0.109277,0.04391 -0.109476,0.03626 -0.101926,0.03646 -0.09467,0.03646 -0.08762,0.04371 -0.07282,0.02911 -0.06556,0.0293 -0.05106,0.0291 -0.276869,-0.86001 h 1.763633 l 0.0072,-0.03636 -0.02901,-0.03656 -0.04381,-0.02185 -0.06557,-0.02185 -0.07292,-0.02185 -0.189546,-0.0291 -0.305976,-0.02186 H 8.9850179 Z"
       id="path8"
       style="fill:#000000;stroke-width:0.09934282"
       inkscape:connector-curvature="0" />
  </g>
</svg>
