<svg xmlns="http://www.w3.org/2000/svg" viewBox="0 -189 669 1008"><path fill="currentColor" d="M669 297c0 13-6 20-19 20h-48v59h48c13 0 19 7 19 20v59c0 12-6 19-19 19h-48v58h48c13 0 19 6 19 21v59c0 13-6 20-19 20h-48v57h48c13 0 19 7 19 22v59c0 12-6 19-19 19h-48v18c0 21-10 32-31 32H32c-21 0-32-11-32-32V201c0-21 11-32 32-32h539c21 0 31 11 31 32v18h48c13 0 19 6 19 19v59zM441 663c13 0 20-8 20-21v-87c0-8-4-15-12-20l-108-51c28-17 41-44 41-82 0-55-34-95-81-95-46 0-80 40-80 95 0 39 15 66 43 82l-110 51c-7 4-10 11-10 20v87c0 13 6 21 17 21h280z"/></svg>
