<svg xmlns="http://www.w3.org/2000/svg" viewBox="0 -189 1008 1008"><path fill="currentColor" d="M673 574c0 47-17 88-51 122-33 33-75 51-122 51s-89-18-122-51c-33-34-51-75-51-122s18-89 51-122c33-34 75-51 122-51s89 17 122 51c34 33 51 75 51 122zm67-4l-4 4c0-43-10-83-31-118-22-36-49-65-85-87-35-22-75-31-118-31s-83 9-118 31c-36 22-63 49-85 85-21 35-31 75-31 118s10 83 31 118c22 35 51 63 87 85 35 21 75 31 118 31s83-10 118-31c36-22 65-51 87-87 21-35 31-75 31-118zm268-286v569c0 26-10 48-28 65-17 18-39 28-65 28H96c-25 0-47-10-64-28-18-17-28-39-28-65V286c0-25 10-47 28-65 17-17 39-27 64-27h174l23-65c7-18 20-34 36-45 16-12 33-18 53-18h248c20 0 37 6 53 18 16 11 29 25 36 43l23 65h173c26 0 48 10 65 28 18 17 28 39 28 64z"/></svg>
