<svg xmlns="http://www.w3.org/2000/svg" viewBox="0 -189 1134 1008"><path fill="currentColor" d="M565 578c0-10-6-16-20-16h-41v34h41c14 0 20-6 20-18zm-94 79V548l-50 53zm-130-16l37-40-35-39h-81v24h71v27h-71v28h79zm261-63h-2c0 21-10 35-27 41-10 4-28 6-53 6h-14v45h-65l-39-45-42 45H230V535h132l40 43 41-43h104c38 0 55 13 55 43zM59 377h45l-23-55zm291 57h-31V328l-47 106h-30l-47-106v106h-67l-12-29H47l-12 29H0l59-136h47l55 130V298h54l43 93 39-93h53v136zm58-106h76v-30H376v136h108v-27h-76v-28h74v-28h-74v-23zm194 14c0-10-7-14-21-14h-42v29h42c14 0 21-6 21-15zm10 27v-2l2 4c10 4 16 8 18 14s4 14 4 24v25h-32v-14c0-13-2-23-5-29-4-6-12-8-26-8h-36v49h-31V296h77c16 0 27 2 35 6 12 6 18 16 18 30 0 8-2 15-6 21s-10 12-18 16zm77 61V294h-33v136h33zm165-112l-23 55h45zm-49-26v30l-14 2c-17 0-29 2-35 4-10 6-16 18-16 35 0 14 2 24 6 30s12 10 26 10h14l47-109h47l55 130V294h51l57 95v-95h34v136h-47l-61-102v102h-67l-12-29h-69l-12 29h-37c-44 0-65-23-65-69 0-45 21-69 67-69h31zm160 345l-69-2v29h63c33 0 51-13 51-43 0-18-6-29-18-35-8-2-19-4-37-4-10 0-18 0-22-2s-6-6-6-12c0-8 6-12 18-12h61v-29h-65c-14 0-26 4-33 11-8 8-12 18-12 32 0 18 6 29 18 35 7 4 19 6 37 6 10 0 18 0 24 2 5 2 7 6 7 12 0 8-6 12-17 12zm-160-79h77v-27H774l-2 135h110v-27l-77-2v-28h75v-27h-75v-24zm266 2l65-2v-27h-65c-14 0-26 4-35 9-10 6-14 16-14 30 0 18 6 29 19 35 6 4 18 6 36 6 10 2 18 4 22 6s5 6 5 12c0 8-5 12-15 12h-63v29h63c21 0 35-6 43-17v-52c-6-5-14-9-24-11-5-2-13-2-25-2s-20 0-24-2-6-6-6-12c0-10 6-14 18-14zm-358 14c0-10-8-14-22-14h-39v32h39c14 0 22-6 22-18zm15 29l-2 2c8 2 14 6 18 12s7 14 6 24l-2 27h-31v-23c0-10-2-18-6-22s-12-6-24-6h-33l-2 49h-32V531h77c35 0 53 11 53 35 0 8-2 16-6 22s-10 11-16 15zm36-259l2 2c-2 1-2 5-2 13s0 12 2 14 4 2 8 2l14-33h-6c-10 0-16 0-18 2zm370-186v345l-22-2c-29 0-49 0-59 2s-17 4-25 8v-10h-44c-29 0-47 0-55 2-11 2-21 6-29 12v-12H744v10c-8-4-18-6-31-8-10-2-34-2-69-2h-47v12c-14-8-30-12-50-12H433l-29 35-32-35H209v183h161l32-35 31 35h97v-45c29 0 51-4 65-14v59h76l2-51h18v51h274c15 0 27-2 35-6l2-2v10h36c27 0 47 0 57-2 17-2 31-6 41-12v178c0 25-10 47-28 64-17 18-39 28-65 28H98c-25 0-47-10-65-28-17-17-27-39-27-64V450h53l12-30h37l14 30h104v-22l10 22h57l10-22v22h268v-49h20v49h130v-18c13 12 33 18 59 18h53l12-30h37l14 30h102v-43l28 43h80V269h-78v37l-22-37h-85v41l-17-41H782c-26 0-46 6-61 17v-17h-79v10c-8-4-18-6-32-8-10-2-31-2-65-2H287l-23 59-28-59h-90v41l-18-41H49L4 375V158c0-25 10-47 28-64 17-18 39-28 64-28h945c26 0 48 10 65 28 18 17 28 39 28 64z"/></svg>
