<svg xmlns="http://www.w3.org/2000/svg" viewBox="0 -189 1134 1008"><path fill="currentColor" d="M1018 493h39l-51-71c26-4 37-19 37-45 0-22-9-35-29-41-12-4-32-4-59-4h-16v161h32v-65h4zm41 355V562h-2c-33 22-86 50-159 85-99 47-197 88-296 126-129 49-252 84-364 106h790c8 0 15-4 21-10s10-14 10-21zM230 493V332h-31v161h31zm-43-83l-2 2c0-23-8-43-24-59-15-15-37-23-63-23H53v161h45c30 0 51-10 67-27 14-15 22-32 22-54zm116 56h-4c-15 0-27-6-35-20l-20 18c12 17 28 27 45 31 18 4 34 0 48-10 13-10 21-23 21-41 0-14-4-24-10-30-5-5-17-11-35-17-10-4-16-8-20-10s-6-6-6-12c0-10 6-16 18-18s24 2 34 12l15-22c-11-9-25-15-41-17s-29 2-41 10c-12 7-18 19-18 33 0 12 4 22 10 28s16 11 31 17c16 6 26 12 30 20s4 14-2 20-12 8-20 8zm69-52l-2-4c0 22 6 40 18 56 12 15 27 25 47 29s39 2 57-8v-37c-12 14-25 20-39 20s-26-6-36-16c-9-10-15-24-15-40 0-15 6-29 15-39 10-10 22-16 38-16s29 6 41 18v-37c-20-10-39-12-59-8s-35 14-47 29c-12 16-18 34-18 53zm138 2h-4c0 24 8 44 26 61 17 18 39 26 63 26 23 0 45-8 63-26 17-17 25-39 25-63 0-23-8-45-25-63-18-17-38-25-61-25-24 0-44 8-61 25-18 18-26 40-26 65zm197-82h-34l69 165h16l71-165h-36l-43 108zm136 0v161h88v-27h-57v-44h55v-27h-55v-36h57v-27h-88zm291-179v693c0 25-10 47-28 65-17 17-39 27-65 27H96c-25 0-47-10-64-27-18-18-28-40-28-65V155c0-26 10-48 28-65 17-18 39-28 64-28h945c26 0 48 10 65 28 18 17 28 39 28 65zM994 361l-10-2v50h10c20 0 30-8 30-24s-10-24-30-24zm-831 57v-2c0 18-5 32-17 42-10 8-24 12-44 12h-7V363h7c20 0 34 4 44 14 12 10 17 24 17 41z"/></svg>
