<svg xmlns="http://www.w3.org/2000/svg" viewBox="0 -189 1134 1008"><path fill="currentColor" d="M986 446l-2-2c0-49-11-95-35-136s-57-75-98-100c-42-26-87-38-136-38-55 0-107 16-152 46 45 37 77 84 95 141 17 57 17 115 2 172-16 57-48 104-95 141 45 30 97 46 152 46 49 0 94-12 135-36 42-23 75-57 99-98 24-42 35-87 35-136zm-8 169v-12h-3l-2 8-4-8h-2v12-10l4 8h2l4-8v10h1zm-11 240l4-5v-4l-6-4-6 2-2 2v6c0 1 0 1 2 1l2 2h6zm-12-250h4v10h2v-10h4v-2h-10v2zm-12 252V755l-16-2v37c-6-5-13-9-23-9s-18 4-26 9c-8 6-12 16-12 28s4 22 12 30c8 7 18 11 28 11 9 0 17-4 21-11v9h16zm-79-61l4-15-4 4c-4-2-10-2-15-2-6 0-10 2-12 7v-7h-16v72h16v-41c0-10 4-16 10-18 5-2 11-2 17 0zm-63 59v-72l-15-2v7c-6-5-14-9-24-9s-18 4-26 9c-8 6-11 16-11 28s3 22 11 30c8 7 16 11 26 11s18-4 24-11v9h15zm-130-41v4c0-10 4-18 12-22s18-2 28 4l8-13c-12-10-26-12-42-6-15 6-23 17-23 35 0 14 4 24 11 30 8 6 18 9 28 9s18-3 24-9l-8-12c-10 6-18 8-26 4s-12-12-12-24zm-23-18l4-15-2-2c-6-2-12-2-18 0s-10 6-12 11v-7h-16v72h16v-41c0-10 4-16 10-18s12-2 18 0zm-111 22l52 6c0-30-12-45-34-45-10 0-18 4-23 11-6 8-10 16-10 26 0 20 8 32 23 36 16 3 30 0 44-10l-8-12c-8 6-16 8-26 6s-16-8-18-18zm-25 24l-6-12c-6 2-12 4-18 4s-8-4-8-12v-34h26v-13h-26v-22h-15v22h-16v13h16v34c0 16 6 24 17 26 12 2 22 0 30-6zm-69-14l-2-4c0-8-4-14-10-18-4-2-10-4-20-6-9-2-13-6-13-10 0-3 4-5 12-5 7 0 15 2 23 5l6-11c-10-6-22-8-35-6-14 2-22 10-22 23 0 8 4 14 10 16 2 2 8 4 18 6 9 2 15 6 15 12s-4 8-14 8c-9 0-17-2-25-8l-6 12c10 8 24 10 39 8 16-2 24-10 24-22zm-79 27v-72l-16-6v8c-5-6-13-10-23-10s-18 4-24 12c-6 7-10 17-10 29s4 22 10 30c6 7 14 11 24 11s18-4 23-11v9h16zm-82-5v-46l-6 6c0-10-2-18-8-23-6-6-14-8-24-8s-18 4-23 13c-6-9-14-13-24-13s-18 4-24 9v-7h-15v72h15v-17c0-16 2-28 4-34s8-10 16-10 14 4 16 10 4 16 4 32v18h15l-2-18c0-16 2-28 4-34s8-10 16-10 14 4 16 10 4 16 4 32v18h16zm283-197h-4c45-34 77-77 93-130 15-53 15-107 0-160-16-53-46-98-91-134-45 36-75 81-90 134-16 53-16 107 0 160 15 53 47 96 92 130zM126 436l-2 4c0 49 12 95 35 136 24 41 58 75 99 98 41 24 87 36 136 36 55 0 106-16 151-46-47-37-78-84-94-141s-16-114 2-172c18-57 49-104 94-141-45-32-96-48-151-48-49 0-95 12-136 38-41 25-75 59-99 100-23 42-35 87-35 136zm1008-276v693c0 26-10 48-28 65-17 18-39 28-65 28H96c-25 0-47-10-64-28-18-17-28-39-28-65V160c0-25 10-47 28-65 17-17 39-27 64-27h945c26 0 48 10 65 27 18 18 28 40 28 65zM988 842l-2-2h2v-4h-6v6h2v-2l2 2h2zm0-8l2 4v4l-4 4-2-2-4-4 2-4 4-2h2zm-206-47c-6 0-12 1-16 5s-6 10-6 16 2 12 6 16 10 6 16 6 11-2 15-6 6-10 6-16-2-12-6-16-9-5-15-5zm-211-2c-12 0-18 5-20 17h38c-2-12-8-17-18-17zm-232 2c-6 0-12 1-16 5s-6 10-6 16 2 12 6 16 10 6 16 6 11-2 15-6 6-10 6-16-2-12-6-16-9-5-15-5zm612 21c0 6-2 12-6 16s-10 6-16 6-12-2-15-6c-4-4-6-10-6-16s2-12 6-16c3-4 9-5 15-5s12 1 16 5 6 10 6 16z"/></svg>
