<svg xmlns="http://www.w3.org/2000/svg" viewBox="0 -189 1134 1008"><path fill="currentColor" d="M890 487l-4-4c-12 0-22 4-30 12-7 8-11 18-11 30 0 11 4 19 9 25 6 6 14 8 26 8s22-4 30-12c7-8 11-17 11-27s-2-18-7-24c-6-6-14-8-24-8zm146 95l31-199v2c0-6-2-8-6-8h-37c-4 0-6 2-6 6l-32 207c0 4 2 6 6 6h34c2 0 4-2 6-4s4-6 4-10zm-59-134h-40c-6 0-10 6-12 16-8-14-23-20-47-20s-43 8-59 26c-16 17-24 39-24 65 0 17 6 33 18 45s28 18 47 18c10 0 20-2 30-6s18-10 24-16v12c0 6 1 8 5 8h34c6 0 10-4 12-12l19-126c0-2 0-4-2-6s-4-4-5-4zm-164-18h-4c0-18-6-31-18-41-11-10-27-14-47-14h-79c-5 0-9 4-11 10l-32 201c0 2 0 4 2 6s4 2 6 2h41c4 0 6-2 8-6l8-57c2-8 12-12 30-10h6c29 0 51-8 66-24 16-16 24-37 24-67zM498 641l128-183v-2c0-6-2-8-6-8h-37c-4 0-8 2-10 6l-51 77-22-75c-2-6-6-8-12-8h-35c-6 0-8 2-8 8l43 122-2 2c-25 37-39 57-39 61s2 6 6 6h39c2 0 4-2 6-6zm-83-195h2l-35 2c-6 0-10 6-12 16-10-14-25-20-47-20s-41 8-59 26c-18 17-26 39-26 65 0 17 6 33 18 45s28 18 45 18c10 0 20-2 30-6s17-10 23-16c-2 4-2 8-2 12s2 6 6 6h34c6 0 10-4 12-12l19-126c0-2 0-4-2-6s-4-4-6-4zm-161-20l-4 2c0-18-6-31-18-41-11-10-27-14-47-14h-79c-6 0-10 4-11 10L63 584c0 2 0 4 2 6s4 2 6 2h37c2 0 4-2 6-4s4-6 6-10l8-51c2-8 12-12 30-10h5c30 0 52-8 67-24 16-16 24-37 24-67zm882-266v693c0 26-10 48-28 65-17 18-39 28-65 28H98c-25 0-47-10-65-28-17-17-27-39-27-65V160c0-25 10-47 27-65 18-17 40-27 65-27h945c26 0 48 10 65 27 18 18 28 40 28 65zM721 414l-10 2c-4 0-6 2-6 4l-8 53h16c13 0 23-1 31-7s12-16 12-30c0-10-4-16-12-20-6-2-14-2-23-2zm-560-2l-9 2c-4 0-6 2-6 4l-10 54h18c11 0 21-2 29-6s12-12 14-24 0-20-6-24-16-6-30-6zm205 97l2-2c0 12-4 22-12 29-8 8-17 12-29 12s-20-2-26-8c-6-5-8-13-8-23s4-20 12-28 18-12 28-12 17 2 23 8 10 14 10 24z"/></svg>
