<svg xmlns="http://www.w3.org/2000/svg" viewBox="0 -189 1134 1008"><path fill="currentColor" d="M965 649h73l-63-305h-61c-22 0-35 8-42 25L754 649h83l15-46h103zm-203-95l-2-4c0-33-22-61-67-82-16-8-28-14-35-20-8-6-12-12-12-18s4-12 12-18c7-5 19-7 33-7 22-2 41 2 59 11l8 2 12-65c-22-9-45-13-71-13-39 0-71 9-97 29-25 20-37 45-37 77 0 31 23 60 71 83 13 6 24 11 29 17 6 6 10 12 10 18 0 10-4 18-13 24-10 6-22 8-36 8s-26-2-35-4c-10-2-22-6-36-12l-10-6-11 69c21 10 51 17 88 18 41 1 75-10 101-30 25-20 39-45 39-77zm-354 99h78l50-306h-79zm-191 0h84l124-306h-84l-77 209-36-183c-3-16-15-24-37-26H65l-2 6c30 8 57 20 83 34zm917-495v694c0 25-10 47-28 64-17 18-39 28-65 28H96c-25 0-47-10-64-28-18-17-28-39-28-64V158c0-25 10-47 28-64 17-18 39-28 64-28h945c26 0 48 10 65 28 18 17 28 39 28 64zM919 430l6 26c7 29 12 59 18 88h-65l32-84 4-10z"/></svg>
