<svg xmlns="http://www.w3.org/2000/svg" viewBox="0 -189 1008 1008"><path fill="currentColor" d="M728 472L461 206c-10-10-22-14-36-14s-23 4-31 14l-34 33c-10 10-15 22-15 34 0 11 5 21 15 31l199 201-199 201c-10 10-15 21-15 35s5 26 15 36l34 31c10 10 21 16 33 16s24-4 34-14l267-268c10-9 14-21 14-35s-4-26-14-35zM504 17c89 0 169 21 244 65 75 43 134 102 177 177 44 75 65 155 65 244s-21 169-65 244c-43 75-102 134-177 177-75 44-155 65-244 65s-169-21-244-65c-75-43-134-102-177-177-44-75-65-155-65-244s21-169 65-244c43-75 102-134 177-177 75-44 155-65 244-65z"/></svg>
