<svg xmlns="http://www.w3.org/2000/svg" viewBox="0 -189 1008 1008"><path fill="currentColor" d="M280 538l261 266c10 10 22 16 36 16s26-4 35-14l34-35c9-10 14-22 14-34s-6-23-16-33L445 503l201-201c10-10 14-21 14-35s-6-24-16-32l-32-35c-9-11-21-14-33-14s-22 4-32 14L280 468c-10 9-14 21-14 35s4 26 14 35zm224 455c-89 0-169-21-244-65-75-43-134-102-177-177-44-75-65-155-65-244s21-169 65-244c43-75 102-134 177-177 75-44 155-65 244-65s169 21 244 65c75 43 134 102 177 177 44 75 65 155 65 244s-21 169-65 244c-43 75-102 134-177 177-75 44-155 65-244 65z"/></svg>
