<svg xmlns="http://www.w3.org/2000/svg" viewBox="0 0 916.9 743.3"><path fill="none" d="M523.7 188.1C489.8 79.1 388.1 0 267.9 0 119.9 0 0 119.9 0 267.9s119.9 267.9 267.9 267.9c25.4 0 50-3.5 73.3-10.1-7.2-34.4-31-240.7 182.5-337.6zm-370.3 92.5c-1.6-.9-2.5-1.4-2.5-1.4h-26.4v-26.4h22.6v-18.9h-22.6v-26.4h26.4c16.6-60.4 77-120.7 173.6-83C320 147.2 317 166 317 166c-71.7-27.2-110.9 24.1-105.7 41.5h98.1v26.4H203.8v18.9h101.9v26.4h-94.3c-7.5 34 58.9 68.7 105.7 37.7 4.5 21.1 4.5 22.6 11.3 45.3-11.3 9.1-164.4 42.2-175-81.6zM649 207.5c-148 0-267.9 119.9-267.9 267.9S501 743.3 649 743.3s267.9-119.9 267.9-267.9S797 207.5 649 207.5zm0 464.1c-108.4 0-196.2-87.8-196.2-196.2S540.6 279.2 649 279.2 845.2 367 845.2 475.4 757.4 671.6 649 671.6zm2.9-218.6c-39.9-9.2-46.7-19.8-46.7-32.7 0-12.8 9.8-28.2 44.5-28.2s37.8 20.1 38.8 22.5c.9 2.5 5 5.6 6.8 5.6h36.5c2.1 0 5.7-1.1 6.8-4.5 1.1-3.4-5.5-31.3-25.1-48.4-6.9-6.1-25.1-18.7-46.7-18 .2-2.7-.5-27 0-29.3s-2.5-6.5-6.8-6.8c-4.6-.2-21.2 0-23.9 0-2.7 0-5.5 3.8-5.7 6.8-.2 2.9 0 25.5 0 29.3-43.4 2.3-70 33.1-70.2 66.5-.1 33.5 26.3 69.6 70.2 78.8 61.1 12.8 61.5 24.3 61.5 36.1 0 7.9-7.5 28.2-44.5 28.2-36.9 0-39.9-29.3-44.5-29.3s-36.2.2-38.8 0c-2.5-.2-5.7 1.4-5.7 7.9 0 16.5 21.4 55.9 71.8 64.2V631c0 3.6 3.2 6.8 8 6.8h21.7c3.2 0 6.8-6.1 6.8-7.9 0-1.8-.5-29.3 0-29.3 32.6 1.8 72.9-25.5 72.9-76.6 0-49.2-47.8-61.8-87.7-71z"/></svg>
