<svg xmlns="http://www.w3.org/2000/svg" viewBox="0 0 870 871"><path fill="none" d="M435.5 0c-194.4 2.7-312.1 127.2-317 134l.1.1c-.3.3-.4.2-.1-.1-34-34.9-62.5-63.2-67.9-69.8-5-6.1-19.1 2.7-19.4 7.8-.4 5.1-.4 192.9 0 198.3.4 5.4 9.7 9.7 11.7 9.7 1.9 0 180.7 1.7 196.4-1.9 15.2-3.5 5.8-17.5 5.8-17.5s-24.3-24.3-62.2-64.2c69-78.7 249.2-146.9 398.5-71.9C807 237.8 777.7 460.8 773.8 495.8c10.7 0 36 3.8 93.3 1.9C900.1 170.6 642.1-2.9 435.5 0zm392.4 591.3c-1.9 0-180.9-1.7-196.5 1.9-15.2 3.5-5.8 17.5-5.8 17.5s24.3 24.3 62.3 64.1c-69.1 78.7-249.4 146.8-398.9 71.9-226-113.2-196.6-336-192.7-371-10.7 0-36.1-3.8-93.4-1.9-33.1 326.8 225.2 500.1 432 497.2 194.6-2.7 312.4-127.1 317.3-133.9l-.1-.1c.3-.3.4-.2.1.1 34 34.9 62.6 63.2 68 69.8 5 6.1 19.1-2.7 19.5-7.8.4-5 .4-192.7 0-198.1s-9.8-9.7-11.8-9.7zM280 344.1c.4 47 20.2 102.3 124.4 124.4s105 42 105 62.2c0 13.6-12.8 48.6-75.8 48.6s-68-50.5-75.8-50.5c-7.8 0-61.8.4-66.1 0-4.3-.4-9.7 2.3-9.7 13.6 0 28.4 36.5 96.4 122.5 110.8v50.5c0 6.2 5.4 11.7 13.6 11.7H455c5.4 0 11.7-10.5 11.7-13.6s-.8-50.5 0-50.5c55.6 3.1 124.4-43.9 124.4-132.2 0-84.8-81.7-106.5-149.7-122.5-68-15.9-79.7-34.2-79.7-56.4s16.7-48.6 75.8-48.6c59.1 0 64.5 34.6 66.1 38.9 1.6 4.3 8.6 9.7 11.7 9.7h62.2c3.5 0 9.7-1.9 11.7-7.8 1.9-5.8-9.3-54-42.8-83.6-11.8-10.5-42.8-32.3-79.7-31.1.4-4.7-.8-46.7 0-50.5.8-3.9-4.3-11.3-11.7-11.7-7.8-.4-36.2 0-40.8 0s-9.3 6.6-9.7 11.7c-.4 5.1 0 43.9 0 50.5-100 5.5-124.9 83.7-124.5 126.4z"/></svg>
