<svg xmlns="http://www.w3.org/2000/svg" viewBox="0 -189 411 1008"><path fill="currentColor" d="M128 392c0 16 18 30 52 43v-90c-34 3-52 19-52 47zm177 220c0-20-18-35-57-47v98c39-8 57-24 57-51zm36-214l3 4c-28-24-58-40-93-48v101c32 8 58 16 77 25 20 9 41 26 58 46 16 21 27 47 27 79 0 86-58 146-163 157v55c0 8-4 12-12 12h-45c-8 0-12-4-12-12v-55c-71-7-129-32-175-78-3-3-4-6-4-10 0-3 1-5 2-6l43-63c1-4 4-5 9-5 3 0 5 0 6 1l2 2c36 36 74 57 116 62V551c-48-11-88-26-115-50-28-23-44-55-44-99 0-78 63-138 159-149v-57c0-8 4-12 12-12h45c8 0 12 4 12 12v59c63 5 113 27 152 65 5 5 5 10 0 15l-42 61h-2c-3 3-6 4-9 4s-6-1-7-2z"/></svg>
