<svg xmlns="http://www.w3.org/2000/svg" viewBox="0 -144 1008 1008"><path fill="currentColor" d="M721 576l-4 1c9 5 15 12 18 22s3 18 0 25-7 13-11 19-13 16-26 30-28 26-44 36-38 19-66 27-58 12-90 12-62-4-90-12-50-17-66-27-31-22-44-36c-17-17-28-31-33-42s-6-21-3-31 9-17 18-22 19-6 29-3 17 9 22 18c4 8 12 17 23 27s22 19 34 26 28 13 48 19 42 9 65 9 45-3 65-9 36-12 48-19 22-15 31-24c12-12 20-22 25-31s12-15 22-18 20-2 29 3zm-93-81v1c-21 0-39-9-54-26s-22-36-22-56 3-37 10-51c15-29 37-44 66-44 21 0 39 9 54 26s22 38 22 62-7 45-22 62-33 26-54 26zm-252-1v1c-21 0-39-9-54-26s-22-36-22-56 3-37 10-51c15-29 37-44 66-44 21 0 39 9 54 26s22 38 22 62-7 45-22 62-33 26-54 26zm127 396h-1c69 0 133-17 192-51s106-80 140-139 51-123 51-192c0-52-10-102-30-149s-47-88-81-122-75-61-122-81-97-30-149-30c-69 0-133 17-192 51s-105 80-139 139-51 123-51 192 17 133 51 192 80 105 139 139 123 51 192 51zm1-870l-1 3c66 0 129 13 189 39s111 60 154 103 77 94 103 154 39 119 39 178-8 113-24 162-39 93-69 133-65 75-105 105c-83 62-178 93-286 93-66 0-129-13-189-39s-111-60-154-103-77-94-103-154-39-123-39-189 13-129 39-189 60-111 103-154 94-77 154-103 123-39 189-39z"/></svg>
