<svg xmlns="http://www.w3.org/2000/svg" viewBox="0 -144 1008 1008"><path fill="currentColor" d="M352 621h302l-1 2c10 0 19 4 26 11s11 16 11 26-4 19-11 26-16 11-26 11H351c-10 0-19-4-26-11s-11-15-11-24 2-16 5-22c7-13 18-19 33-19zm25-127v1c-21 0-39-9-54-26s-22-36-22-56 3-37 10-51c15-29 37-44 66-44 21 0 39 9 54 26s22 38 22 62-7 45-22 62-33 26-54 26zm252-176c21 0 39 9 54 26s22 38 22 62-7 45-22 62-33 26-54 26-39-9-54-26-22-38-22-62 7-45 22-62 33-26 54-26zM503 890c69 0 133-17 192-51s105-80 139-139 51-123 51-192-17-133-51-192-80-105-139-139-123-51-192-51-133 17-192 51-105 80-139 139-51 123-51 192 17 133 51 192 80 105 139 139 123 51 192 51zm1-870l-1 3c66 0 129 13 189 39s111 60 154 103 77 94 103 154 39 119 39 178-8 113-24 162-39 93-69 133-65 75-105 105c-83 62-178 93-286 93-66 0-129-13-189-39s-111-60-154-103-77-94-103-154-39-123-39-189 13-129 39-189 60-111 103-154 94-77 154-103 123-39 189-39z"/></svg>
