<svg xmlns="http://www.w3.org/2000/svg" viewBox="0 -144 1008 1008"><path fill="currentColor" d="M502 567h1c32 0 62 4 90 12s50 17 66 27 31 22 44 36c17 17 28 31 33 42s6 21 3 31-9 17-18 22-19 6-29 3-17-9-22-18c-4-8-11-17-22-27s-22-19-34-26c-30-18-67-27-112-27-61 0-109 17-144 51-12 12-20 21-23 28-7 14-18 21-34 21-18 0-30-9-36-26-3-10-3-18 0-25s7-13 11-19 13-16 26-30 28-26 44-36 38-19 66-27 58-12 90-12zm-87-85l-1-2c-12 8-26 12-43 12s-33-9-48-26-22-38-22-62c0-29 10-53 31-71 13-11 29-17 48-17s36 9 51 26 22 36 22 56-3 37-10 51-16 25-28 33zm214 12c-21 0-39-9-54-26s-22-38-22-62 7-45 22-62 33-26 54-26 39 9 54 26 22 38 22 62-7 45-22 62-33 26-54 26zM503 890c69 0 133-17 192-51s105-80 139-139 51-123 51-192-17-133-51-192-80-105-139-139-123-51-192-51-133 17-192 51-105 80-139 139-51 123-51 192 17 133 51 192 80 105 139 139 123 51 192 51zm1-870l-1 3c66 0 129 13 189 39s111 60 154 103 77 94 103 154 39 119 39 178-8 113-24 162-39 93-69 133-65 75-105 105c-83 62-178 93-286 93-66 0-129-13-189-39s-111-60-154-103-77-94-103-154-39-123-39-189 13-129 39-189 60-111 103-154 94-77 154-103 123-39 189-39z"/></svg>
