<svg xmlns="http://www.w3.org/2000/svg" viewBox="-4 -189 557 1008"><path fill="currentColor" d="M555 652l-3 1c-50 88-125 132-227 132-67 0-126-19-174-53S68 649 49 590H8v2c-8 0-12-4-12-12v-42c0-8 4-11 12-11h29v-50H8c-8 0-12-4-12-11v-42c0-8 4-12 12-12h41c39-118 142-189 276-189 102 0 177 44 227 132 3 7 2 12-3 16h-2l-78 37c-7 3-12 1-15-3-29-54-71-79-127-79-68 0-117 28-148 86h197c8 0 12 4 12 12v42c0 7-4 11-12 11H159c-3 7-2 16-2 27v24h219c8 0 12 3 12 11v42c0 8-4 12-12 12H177c31 59 81 88 151 88 58 0 100-26 127-77l2-2c3-5 8-5 15-4l78 38h2c5 3 6 8 3 16z"/></svg>
