<svg xmlns="http://www.w3.org/2000/svg" viewBox="-1 -1 4643 1008"><path fill="currentColor" d="M859 269q27 45 32 96 1 18 2 20-62 38-76 85-8 25-8 57t15 61.5 32.5 46 32 29.5 14 18.5T889 715t-34.5 63.5-56 76.5-70.5 64q-106 70-231 77t-237-48.5-182-162-77.5-231T48 318t161.5-182.5T442 57t238.5 48T859 269zm704 437q-7 0-12.5-6.5T1539 680h-16q-30-1-25-6 16-70 17-138t-8-108.5-20-54.5q4 1 13.5-.5t17.5-.5 15-4q-5-4 11.5-13.5t23.5-9.5l2117 2q15-56 44-116.5t55-85.5q100-95 229.5-129t258.5 0 225 131q119 119 141 280 22 163-49 302-36 73-95 130-97 97-228 132t-261 0-223-134q-22-23-40-61.5t-25-65.5l-8-27zm-363-37q-44-22-67-57t-23-71.5 11.5-70.5 32.5-58 43-30l1-1q33 54 40 135.5T1200 669zm2634 137q80 81 188.5 110.5t217 1 189.5-109 110.5-189 1-217.5T4432 212q-60-60-137.5-91T4138 91.5 3980 123t-144 87q-20 17-37 45-43 69-57 154l-2141-1q-31 37-41.5 76.5T1554 551t20.5 55.5T1606 650l2164 1 3 27q4 26 20 65t41 63zM785 643q-39-57-40-127t48-121q19-20 24-20-44-117-147-184-63-41-133.5-53T391 142t-142 61q-88 59-134.5 152.5T74 553.5 139 747t152.5 135.5 198 40.5T683 859q37-25 86-90t52-79q1-3-18-24-8-9-18-23zm479 26q16-69 16.5-137.5t-8-108.5-19.5-54q3 0 15.5-3.5t19.5 3.5q35 47 34 157 0 69-14 137l-3 12h-16q-30-1-25-6zm76 0q16-69 16.5-137.5t-8-108.5-20.5-54q4 0 16.5-3.5t18.5 3.5q19 24 27.5 64.5t7.5 81.5q-2 83-13 137l-4 23h-17q-30-1-24-6zm79 0q16-69 16.5-137.5t-8-108.5-19.5-54q3 0 15.5-3.5t19.5 3.5q18 24 26.5 64.5t7.5 81.5q-2 83-12 137l-5 23h-16q-30-1-25-6z"/></svg>
