<svg xmlns="http://www.w3.org/2000/svg" viewBox="-6 -189 1008 1008"><path fill="currentColor" d="M63 883V631h378v315H126c-18 0-33-6-45-18s-18-25-18-43v-2zm882-565c18 0 32 6 43 18 12 11 18 27 18 45v157c0 10-4 18-10 24s-14 10-23 10H28c-10 0-18-2-24-8s-10-14-10-24V383c0-18 6-32 18-43 12-12 25-18 43-18h87c-14-26-20-51-20-79 0-47 18-88 51-122 34-33 75-51 122-51 40 0 75 12 107 33 29 20 61 54 96 101 36-47 67-81 97-101 31-21 67-33 106-33 47 0 88 18 122 51 33 34 51 75 51 122 0 26-6 51-20 77zm-650 2h170c-34-49-62-84-83-108-18-21-34-36-47-42-10-6-24-8-40-8-21 0-41 8-57 24s-23 35-23 57 7 41 23 57 34 24 55 24zm404 4c22 0 39-8 55-24s24-33 24-55-8-39-24-55-35-24-57-24c-16 0-30 2-39 8-14 6-29 20-48 42-21 24-49 59-82 108h171zM555 954V639h378v252c0 18-6 33-18 45-11 12-27 18-45 18H555z"/></svg>
