<svg xmlns="http://www.w3.org/2000/svg" viewBox="-2 -189 882 1008"><path fill="currentColor" d="M441 279c41 0 79 9 114 29 36 20 63 47 83 83 20 35 29 73 29 114s-9 79-29 114c-20 36-47 63-83 83-35 20-73 29-114 29s-79-9-114-29c-36-20-63-47-83-83-20-35-29-73-29-114s9-79 29-114c20-36 47-63 83-83 35-20 73-29 114-29zm0 374c41 0 77-14 106-44 30-29 44-65 44-106s-14-77-44-106c-29-30-65-44-106-44s-77 14-106 44c-30 29-44 65-44 106s14 77 44 106c29 30 65 44 106 44zm289-384c0-14-5-26-15-36s-22-15-36-15-25 5-35 15-16 22-16 36 6 25 16 35 21 16 35 16 26-6 36-16 15-21 17-35h-2zm152 53c2 37 2 98 2 183s-2 146-4 183-8 71-18 99c-12 33-29 63-53 86-23 24-53 41-86 53-28 10-61 16-99 18-37 2-98 4-183 4s-146 0-183-2-71-9-99-18c-33-10-63-27-86-51-24-24-41-51-53-85-10-27-16-59-18-96s-4-98-4-183 0-146 2-183c2-38 8-69 18-97 12-33 29-61 53-84 24-24 51-42 85-54 27-9 59-15 96-17s98-2 183-2 146 2 183 4c38 2 69 8 97 17 33 12 61 30 84 54 24 23 42 53 53 86 10 28 16 61 18 99zM776 779c8-22 13-57 15-107 2-29 2-71 2-124v-63c0-53 0-94-2-122-2-49-7-84-15-106-16-41-44-69-85-85-22-8-57-13-106-15-30-2-71-2-124-2h-63c-53 0-95 0-124 2-50 2-85 7-107 15-41 16-69 44-84 85-8 22-14 57-16 106-2 30-2 71-2 124v63c0 53 0 95 2 124 2 50 7 85 16 107 17 41 45 69 84 84 22 9 57 14 107 16 29 2 71 2 124 2h63c53 0 94-1 122-2 49-2 85-7 106-16 42-17 69-45 85-84z"/></svg>
