<svg xmlns="http://www.w3.org/2000/svg" viewBox="-1 -1 4643 1008"><path fill="currentColor" d="M3781 857q-38-41-66-133-3-10-6-21l-2147 3q-50-63-65-150-20-120 71-211l2117 2q15-56 44-116.5t55-85.5q100-95 229.5-129t258 0 225 131T4627 374t-1 259.5-132 226T4266 991t-261 0-224-134zM906 360q0 2 3.5.5t9.5-.5 13.5 1 15.5 1q23 0 18 5-16 69-16.5 137.5t8 109T977 667q-4 0-13.5 1t-21.5-1q-23 2-34-6-32 92-69.5 151T728 919q-106 70-230.5 77T261 947.5t-182.5-162-78-231 48-236.5T210 136t230.5-77.5T677 107t182 162q29 44 47 91zm357 12q44 22 66.5 57t22.5 71.5-11.5 70.5-32.5 58-42 30l-1 1q-34-55-40.5-136t38.5-152zm2571 434q80 81 188.5 110.5t217 1 189.5-109 110.5-189 1-217.5T4432 212q-60-60-137.5-91T4138 91.5 3980 123t-144 87q-20 17-37 45-43 69-57 154l-2141-1q-31 37-41.5 76.5T1554 551t20.5 55.5T1606 650l2164 1 3 27q4 26 20 65t41 63zM859 567q4-37-3-81t-15-70-9-26q-16-41-39-76-59-89-152.5-135.5t-198-40.5-193 65-135 152.5-40.5 198T139 747t152.5 135.5 198 40.5T683 859q67-45 113.5-121T859 567zm340-195q-16 69-16.5 137.5t8 109T1211 672q-4 0-16.5 3.5T1176 672q-18-24-26.5-64.5T1141 526q2-83 13-137l4-23h16q30 1 25 6zm-76 0q-16 69-16.5 137.5t8.5 109 20 53.5q-3 0-15.5 3.5T1100 672q-18-24-26.5-64.5T1066 526q2-83 12-137l5-23h16q30 1 24 6zm-78 0q-16 69-17 137.5t8 109 20 53.5q-3 0-15.5 3.5T1021 672q-18-24-26.5-64.5T987 526q2-83 13-137l4-23h16q30 1 25 6z"/></svg>
