<svg xmlns="http://www.w3.org/2000/svg" viewBox="-22 -189 1008 1008"><path fill="currentColor" d="M252 229c1 10 2 18 8 24s14 10 24 10h693c9 0 17-2 23-8s8-14 8-24v-78c0-10-4-18-10-24s-14-8-23-8H282c-10 0-18 4-24 10s-10 14-10 24zm28 351c-10 0-18-2-24-8s-10-14-10-24v-78c0-10 2-18 8-24s14-8 24-8h693c9 0 17 4 23 10s8 14 8 24v78c0 10-4 18-10 24s-14 10-23 10zm-4 319c-10 0-18-2-24-8s-10-14-10-24v-79c0-9 2-17 8-23s14-8 24-8h693c10 0 17 4 23 10s8 14 8 23v79c0 10-4 18-10 24s-13 10-23 10zM20 296c-10 0-18-2-24-8-6-5-10-13-10-23V139c0-10 2-18 8-24s14-8 24-8h126c10 0 17 4 23 10s8 14 8 24v126c0 10-4 17-10 23s-13 11-23 10zm-4 319c-10 0-18-2-24-8s-10-13-10-23V458c0-10 2-18 8-24s14-8 24-8h126c10 0 18 4 23 10 6 6 8 14 8 24v126c0 10-4 17-10 23-5 6-13 11-23 10zm-4 319c-10 0-18-2-24-8s-10-13-10-23V777c0-10 2-18 8-24s14-8 24-8h126c10 0 18 4 23 10 6 6 8 14 8 24v126c0 10-4 17-9 23-6 6-14 10-24 10z"/></svg>
