<svg xmlns="http://www.w3.org/2000/svg" viewBox="0 0 1561 1008"><path fill="currentColor" d="M1381 1008q-75 0-128-53t-53-128q0-23 5-46l-130-74q-10 10-25.5 12.5t-26.5-.5l-11-2-743-384-8.5 5.5L243 348q-25 14-62 14-75 1-128-52.5T0 181 53 52.5 182 0t128 53.5T362 181q0 2 666 351l77 40q11 8 14 16 8 23 2 36 83 47 132 74 53-54 128.5-53t127.5 53.5 52.5 128T1509 955t-128 53zM27 183q0 62 44 106t106 44 105.5-44T326 183 282.5 77.5 177 34 71 77.5 27 183zm327 24q-1 14-5 28-15 53-56 81l723 367q-6-21 5-53 4-9 18.5-23.5T1073 587zm688 235L595 188l-18 30-65-86 108 11-17 30 447 254z"/></svg>
