<svg xmlns="http://www.w3.org/2000/svg" viewBox="0 0 1518 1008"><path fill="currentColor" d="M51 50.5Q102-1 175 0t123 51.5T348 174q0 2 321 189l107 62q30 34-4 89-14 22-37.5 36.5T687 565L259 320q-1 0-9 5l-16 10q-24 12-60 13-72 0-123-51T0 174 51 50.5zM692 532q-4-20 0-38 11-43 54-55L340 198q-1 19-8 37-17 45-51 69zM26 176.5Q26 236 68 278t101.5 42T271 278t42-101.5T271 75 169.5 33 68 75 26 176.5zM635 261l430 243 16-29 63 84-104-12 17-28-430-244zm198 277q9-16 27.5-20t31.5 4q283 162 330 188 51-51 124-50t123 51 50 122.5-51 123.5-123 51-123-51-51-123q0-22 5-44L847 601q-36-23-14-63z"/></svg>
