<svg xmlns="http://www.w3.org/2000/svg" viewBox="0 0 717 462.8"><path clip-rule="evenodd" fill="none" d="M633.9 462.8c-45.9 0-83.1-37.3-83.1-83.2 0-7.2.9-14.2 2.6-20.9-20.4-11.8-59.7-34.3-59.7-34.3-10.3 10.3-29 4.8-29 4.8s-337.8-177.6-341-176.3c-3.2 1.3-15.2 12.9-40.6 13.5C37.2 166.5 0 129.2 0 83.2S37.2-.5 83.1 0c47.4.5 83.1 37.3 83.1 83.2 0 1.1 341 179.2 341 179.2s12.2 9 7.7 24.2c0 0 37.8 21.4 60.3 33.7 15-15 35.7-24.3 58.6-24 47.4.5 83.1 37.3 83.1 83.2.1 46-37.1 83.3-83 83.3z"/><ellipse clip-rule="evenodd" fill="none" cx="81.2" cy="84.2" rx="68.6" ry="68.7"/><path clip-rule="evenodd" fill="none" d="M162.4 94.9c-1.9 32.3-28 50.3-28 50.3s325.2 164.7 332.3 168.6c-6.8-35.5 26.1-44.5 26.1-44.5L162.4 94.9zM478.4 203L273 86.5l-7.9 13.8L235 60.4l49.7 5.4-7.9 13.8 205.5 116.6z"/></svg>
