<svg xmlns="http://www.w3.org/2000/svg" viewBox="0 -1 1282 1008"><path fill="currentColor" d="M1270 800.5q24 55.5 2 113t-78.5 82-114 2.5-82.5-79q-33-76 16-146l-77-96q-13 12-24 11L221 273q-1 0-4 2t-7 4.5-10.5 5.5-13.5 6q-16 5-37 6-62 0-105.5-43.5T0 148.5 43.5 43t106-43 105 44T297 149l691 420q15 33-2 55 59 64 88 99 57-25 114.5-1.5t81.5 79zM22 150q0 51 36 87t87 36 87-36 36-87-36-86.5T145 28 58 63.5 22 150zm268 19q-1 26-16.5 52T240 259l676 402q-4-18 0-33 10-37 46-47zm906 284l1 125h29l-36 82-35-82h28l-1-125h14z"/></svg>
