<svg xmlns="http://www.w3.org/2000/svg" viewBox="0 0 718 476.6"><path clip-rule="evenodd" fill="none" d="M82.2 0c46.8.5 82.2 36.8 82.2 82.3 0 1.1 202.7 118.7 202.7 118.7 19.1 23.4-11 66.5-42.1 66 0 0-199.5-117.1-202.7-115.8-3.2 1.3-15 12.8-40.2 13.4C36.8 164.6 0 127.8 0 82.3S36.8-.5 82.2 0z"/><path clip-rule="evenodd" fill="none" d="M327 251.7c-6.7-35.1 25.8-44 25.8-44L160.6 93.8c-1.9 31.9-27.7 49.8-27.7 49.8S320 247.9 327 251.7z"/><ellipse clip-rule="evenodd" fill="none" cx="80.3" cy="83.3" rx="67.9" ry="67.9"/><path clip-rule="evenodd" fill="none" d="M300.2 123.5l203.3 114.9 7.7-13.6 29.9 39.3-49.2-5.3 7.8-13.6-203.3-115zM393.9 254.6c6.2-11 19.3-12.6 27.7-7.7 0 0 133.9 76.7 156.2 88.9 14.9-14.9 35.4-24 58-23.8 46.8.5 82.2 36.8 82.2 82.3s-36.8 82.3-82.2 82.3c-45.4 0-82.2-36.8-82.2-82.3 0-7.1.9-14 2.6-20.6-20.2-11.7-155.6-89.5-155.6-89.5-13.9-9-12.1-20.1-6.7-29.6z"/></svg>
