<svg xmlns="http://www.w3.org/2000/svg" viewBox="0 0 713 560.5"><path clip-rule="evenodd" fill="none" d="M707.2 507.9c-16.5 42.5-64.4 63.5-106.9 47s-63.6-64.4-47-106.9c2.6-6.7 6-12.8 9.9-18.4-14.6-18.3-42.9-53.2-42.9-53.2-7.8 7.6-13 6.3-13 6.3s-381.2-232.3-384.4-231c-3.2 1.3-15.1 12.8-40.3 13.4C37 165.1 0 128.2 0 82.6S37-.5 82.6 0c47.1.5 82.6 37 82.6 82.6 0 1.1 384.4 233.9 384.4 233.9s8.1 18.1-1.5 30.4c0 0 32.8 35.7 49.2 55.2 19.3-8.5 41.8-9.6 62.9-1.1 43.7 17.5 63.6 64.4 47 106.9z"/><ellipse clip-rule="evenodd" fill="none" cx="80.7" cy="83.5" rx="68.2" ry="68.2"/><path clip-rule="evenodd" fill="none" d="M161.3 94.1c-1.9 32-27.9 49.9-27.9 49.9s368.7 219.5 375.8 223.3c-6.7-35.2 25.9-44.2 25.9-44.2l-373.8-229z"/></svg>
