<svg xmlns="http://www.w3.org/2000/svg" viewBox="0 0 711.1 503.3"><path clip-rule="evenodd" fill="none" d="M629.2 503.3c-45.2 0-81.9-36.8-81.9-82.1-6.3-3.3-3.2-2.2-4.8-2.9-1.6-.6-417.5-268.6-420.7-267.3-3.2 1.3-14.9 12.7-40 13.4C36.7 164.3 0 127.5 0 82.1S36.7-.5 81.9 0c46.7.5 81.9 36.8 81.9 82.1 0 1.1 420.7 270.2 420.7 270.2s1.2-.4 1.3-1.1c12.6-7.9 27.5-12.5 43.4-12.3 46.7.5 81.9 36.8 81.9 82.1 0 45.5-36.7 82.3-81.9 82.3z"/><ellipse clip-rule="evenodd" fill="none" cx="80" cy="83.1" rx="67.6" ry="67.8"/><path clip-rule="evenodd" fill="none" d="M160 93.6c-1.9 31.8-27.6 49.7-27.6 49.7S537.5 399.1 544.5 403c4.8-32.8 25.7-43.9 25.7-43.9L160 93.6z"/></svg>
