<svg xmlns="http://www.w3.org/2000/svg" viewBox="0 0 278 278"><path style="text-decoration-color:#000;isolation:auto;mix-blend-mode:normal;block-progression:tb;text-decoration-line:none;text-decoration-style:solid;text-indent:0;text-transform:none" d="M1 0a1 1 0 0 0-1 1v276a1 1 0 0 0 1 1h276a1 1 0 0 0 1-1V1a1 1 0 0 0-1-1H1zm1 2h274v274H2V2z" color="#000" white-space="normal"/><path d="M91.76 87.3V40.548l38.164 35.498V41.013h4.93v46.814L96.688 52.329V87.3H91.76zM188.52 55.03q1.922 4.371 1.922 9.177t-1.922 9.176q-1.891 4.34-5.146 7.472-3.225 3.131-7.689 4.991-4.433 1.86-9.3 1.86-4.9 0-9.394-1.86-4.465-1.86-7.72-4.991-3.224-3.131-5.146-7.472-1.923-4.37-1.923-9.176t1.923-9.177 5.146-7.534q3.255-3.162 7.72-5.022 4.495-1.86 9.393-1.86 4.868 0 9.301 1.86 4.464 1.86 7.689 5.022 3.255 3.163 5.146 7.534zm-41.357 9.177q0 3.813 1.488 7.285 1.52 3.473 4.061 6.015 2.574 2.511 6.139 4 3.596 1.487 7.533 1.487 5.209 0 9.611-2.511 4.434-2.542 7.007-6.852 2.573-4.34 2.573-9.424 0-5.116-2.573-9.456t-7.007-6.851q-4.402-2.512-9.61-2.512-3.938 0-7.503 1.488t-6.139 4-4.092 6.014q-1.488 3.473-1.488 7.317zM49.38 157.14h-4.93v-46.287h4.93v46.287zM59.21 157.14h-4.774l9.548-46.69 16.958 34.909L98.21 110.45l9.301 46.69h-4.991l-6.263-30.258-15.47 30.723-15.067-30.723-6.51 30.258zM122.27 138.6h15.036l-7.565-15.873-7.471 15.873zm-2.263 4.774l-5.736 13.703h-5.27l20.679-46.69 20.679 46.69h-5.301l-5.829-13.703h-19.22zM197.73 120.78l-3.906 2.914q-.837-1.054-1.364-1.674-.527-.62-2.17-2.077-1.613-1.457-3.194-2.325-1.58-.9-4.123-1.643-2.511-.744-5.24-.744-3.937 0-7.502 1.488t-6.139 3.999-4.092 6.014q-1.488 3.473-1.488 7.317 0 3.813 1.488 7.286 1.52 3.472 4.061 6.014 2.574 2.511 6.139 4 3.596 1.488 7.534 1.488 7.285 0 12.68-4.713 5.425-4.743 6.324-11.719h-20.121V131.6h25.174v2.449q0 4.805-1.922 9.177-1.891 4.34-5.147 7.471-3.224 3.131-7.688 4.992-4.433 1.86-9.3 1.86-4.9 0-9.395-1.86-4.464-1.86-7.72-4.992-3.223-3.131-5.146-7.471-1.922-4.372-1.922-9.177t1.922-9.177 5.147-7.533q3.255-3.163 7.72-5.023 4.495-1.86 9.393-1.86 3.38 0 6.542.93 3.162.9 5.177 2.046 2.046 1.148 3.937 2.79 1.923 1.644 2.667 2.512.775.868 1.488 1.798.124.186.186.248zM235.8 128.06v4.774h-21.733v19.532h23.531v4.775h-28.46v-46.287h28.615v4.774h-23.686v12.432H235.8zM57.97 197.9v4.774H36.237v24.306h-4.93v-46.287h28.616v4.775H36.237V197.9H57.97zM112.19 194.71q1.922 4.371 1.922 9.177t-1.922 9.176q-1.891 4.34-5.146 7.472-3.225 3.131-7.689 4.991-4.433 1.86-9.3 1.86-4.9 0-9.394-1.86-4.465-1.86-7.72-4.991-3.224-3.131-5.146-7.472-1.923-4.37-1.923-9.176t1.923-9.177 5.146-7.534q3.255-3.162 7.72-5.022 4.495-1.86 9.393-1.86 4.868 0 9.301 1.86 4.464 1.86 7.689 5.022 3.255 3.163 5.146 7.534zm-41.357 9.177q0 3.813 1.488 7.285 1.52 3.473 4.061 6.015 2.574 2.511 6.139 4 3.596 1.487 7.533 1.487 5.209 0 9.611-2.511 4.434-2.542 7.007-6.851 2.573-4.34 2.573-9.425 0-5.116-2.573-9.456t-7.007-6.851q-4.402-2.512-9.61-2.512-3.938 0-7.503 1.489t-6.139 3.999-4.092 6.014q-1.488 3.473-1.488 7.317zM121.46 180.7h4.93v28.46q0 5.673 3.689 9.61 3.72 3.907 8.742 3.907 3.256 0 6.046-1.736 2.79-1.767 4.464-4.898 1.705-3.132 1.705-6.883V180.7h4.93v28.46q0 4.93-2.294 9.146t-6.294 6.696q-3.968 2.45-8.712 2.45-3.534 0-6.758-1.458-3.193-1.457-5.488-3.906-2.263-2.48-3.627-5.86-1.333-3.379-1.333-7.068V180.7zM164.62 226.99v-46.752l38.164 35.498v-35.033h4.93v46.814l-38.165-35.498v34.971h-4.929zM221.38 222.21h5.332q5.27 0 9.673-2.387 4.403-2.418 6.976-6.635t2.573-9.3q0-5.116-2.573-9.332-2.573-4.247-6.976-6.666t-9.673-2.418h-5.332v36.738zm-4.93 4.774v-46.287h10.263q6.541 0 12.06 3.07 5.549 3.038 8.773 8.37 3.256 5.333 3.256 11.75 0 6.387-3.256 11.72-3.224 5.3-8.773 8.339-5.519 3.038-12.06 3.038H216.45z"/></svg>
