<svg xmlns="http://www.w3.org/2000/svg" viewBox="0 0 502.34067 128.16592"><path d="M387.94 29.422h-27.2c-1.6 0-3.2 1.6-4 3.2l-11.2 70.4c0 1.6.8 2.4 2.4 2.4h14.4c1.6 0 2.4-.8 2.4-2.4l3.2-20c0-1.6 1.6-3.2 4-3.2h8.8c18.4 0 28.8-8.8 31.2-26.4 1.6-7.2 0-13.6-3.2-17.6-4.8-4-12-6.4-20.8-6.4m3.2 26.4c-1.6 9.6-8.8 9.6-16 9.6h-4.8l3.2-18.4c0-.8.8-1.6 2.4-1.6h1.6c4.8 0 9.6 0 12 3.2 1.6.8 1.6 3.2 1.6 7.2M191.94 29.422h-27.2c-1.6 0-3.2 1.6-4 3.2l-11.2 70.4c0 1.6.8 2.4 2.4 2.4h12.8c1.6 0 3.2-1.6 4-3.2l3.2-19.2c0-1.6 1.6-3.2 4-3.2h8.8c18.4 0 28.8-8.8 31.2-26.4 1.6-7.2 0-13.6-3.2-17.6-4.8-4-11.2-6.4-20.8-6.4m3.2 26.4c-1.6 9.6-8.8 9.6-16 9.6h-4l3.2-18.4c0-.8.8-1.6 2.4-1.6h1.6c4.8 0 9.6 0 12 3.2.8.8 1.6 3.2.8 7.2M274.34 55.022h-12.8c-.8 0-2.4.8-2.4 1.6l-.8 4-.8-1.6c-3.2-4-8.8-5.6-15.2-5.6-14.4 0-27.2 11.2-29.6 26.4-1.6 8 .8 15.2 4.8 20 4 4.8 9.6 6.4 16.8 6.4 12 0 18.4-7.2 18.4-7.2l-.8 4c0 1.6.8 2.4 2.4 2.4h12c1.6 0 3.2-1.6 4-3.2l7.2-44.8c-.8-.8-2.4-2.4-3.2-2.4m-18.4 25.6c-1.6 7.2-7.2 12.8-15.2 12.8-4 0-7.2-1.6-8.8-3.2-1.6-2.4-2.4-5.6-2.4-9.6.8-7.2 7.2-12.8 14.4-12.8 4 0 6.4 1.6 8.8 3.2 2.4 2.4 3.2 6.4 3.2 9.6M469.54 55.022h-12.8c-.8 0-2.4.8-2.4 1.6l-.8 4-.8-1.6c-3.2-4-8.8-5.6-15.2-5.6-14.4 0-27.2 11.2-29.6 26.4-1.6 8 .8 15.2 4.8 20 4 4.8 9.6 6.4 16.8 6.4 12 0 18.4-7.2 18.4-7.2l-.8 4c0 1.6.8 2.4 2.4 2.4h12c1.6 0 3.2-1.6 4-3.2l7.2-44.8c-.8-.8-1.6-2.4-3.2-2.4m-18.4 25.6c-1.6 7.2-7.2 12.8-15.2 12.8-4 0-7.2-1.6-8.8-3.2-1.6-2.4-2.4-5.6-2.4-9.6.8-7.2 7.2-12.8 14.4-12.8 4 0 6.4 1.6 8.8 3.2 3.2 2.4 4 6.4 3.2 9.6M343.94 55.022h-13.6c-1.6 0-2.4.8-3.2 1.6l-17.6 27.2-8-25.6c-.8-1.6-1.6-2.4-4-2.4h-12.8c-1.6 0-2.4 1.6-2.4 3.2l14.4 42.4-13.6 19.2c-.8 1.6 0 4 1.6 4h12.8c1.6 0 2.4-.8 3.2-1.6l44-63.2c2.4-2.4.8-4.8-.8-4.8M484.74 31.822l-11.2 72c0 1.6.8 2.4 2.4 2.4h11.2c1.6 0 3.2-1.6 4-3.2l11.2-70.4c0-1.6-.8-2.4-2.4-2.4h-12.8c-.8-.8-1.6 0-2.4 1.6"/><path d="M124.817 41.61c0-8.457-2.855-14.99-7.223-19.725l-.046-.049c.509 2.49.755 5.062.755 7.682 0 3.47-.423 6.936-1.148 10.327-2.547 11.924-8.541 22.625-18.082 30.333-9.539 7.707-21.398 11.421-33.6 11.421H43.896l-8.384 39.312H12.931l-1.58 7.255h31.598l8.166-38.29.218-1.022h25.491c11.615 0 22.25-3.634 30.56-10.347 8.018-6.477 13.885-15.837 16.392-27.581.711-3.326 1.041-6.43 1.041-9.317z" class="fil0" clip-rule="evenodd" fill-rule="evenodd" image-rendering="optimizeQuality" shape-rendering="geometricPrecision" text-rendering="geometricPrecision"/><path d="M82.79 39.434zM44.656 55.05l7.335-32.457.228-1.007h17.795c1.354 0 2.647.174 3.86.502 2.854.774 5.24 2.404 6.915 4.64 1.669 2.229 2.623 5.043 2.623 8.193 0 1.44-.2 2.952-.624 4.513-1.12 4.771-3.976 9.056-7.702 12.147-3.76 3.12-8.424 5.04-13.104 5.04H44.301l.356-1.571zm68.81-25.532c0-8.456-2.855-14.988-7.224-19.724-4.382-4.75-10.3-7.72-16.398-9.024a34.777 34.777 0 0 0-7.25-.77H25.289L0 116.075h31.599l8.165-38.29.218-1.022h25.492c11.615 0 22.25-3.634 30.56-10.347 8.017-6.477 13.885-15.837 16.392-27.581.711-3.326 1.04-6.43 1.04-9.317z" class="fil1" clip-rule="evenodd" fill-rule="evenodd" image-rendering="optimizeQuality" shape-rendering="geometricPrecision" text-rendering="geometricPrecision"/></svg>
