<svg xmlns="http://www.w3.org/2000/svg" viewBox="0 0 124.81696 128.16592"><path class="fil0" d="M124.817 41.61c0-8.457-2.855-14.99-7.223-19.725l-.046-.049c.509 2.49.755 5.062.755 7.682 0 3.47-.423 6.936-1.148 10.327-2.547 11.924-8.541 22.625-18.082 30.333-9.539 7.707-21.398 11.421-33.6 11.421H43.896l-8.384 39.312H12.931l-1.58 7.255h31.598l8.166-38.29.218-1.022h25.491c11.615 0 22.25-3.634 30.56-10.347 8.018-6.477 13.885-15.837 16.392-27.581.711-3.326 1.041-6.43 1.041-9.317z" clip-rule="evenodd" fill-rule="evenodd" image-rendering="optimizeQuality" shape-rendering="geometricPrecision" text-rendering="geometricPrecision"/><path class="fil1" d="M82.79 39.434zM44.656 55.05l7.335-32.457.228-1.007h17.795c1.354 0 2.647.174 3.86.502 2.854.774 5.24 2.404 6.915 4.64 1.669 2.229 2.623 5.043 2.623 8.193 0 1.44-.2 2.952-.624 4.513-1.12 4.771-3.976 9.056-7.702 12.147-3.76 3.12-8.424 5.04-13.104 5.04H44.301l.356-1.571zm68.81-25.532c0-8.456-2.855-14.988-7.224-19.724-4.382-4.75-10.3-7.72-16.398-9.024a34.777 34.777 0 0 0-7.25-.77H25.289L0 116.075h31.599l8.165-38.29.218-1.022h25.492c11.615 0 22.25-3.634 30.56-10.347 8.017-6.477 13.885-15.837 16.392-27.581.711-3.326 1.04-6.43 1.04-9.317z" clip-rule="evenodd" fill-rule="evenodd" image-rendering="optimizeQuality" shape-rendering="geometricPrecision" text-rendering="geometricPrecision"/></svg>
