<svg xmlns="http://www.w3.org/2000/svg" viewBox="0 0 352.79999 95.199994"><path d="M238.4 0h-27.2c-1.6 0-3.2 1.6-4 3.2L196 73.6c0 1.6.8 2.4 2.4 2.4h14.4c1.6 0 2.4-.8 2.4-2.4l3.2-20c0-1.6 1.6-3.2 4-3.2h8.8c18.4 0 28.8-8.8 31.2-26.4 1.6-7.2 0-13.6-3.2-17.6-4.8-4-12-6.4-20.8-6.4m3.2 26.4c-1.6 9.6-8.8 9.6-16 9.6h-4.8l3.2-18.4c0-.8.8-1.6 2.4-1.6h1.6c4.8 0 9.6 0 12 3.2 1.6.8 1.6 3.2 1.6 7.2M42.4 0H15.2c-1.6 0-3.2 1.6-4 3.2L0 73.6C0 75.2.8 76 2.4 76h12.8c1.6 0 3.2-1.6 4-3.2l3.2-19.2c0-1.6 1.6-3.2 4-3.2h8.8c18.4 0 28.8-8.8 31.2-26.4 1.6-7.2 0-13.6-3.2-17.6C58.4 2.4 52 0 42.4 0m3.2 26.4C44 36 36.8 36 29.6 36h-4l3.2-18.4c0-.8.8-1.6 2.4-1.6h1.6c4.8 0 9.6 0 12 3.2.8.8 1.6 3.2.8 7.2M124.8 25.6H112c-.8 0-2.4.8-2.4 1.6l-.8 4-.8-1.6c-3.2-4-8.8-5.6-15.2-5.6-14.4 0-27.2 11.2-29.6 26.4-1.6 8 .8 15.2 4.8 20 4 4.8 9.6 6.4 16.8 6.4 12 0 18.4-7.2 18.4-7.2l-.8 4c0 1.6.8 2.4 2.4 2.4h12c1.6 0 3.2-1.6 4-3.2L128 28c-.8-.8-2.4-2.4-3.2-2.4m-18.4 25.6C104.8 58.4 99.2 64 91.2 64c-4 0-7.2-1.6-8.8-3.2-1.6-2.4-2.4-5.6-2.4-9.6.8-7.2 7.2-12.8 14.4-12.8 4 0 6.4 1.6 8.8 3.2 2.4 2.4 3.2 6.4 3.2 9.6M320 25.6h-12.8c-.8 0-2.4.8-2.4 1.6l-.8 4-.8-1.6c-3.2-4-8.8-5.6-15.2-5.6-14.4 0-27.2 11.2-29.6 26.4-1.6 8 .8 15.2 4.8 20 4 4.8 9.6 6.4 16.8 6.4 12 0 18.4-7.2 18.4-7.2l-.8 4c0 1.6.8 2.4 2.4 2.4h12c1.6 0 3.2-1.6 4-3.2l7.2-44.8c-.8-.8-1.6-2.4-3.2-2.4m-18.4 25.6C300 58.4 294.4 64 286.4 64c-4 0-7.2-1.6-8.8-3.2-1.6-2.4-2.4-5.6-2.4-9.6.8-7.2 7.2-12.8 14.4-12.8 4 0 6.4 1.6 8.8 3.2 3.2 2.4 4 6.4 3.2 9.6M194.4 25.6h-13.6c-1.6 0-2.4.8-3.2 1.6L160 54.4l-8-25.6c-.8-1.6-1.6-2.4-4-2.4h-12.8c-1.6 0-2.4 1.6-2.4 3.2L147.2 72l-13.6 19.2c-.8 1.6 0 4 1.6 4H148c1.6 0 2.4-.8 3.2-1.6l44-63.2c2.4-2.4.8-4.8-.8-4.8M335.2 2.4l-11.2 72c0 1.6.8 2.4 2.4 2.4h11.2c1.6 0 3.2-1.6 4-3.2l11.2-70.4c0-1.6-.8-2.4-2.4-2.4h-12.8c-.8-.8-1.6 0-2.4 1.6"/></svg>
