<svg xmlns="http://www.w3.org/2000/svg" viewBox="0 -189 882 1008"><path fill="currentColor" d="M882 158l-14 684c0 25-10 47-27 65-18 17-40 27-65 27H291c30-47 48-86 56-116l29-116c8 16 22 29 43 41 22 12 44 19 67 18 50-1 93-16 130-41 38-26 67-61 89-107 21-45 33-94 33-147 0-54-13-103-39-146s-61-77-106-100c-46-24-97-36-152-36-67 0-126 14-175 41-46 26-81 61-107 107-25 45-37 94-37 147 0 38 10 75 28 113 17 37 41 63 71 76 9 5 15 2 17-7l14-54c2-6 0-9-4-13-10-14-18-32-24-52-5-19-9-39-9-59 0-37 9-73 27-104 18-32 44-56 75-75 34-20 73-31 118-31 59 0 108 17 146 55 37 37 57 84 57 142 0 65-14 118-43 159-30 41-65 61-109 61-23 0-43-8-57-26-14-17-18-37-12-61 2-13 9-35 18-63 15-46 22-80 22-98 0-26-8-43-22-55s-31-16-51-12-37 16-51 34c-14 21-22 49-22 82 0 30 4 53 14 73l-28 112c-20 81-30 132-33 156-3 27-4 65 2 110l6 2H96c-25 0-47-10-64-28-18-17-28-39-28-64V158c0-25 10-47 28-64 17-18 39-28 64-28h693c26 0 48 10 65 28 18 17 29 39 28 64z"/></svg>
