<svg xmlns="http://www.w3.org/2000/svg" viewBox="0 -189 435 1008"><path fill="currentColor" d="M433 730v-1c1 1 2 2 2 3 0 4-1 7-4 10-25 27-65 40-120 40-24 0-54-9-81-18s-52-18-67-18c-27 0-58 11-94 32h-4c-4 0-7-2-10-6h-2l-27-59v-4c0-5 2-8 6-9v-2c59-28 88-62 88-101 0-13-3-27-10-43H12c-8 0-12-3-12-10v-43c0-8 4-12 12-12h55c-27-35-37-69-37-98 0-48 24-90 60-121 36-29 85-47 136-47 94 0 156 32 190 99 1 1 2 3 2 6 0 4-2 7-6 10l-72 43h-4c-5 0-9-2-12-6-16-39-44-57-83-57-47 0-84 28-84 75 0 21 14 53 39 96h118c7 0 10 3 10 10v43c0 8-3 12-10 12h-92c0 3 1 14 1 17 0 39-17 69-53 90 16-5 29-7 40-7 16 0 35 6 55 13 19 8 38 14 51 14 32 0 55-10 68-29 8-8 15-7 20 4l29 72v2z"/></svg>
