<svg xmlns="http://www.w3.org/2000/svg" viewBox="0 -189 1008 1008"><path fill="currentColor" d="M510 676l-4 4c-26 0-47 8-65 26s-26 39-26 65c0 25 10 47 28 65 18 17 39 25 65 25s47-9 65-27 27-40 27-65c0-26-7-47-25-65s-39-28-65-28zm8-498l6 10c-53 0-99 12-136 33-35 21-67 52-95 93-4 6-6 12-4 18s7 9 12 14l69 51c4 4 10 6 16 6s12-4 16-10c21-26 37-44 49-53 17-14 39-20 63-20 22 0 43 6 63 18 20 11 29 27 29 45 0 14-5 26-17 35-8 7-24 16-46 30l-4 2c-33 17-57 33-70 47-24 25-36 55-36 89v8c0 5 2 11 6 15s10 6 16 6h110c6 0 12-2 16-6s6-10 6-15v-2c0-10 6-20 15-28 6-6 19-13 36-24 34-20 57-39 71-55 25-28 37-63 37-104 0-37-12-71-33-102-22-32-51-56-87-73-35-18-71-28-108-28zm474 327c0 89-21 169-65 244-43 75-102 134-177 177-75 44-155 65-244 65s-169-21-244-65c-75-43-134-102-177-177-44-75-65-155-65-244s21-169 65-244c43-75 102-134 177-177 75-44 155-65 244-65s169 21 244 65c75 43 134 102 177 177 44 75 65 155 65 244z"/></svg>
