<svg xmlns="http://www.w3.org/2000/svg" viewBox="0 -189 1008 1008"><path fill="currentColor" d="M923 503l55 87h-1c78 126-12 289-160 289H628v95c0 27-33 41-53 21L417 838c-11-12-11-32 0-44l158-157c20-20 53-6 53 22v94h189c49 0 79-55 53-96l-55-87c-8-12-4-26 8-34l67-41c12-7 26-4 33 8zM640 283l-81-130h-2c-23-40-81-42-106-2l-36 57c-7 12-21 15-33 8l-67-42c-12-7-15-21-8-33l36-57c73-119 249-119 322 0l81 130 81-50c24-14 53 6 47 34l-49 216c-4 18-22 28-39 24l-217-49c-28-6-34-42-10-57zm-325 17l49 217v-4c6 27-24 50-47 35l-81-49-100 160c-26 41 4 96 53 96h102c14 0 24 10 24 24v78c0 14-10 24-24 24H189C41 881-50 717 30 592l100-160-81-49c-24-15-17-51 10-57l217-49c17-4 35 6 39 23z"/></svg>
