<svg xmlns="http://www.w3.org/2000/svg" viewBox="0 -144 864 1008"><path fill="currentColor" d="M864 234v540c0 89-73 162-162 162H162C73 936 0 863 0 774V234C0 145 73 72 162 72h540c89 0 162 73 162 162zM701 773c-10-292-246-529-538-538-6-1-10 1-13 5-4 3-6 7-6 13v72c0 9 8 17 17 18 234 8 424 198 432 432 1 9 9 17 18 17h72c6 0 10-2 13-6 4-3 6-7 5-13zm-216 0c-9-174-148-313-322-322-5-1-10 1-13 5-4 3-6 7-6 13v72c0 9 7 17 17 18 115 8 208 101 216 216 1 10 9 17 18 17h72c6 0 10-2 13-6 4-3 6-8 5-13zm-197-53c0-40-32-72-72-72s-72 32-72 72 32 72 72 72 72-32 72-72z"/></svg>
