<svg xmlns="http://www.w3.org/2000/svg" viewBox="-12 -196 1260 1008"><path fill="currentColor" d="M1229 694c9 0 17 4 23 10s8 14 8 23v63c0 10-4 18-10 24s-14 10-23 10h-95c0 53-18 98-55 136-37 37-83 55-136 55s-98-18-136-55c-37-38-55-83-55-136H498c0 53-18 98-55 136-37 37-83 55-136 55s-98-18-136-55c-37-38-55-83-55-136V572h299c4 0 8-2 12-6s6-8 6-12v-31c0-4-2-8-6-12s-8-6-12-6H6c-4 0-8-2-12-6s-6-8-6-12v-31c0-4 2-8 6-12s8-6 12-6h472c4 0 8-2 12-6s6-8 6-12v-31c0-4-2-8-6-12s-8-6-12-6H69c-4 0-8-2-12-6s-6-8-6-12v-31c0-4 2-8 6-12s8-6 12-6h472c4 0 8-2 12-6s6-8 6-12v-31c0-4-2-8-6-12s-8-6-12-6H6c-4 0-8-2-12-6s-6-8-6-11v-32c0-4 2-8 6-12s8-6 12-6h110V76c0-26 10-47 28-65 17-18 39-28 65-28h504c25 0 47 10 65 28 17 18 27 39 27 65v94h87c25 0 47 10 65 28l197 197c17 17 27 39 27 65v212zM299 893c26 0 48-10 65-28 18-17 28-39 28-65 0-25-10-47-28-65-17-17-39-27-65-27-25 0-47 10-65 27-17 18-27 40-27 65 0 26 10 48 27 65 18 18 40 28 65 28zm630 0c26 0 48-10 65-28 18-17 28-39 28-65 0-25-10-47-28-65-17-17-39-27-65-27-25 0-47 10-65 27-17 18-27 40-27 65 0 26 10 48 27 65 18 18 40 28 65 28zm158-410v-23L890 263h-87v220h284z"/></svg>
