<svg xmlns="http://www.w3.org/2000/svg" viewBox="0 -189 1008 1008"><path fill="currentColor" d="M567 127h410c17 0 31 14 31 31v63c0 18-14 32-31 32H567v31c0 18-14 32-31 32h-63c-18 0-32-14-32-32v-31H32c-18 0-32-14-32-32v-63c0-17 14-31 32-31h409V95c0-17 14-31 32-31h63c17 0 31 14 31 31v32zm252 315h158c17 0 31 14 31 31v63c0 18-14 32-31 32H819v31c0 18-14 32-31 32h-63c-18 0-32-14-32-32v-31H32c-18 0-32-14-32-32v-63c0-17 14-31 32-31h661v-32c0-17 14-31 32-31h63c17 0 31 14 31 31v32zM315 757h662c17 0 31 14 31 31v64c0 17-14 31-31 31H315v32c0 17-14 31-31 31h-63c-18 0-32-14-32-31v-32H32c-18 0-32-14-32-31v-64c0-17 14-31 32-31h157v-32c0-17 14-31 32-31h63c17 0 31 14 31 31v32z"/></svg>
