<svg xmlns="http://www.w3.org/2000/svg" viewBox="0 -144 1008 1008"><path fill="currentColor" d="M910 224c0 70-57 126-126 126-70 0-126-56-126-126 0-69 56-126 126-126 69 0 126 57 126 126zM612 108c0 60-48 108-108 108s-108-48-108-108S444 0 504 0s108 48 108 108zm360 396c0 40-32 72-72 72s-72-32-72-72 32-72 72-72 72 32 72 72zM314 224c0 49-41 90-90 90-50 0-90-41-90-90 0-50 40-90 90-90 49 0 90 40 90 90zm542 560c0 40-32 72-72 72s-72-32-72-72 32-72 72-72 72 32 72 72zM180 504c0 40-32 72-72 72s-72-32-72-72 32-72 72-72 72 32 72 72zm396 396c0 40-32 72-72 72s-72-32-72-72 32-72 72-72 72 32 72 72zM296 784c0 40-32 72-72 72s-72-32-72-72 32-72 72-72 72 32 72 72z"/></svg>
