<svg xmlns="http://www.w3.org/2000/svg" viewBox="0 -144 864 1008"><path fill="currentColor" d="M864 234v540c0 89-73 162-162 162H162C73 936 0 863 0 774V234C0 145 73 72 162 72h540c89 0 162 73 162 162zM720 343c-21 10-44 16-68 19 25-14 43-38 52-66-23 14-48 24-75 29-21-23-52-37-86-37-65 0-118 53-118 118 0 9 0 19 3 27-99-5-186-52-245-124-10 18-16 39-16 60 0 41 19 77 51 98-19 0-38-6-56-14v1c0 57 43 105 97 116-10 3-18 4-28 4-8 0-15-1-22-2 15 47 58 81 110 82-41 32-91 51-147 51-9 0-19-1-28-2 52 33 114 53 181 53 217 0 337-180 337-336 0-5 0-10-1-16 23-16 43-37 59-61z"/></svg>
