<svg xmlns="http://www.w3.org/2000/svg" viewBox="0 -189 1008 1008"><path fill="currentColor" d="M504 17c89 0 169 21 244 65 75 43 134 102 177 177 44 75 65 155 65 244s-21 169-65 244c-43 75-102 134-177 177-75 44-155 65-244 65-61 0-120-11-177-33s-106-53-150-93c-6-4-8-10-8-17 0-8 2-14 6-18l79-79c4-4 10-6 16-6s11 2 15 6c30 28 63 49 101 63 37 14 77 22 118 22 61 0 116-14 167-44 52-29 91-68 120-120 30-51 44-106 44-165s-16-114-46-165c-29-52-70-91-122-120-51-30-106-44-165-44-41 0-83 8-122 24s-75 37-104 65l82 82c10 10 14 22 14 36s-4 26-14 35c-10 10-21 14-35 14H59c-14 0-26-4-35-14-10-9-14-21-14-35V119c0-14 4-25 14-35 9-10 21-14 35-14s26 4 36 14l70 71c46-44 97-77 154-101 57-23 118-35 183-35z"/></svg>
