<svg xmlns="http://www.w3.org/2000/svg" viewBox="0 0 1008 1008"><path fill="currentColor" d="M315 323h-38l-64-177h39l45 131 44-131h38zm116-146h-34v-32h34v32zm0 146h-34V195h34v128zm65-54q1 32 31 32 14 0 19-18l34 5q-14 38-52 38t-52.5-19.5-14.5-49 17-47.5 44-18 44 19 16 58h-86zm1-21h51q-1-15-8-22.5t-18-7.5-18 8-7 22zm175 75h-34l-40-128h33l24 84 22-84h33l21 84 25-84h34l-42 128h-32l-23-82zM248 569h-33V391h54l32 121 32-121h54v178h-34V429l-35 140h-34l-36-140v140zm285-16.5Q514 572 479.5 572T428 540q-9-15-9-35t9-35q17-33 52-33t53.5 19 18.5 48-19 48.5zM463 475q-9 10-9 29t9 29.5 22.5 10.5 22.5-10q9-11 9-30t-9-29-22.5-10-22.5 10zm151-17q14-21 27.5-21t24.5 6l-11 30q-8-5-15.5-5t-12.5 3q-11 9-11 58v40h-34V440h32v18zm96 56q1 32 31 32 14 0 19-18l34 6q-13 38-51.5 38t-53-20-14.5-49.5 17-47.5 44-18 44 19 16 58h-86zm1-21h51q0-14-7.5-22t-18-8-18 8.5T711 493zM122 819H86V642h58q33 0 45.5 3t23 16.5T223 694t-6 30q-12 21-29.5 24.5T146 752h-24v67zm18-147h-18v50h20q32 0 38-8.5t6-17.5q0-19-20-23-7-1-26-1zm179 42q-28 0-28 41v65h-34V641h33v66q17-19 34-19t27 4 14 11q9 12 9 41v76h-34v-68q0-29-7-33.5t-14-4.5zm200.5 89Q501 822 466 822t-52-31q-9-15-8.5-35t8.5-36q17-32 52-32t53.5 19 18.5 48-18.5 48zm-70-77.5Q440 736 440 755t9.5 29.5T472 795t22-11q9-10 9-29t-9-29q-9-11-22-11t-22.5 10.5zM606 691h23v27h-23v52q0 20 3 22 6 4 20-1l3 26q-12 5-24 5-22 0-28-8-8-11-8-40v-56h-16v-27h16v-26l34-20v46zm158 112q-19 19-54 19t-52-31q-8-15-8-35t8-36q17-32 52-32t54 19 19 48-19 48zm-70-77.5q-9 10.5-9 29.5t9 29.5 22.5 10.5 22.5-11q9-10 9-29t-9-29q-9-11-22.5-11T694 725.5zm192 2.5q-4-16-25.5-16T839 723q0 4 4 6.5t31 9 38 15.5 11 26-15 29.5-43 12.5q-52 0-63-39l34-6q5 21 28.5 21t23.5-14q0-8-14-11-41-9-54-18t-13-27 13-29 40-11q48 0 58 34zM35 0h938q15 0 25 10t10 25v938q0 15-10 25t-25 10H35q-15 0-25-10T0 973V35q0-15 10-25T35 0zm42 43q-7 0-13 3-21 9-21 32v854q0 14 10 24t24 10h854q14 0 24-10t10-24V78q0-14-10-24.5T931 43H77z"/></svg>
